<svg width="60" height="60" viewBox="0 0 60 60" fill="none" xmlns="http://www.w3.org/2000/svg">
<circle cx="30" cy="30" r="30" fill="#DC2626"/>
<path d="M30.9457 9L29.5 10.8261L28.0543 9L28.1304 11.4348L26 11.3478L27.5978 13L26 14.6522L28.1304 14.5652L28.0543 17L29.5 15.1739L30.9457 17L30.8696 14.4783L33 14.5652L31.4022 12.913L33 11.2609L30.8696 11.3478L30.9457 9Z" fill="white"/>
<path d="M45 19H14V38.665C13.9956 39.9551 14.344 41.2222 15.0082 42.3314C15.5315 43.1266 16.1523 43.8543 16.8564 44.4978C17.2643 44.93 17.7146 45.3208 18.2006 45.6644C21.4461 48.3628 25.1422 50.4778 29.122 51.9139C29.2205 51.9802 29.3396 52.0097 29.458 51.9972C29.5764 52.0097 29.6955 51.9802 29.7941 51.9139C33.7828 50.4968 37.4821 48.38 40.7155 45.6644C41.1355 45.2478 41.6396 44.9145 42.0596 44.4978C42.7637 43.8543 43.3845 43.1266 43.9079 42.3314C44.5821 41.2264 44.9313 39.9565 44.916 38.665C45 37.2485 45 19.0833 45 19ZM41.8076 40.9981C41.4038 41.5859 40.9236 42.1182 40.3794 42.5813C39.9594 42.998 39.4553 43.4146 39.0352 43.8312L29.542 34.332V49.2474C26.0887 47.9561 22.8794 46.0969 20.0488 43.7479L29.542 34.332H16.6044V21.4998L29.542 34.332V21.4998H42.4797L29.542 34.332H42.4797V38.5817C42.4662 39.4307 42.2349 40.2623 41.8076 40.9981Z" fill="white"/>
</svg>
