<svg width="381" height="66" viewBox="0 0 381 66" fill="none" xmlns="http://www.w3.org/2000/svg">
<g clip-path="url(#clip0_14_447)">
<path d="M190.052 13.0439H189.27V56.8581H190.052V13.0439Z" fill="#BD1818"/>
<path d="M208.834 17.5034V20.1791H212.076V21.0709H208.834V24.6385H207.828V16.5H212.412V17.5034H208.834Z" fill="#BD1818"/>
<path d="M219.904 18.3953V24.6385H219.121L219.009 23.7466C218.574 24.2422 217.999 24.5941 217.358 24.7556C216.718 24.917 216.044 24.8803 215.425 24.6505C214.806 24.4206 214.272 24.0083 213.894 23.4685C213.516 22.9287 213.311 22.2869 213.308 21.6284C213.289 21.1987 213.36 20.7699 213.516 20.369C213.672 19.9682 213.91 19.6041 214.215 19.3C214.52 18.9959 214.885 18.7584 215.287 18.6027C215.689 18.4469 216.119 18.3763 216.55 18.3953C217.016 18.3916 217.478 18.4894 217.903 18.682C218.328 18.8745 218.705 19.1571 219.009 19.5101L219.121 18.5067H219.904V18.3953ZM218.898 21.5169C218.898 21.0538 218.76 20.6012 218.502 20.2162C218.244 19.8312 217.877 19.5311 217.448 19.3539C217.019 19.1767 216.547 19.1303 216.092 19.2207C215.636 19.311 215.218 19.534 214.89 19.8614C214.561 20.1888 214.338 20.606 214.247 21.0601C214.157 21.5143 214.203 21.985 214.381 22.4128C214.558 22.8406 214.859 23.2063 215.245 23.4635C215.632 23.7208 216.085 23.8581 216.55 23.8581C216.862 23.8741 217.175 23.8245 217.467 23.7125C217.759 23.6005 218.024 23.4286 218.246 23.208C218.467 22.9873 218.639 22.7227 218.752 22.4314C218.864 22.1401 218.914 21.8286 218.898 21.5169Z" fill="#BD1818"/>
<path d="M221.468 21.5169C221.458 21.0898 221.536 20.6653 221.696 20.2689C221.855 19.8725 222.094 19.5125 222.397 19.2104C222.7 18.9084 223.061 18.6706 223.458 18.5113C223.856 18.3521 224.281 18.2747 224.71 18.2838C225.391 18.2606 226.061 18.4685 226.609 18.8734C227.157 19.2783 227.552 19.8564 227.728 20.5135H226.722C226.55 20.1216 226.27 19.7871 225.913 19.5499C225.556 19.3127 225.138 19.1828 224.71 19.1757C224.087 19.1757 223.49 19.4223 223.05 19.8614C222.609 20.3005 222.362 20.896 222.362 21.5169C222.362 22.1378 222.609 22.7333 223.05 23.1724C223.49 23.6114 224.087 23.8581 224.71 23.8581C225.144 23.8774 225.573 23.758 225.935 23.5175C226.297 23.2769 226.573 22.9276 226.722 22.5203H227.728C227.492 23.2465 227.003 23.8645 226.35 24.2628C225.697 24.6612 224.923 24.8135 224.167 24.6924C223.411 24.5712 222.724 24.1846 222.229 23.6023C221.734 23.0199 221.464 22.2803 221.468 21.5169Z" fill="#BD1818"/>
<path d="M228.957 22.0743V18.5067H229.963V21.9628C229.935 22.2138 229.96 22.4679 230.037 22.7085C230.114 22.9491 230.241 23.1708 230.41 23.3591C230.579 23.5473 230.786 23.698 231.017 23.8011C231.248 23.9042 231.499 23.9575 231.752 23.9575C232.005 23.9575 232.256 23.9042 232.487 23.8011C232.718 23.698 232.925 23.5473 233.094 23.3591C233.262 23.1708 233.39 22.9491 233.467 22.7085C233.544 22.4679 233.569 22.2138 233.541 21.9628V18.5067H234.547V22.0743C234.547 22.8135 234.252 23.5224 233.728 24.0451C233.204 24.5678 232.493 24.8615 231.752 24.8615C231.011 24.8615 230.3 24.5678 229.776 24.0451C229.251 23.5224 228.957 22.8135 228.957 22.0743Z" fill="#BD1818"/>
<path d="M236.447 16.1655H237.453V24.6385H236.447V16.1655Z" fill="#BD1818"/>
<path d="M242.708 23.7466V24.6385H241.926C241.631 24.6628 241.334 24.6209 241.058 24.5157C240.781 24.4106 240.532 24.245 240.328 24.031C240.124 23.8171 239.971 23.5603 239.88 23.2795C239.789 22.9988 239.762 22.7012 239.802 22.4088V19.2872H238.684V19.0642L240.584 17.0574H240.696V18.3953H242.708V19.2872H240.696V22.4088C240.67 22.5905 240.686 22.7759 240.745 22.9501C240.803 23.1244 240.901 23.2827 241.031 23.4125C241.161 23.5424 241.32 23.6402 241.495 23.6982C241.669 23.7561 241.855 23.7727 242.037 23.7466H242.708Z" fill="#BD1818"/>
<path d="M250.087 18.3953V24.6385H249.305L249.193 23.7466C248.758 24.2422 248.182 24.5941 247.542 24.7556C246.902 24.917 246.228 24.8803 245.609 24.6505C244.99 24.4206 244.456 24.0083 244.078 23.4685C243.7 22.9287 243.495 22.2869 243.491 21.6284C243.472 21.1987 243.543 20.7699 243.699 20.369C243.855 19.9682 244.094 19.6041 244.399 19.3C244.703 18.9959 245.069 18.7584 245.471 18.6027C245.872 18.4469 246.303 18.3763 246.733 18.3953C247.2 18.3916 247.662 18.4894 248.087 18.682C248.511 18.8745 248.889 19.1571 249.193 19.5101L249.305 18.5067H250.087V18.3953ZM249.081 21.5169C249.081 21.0538 248.943 20.6012 248.685 20.2162C248.427 19.8312 248.061 19.5311 247.632 19.3539C247.203 19.1767 246.731 19.1303 246.275 19.2207C245.82 19.311 245.402 19.534 245.073 19.8614C244.745 20.1888 244.521 20.606 244.431 21.0601C244.34 21.5143 244.387 21.985 244.564 22.4128C244.742 22.8406 245.043 23.2063 245.429 23.4635C245.815 23.7208 246.269 23.8581 246.733 23.8581C247.044 23.8657 247.352 23.8104 247.641 23.6955C247.929 23.5805 248.191 23.4083 248.411 23.1894C248.63 22.9705 248.803 22.7093 248.918 22.4218C249.033 22.1343 249.089 21.8264 249.081 21.5169Z" fill="#BD1818"/>
<path d="M258.136 16.1655V24.6385H257.354L257.242 23.7466C256.931 24.0841 256.55 24.3491 256.124 24.5226C255.699 24.696 255.241 24.7737 254.782 24.75C254.354 24.7591 253.928 24.6817 253.531 24.5225C253.133 24.3632 252.772 24.1254 252.469 23.8233C252.166 23.5213 251.928 23.1612 251.768 22.7648C251.609 22.3685 251.531 21.944 251.54 21.5169C251.521 21.0872 251.592 20.6584 251.748 20.2575C251.904 19.8567 252.142 19.4926 252.447 19.1885C252.752 18.8844 253.117 18.6469 253.519 18.4912C253.921 18.3354 254.351 18.2648 254.782 18.2838C255.651 18.2665 256.493 18.5863 257.13 19.1757V16.1655H258.136ZM257.13 21.5169C257.13 21.0538 256.992 20.6012 256.734 20.2162C256.476 19.8312 256.11 19.5311 255.681 19.3539C255.252 19.1767 254.78 19.1303 254.324 19.2206C253.869 19.311 253.45 19.534 253.122 19.8614C252.794 20.1888 252.57 20.606 252.48 21.0601C252.389 21.5143 252.436 21.985 252.613 22.4128C252.791 22.8406 253.092 23.2063 253.478 23.4635C253.864 23.7208 254.318 23.8581 254.782 23.8581C255.095 23.8741 255.407 23.8245 255.699 23.7125C255.991 23.6005 256.257 23.4286 256.478 23.208C256.699 22.9873 256.872 22.7227 256.984 22.4314C257.096 22.1401 257.146 21.8286 257.13 21.5169Z" fill="#BD1818"/>
<path d="M269.204 16.1655V24.6385H268.422L268.31 23.7466C268 24.0841 267.618 24.3491 267.193 24.5226C266.768 24.696 266.309 24.7737 265.851 24.75C265.422 24.7591 264.997 24.6817 264.599 24.5225C264.202 24.3632 263.841 24.1254 263.538 23.8233C263.235 23.5213 262.996 23.1612 262.837 22.7648C262.677 22.3685 262.599 21.944 262.608 21.5169C262.589 21.0872 262.66 20.6584 262.816 20.2575C262.973 19.8567 263.211 19.4926 263.516 19.1885C263.821 18.8844 264.186 18.6469 264.588 18.4912C264.99 18.3354 265.42 18.2648 265.851 18.2838C266.719 18.2665 267.561 18.5863 268.198 19.1757V16.1655H269.204ZM268.198 21.5169C268.198 21.0538 268.061 20.6012 267.803 20.2162C267.545 19.8312 267.178 19.5311 266.749 19.3539C266.32 19.1767 265.848 19.1303 265.393 19.2206C264.937 19.311 264.519 19.534 264.191 19.8614C263.862 20.1888 263.639 20.606 263.548 21.0601C263.457 21.5143 263.504 21.985 263.682 22.4128C263.859 22.8406 264.16 23.2063 264.546 23.4635C264.932 23.7208 265.386 23.8581 265.851 23.8581C266.163 23.8741 266.476 23.8245 266.768 23.7125C267.06 23.6005 267.325 23.4286 267.546 23.208C267.768 22.9873 267.94 22.7227 268.052 22.4314C268.165 22.1401 268.214 21.8286 268.198 21.5169Z" fill="#BD1818"/>
<path d="M276.918 21.9628H271.552C271.605 22.506 271.869 23.0072 272.286 23.3607C272.703 23.7142 273.241 23.8925 273.787 23.8581C274.178 23.8741 274.565 23.7774 274.902 23.5797C275.239 23.382 275.512 23.0916 275.688 22.7433H276.694C276.464 23.3499 276.049 23.8694 275.508 24.2293C274.966 24.5891 274.326 24.7712 273.676 24.75C272.816 24.75 271.991 24.4094 271.383 23.8031C270.775 23.1967 270.434 22.3744 270.434 21.5169C270.434 20.6742 270.769 19.866 271.367 19.2702C271.964 18.6743 272.775 18.3395 273.62 18.3395C274.465 18.3395 275.275 18.6743 275.873 19.2702C276.47 19.866 276.806 20.6742 276.806 21.5169C277.03 21.7399 277.03 21.8514 276.918 21.9628ZM271.663 21.071H276.023C275.954 20.5638 275.699 20.1004 275.306 19.7707C274.914 19.441 274.412 19.2687 273.899 19.2872C273.635 19.2577 273.367 19.2805 273.112 19.3543C272.857 19.428 272.618 19.5512 272.411 19.7169C272.203 19.8826 272.03 20.0874 271.902 20.3198C271.774 20.5521 271.693 20.8074 271.663 21.071Z" fill="#BD1818"/>
<path d="M207.269 36.5676C207.249 36.0204 207.342 35.4749 207.542 34.9653C207.743 34.4556 208.047 33.9927 208.435 33.6055C208.824 33.2184 209.288 32.9153 209.799 32.7152C210.31 32.515 210.857 32.4222 211.406 32.4426C212.279 32.4076 213.137 32.6782 213.831 33.2076C214.525 33.7369 215.012 34.4917 215.207 35.3412H214.312C214.1 34.7761 213.717 34.2904 213.217 33.951C212.716 33.6116 212.122 33.4352 211.517 33.4459C211.095 33.4393 210.676 33.5192 210.285 33.6808C209.895 33.8424 209.542 34.0822 209.249 34.3853C208.955 34.6884 208.727 35.0484 208.579 35.443C208.431 35.8375 208.366 36.2582 208.387 36.679C208.368 37.094 208.436 37.5084 208.586 37.8958C208.737 38.2831 208.967 38.6349 209.261 38.9287C209.556 39.2224 209.909 39.4517 210.297 39.6018C210.686 39.752 211.101 39.8197 211.517 39.8007C212.141 39.8254 212.755 39.6413 213.262 39.2776C213.768 38.9139 214.138 38.3916 214.312 37.7939H215.318C215.104 38.6629 214.6 39.4337 213.889 39.9804C213.178 40.5271 212.303 40.8174 211.406 40.804C210.851 40.8121 210.3 40.7072 209.787 40.4957C209.274 40.2842 208.81 39.9705 208.423 39.574C208.035 39.1774 207.733 38.7063 207.535 38.1894C207.337 37.6724 207.246 37.1206 207.269 36.5676Z" fill="#BD1818"/>
<path d="M216.66 32.2196H217.778V33.3345H216.66V32.2196ZM216.772 34.4493H217.778V40.6926H216.772V34.4493Z" fill="#BD1818"/>
<path d="M225.492 37.9054H220.126C220.18 38.4486 220.443 38.9497 220.86 39.3033C221.277 39.6568 221.815 39.8351 222.362 39.8007C222.752 39.8166 223.139 39.72 223.477 39.5222C223.814 39.3245 224.086 39.0341 224.262 38.6858H225.268C225.038 39.2924 224.623 39.812 224.082 40.1718C223.541 40.5317 222.9 40.7137 222.25 40.6926C221.39 40.6926 220.565 40.3519 219.957 39.7456C219.349 39.1393 219.008 38.3169 219.008 37.4595C219.008 37.0422 219.09 36.629 219.25 36.2435C219.41 35.858 219.645 35.5078 219.941 35.2127C220.237 34.9177 220.588 34.6836 220.975 34.524C221.361 34.3643 221.776 34.2821 222.194 34.2821C222.612 34.2821 223.027 34.3643 223.413 34.524C223.8 34.6836 224.151 34.9177 224.447 35.2127C224.743 35.5078 224.978 35.858 225.138 36.2435C225.298 36.629 225.38 37.0422 225.38 37.4595C225.604 37.6824 225.604 37.7939 225.492 37.9054ZM220.238 37.0135H224.598C224.529 36.5064 224.273 36.0429 223.88 35.7133C223.488 35.3836 222.986 35.2113 222.473 35.2297C221.944 35.1902 221.419 35.3523 221.004 35.6832C220.589 36.0141 220.315 36.4894 220.238 37.0135Z" fill="#BD1818"/>
<path d="M232.535 36.902V40.6926H231.529V37.125C231.529 35.8987 230.97 35.1183 229.852 35.1183C229.585 35.1233 229.321 35.1832 229.078 35.2944C228.835 35.4055 228.617 35.5655 228.439 35.7643C228.26 35.9631 228.125 36.1964 228.041 36.4497C227.957 36.703 227.927 36.9709 227.951 37.2365V40.6926H226.945V34.4493H227.616L227.84 35.4527C228.089 35.0948 228.424 34.8051 228.815 34.6103C229.205 34.4155 229.639 34.3218 230.076 34.3378C231.641 34.2264 232.535 35.3412 232.535 36.902Z" fill="#BD1818"/>
<path d="M233.989 37.5709C233.98 37.1439 234.057 36.7194 234.217 36.323C234.377 35.9266 234.615 35.5665 234.918 35.2645C235.221 34.9624 235.582 34.7246 235.98 34.5654C236.377 34.4061 236.803 34.3287 237.231 34.3378C237.913 34.3147 238.582 34.5225 239.131 34.9274C239.679 35.3323 240.073 35.9105 240.25 36.5676H239.243C239.072 36.1756 238.791 35.8411 238.434 35.6039C238.077 35.3667 237.66 35.2368 237.231 35.2297C236.608 35.2297 236.011 35.4764 235.571 35.9155C235.131 36.3545 234.883 36.95 234.883 37.5709C234.883 38.1919 235.131 38.7874 235.571 39.2264C236.011 39.6655 236.608 39.9122 237.231 39.9122C237.666 39.9314 238.095 39.8121 238.457 39.5715C238.819 39.331 239.094 38.9817 239.243 38.5743H240.25C240.073 39.2314 239.679 39.8096 239.131 40.2145C238.582 40.6194 237.913 40.8272 237.231 40.8041C236.803 40.8132 236.377 40.7358 235.98 40.5765C235.582 40.4173 235.221 40.1795 234.918 39.8774C234.615 39.5754 234.377 39.2153 234.217 38.8189C234.057 38.4225 233.98 37.998 233.989 37.5709Z" fill="#BD1818"/>
<path d="M241.59 32.2196H242.708V33.3345H241.59V32.2196ZM241.702 34.4493H242.708V40.6926H241.702V34.4493Z" fill="#BD1818"/>
<path d="M250.759 34.4493V40.6926H249.977L249.865 39.8007C249.43 40.2963 248.854 40.6482 248.214 40.8096C247.574 40.9711 246.899 40.9344 246.281 40.7045C245.662 40.4746 245.128 40.0624 244.75 39.5225C244.371 38.9827 244.167 38.3409 244.163 37.6824C244.144 37.2528 244.215 36.8239 244.371 36.4231C244.527 36.0222 244.766 35.6582 245.07 35.3541C245.375 35.05 245.74 34.8125 246.142 34.6567C246.544 34.501 246.974 34.4303 247.405 34.4493C247.872 34.4456 248.334 34.5435 248.758 34.736C249.183 34.9286 249.561 35.2112 249.865 35.5642L249.977 34.5608H250.759V34.4493ZM249.753 37.5709C249.753 37.1079 249.615 36.6552 249.357 36.2702C249.099 35.8852 248.733 35.5851 248.304 35.4079C247.875 35.2307 247.403 35.1844 246.947 35.2747C246.492 35.365 246.074 35.588 245.745 35.9154C245.417 36.2429 245.193 36.66 245.103 37.1142C245.012 37.5683 245.059 38.0391 245.236 38.4669C245.414 38.8947 245.715 39.2603 246.101 39.5176C246.487 39.7748 246.941 39.9121 247.405 39.9121C248.021 39.89 248.605 39.6362 249.041 39.2019C249.476 38.7675 249.731 38.1848 249.753 37.5709Z" fill="#BD1818"/>
<path d="M254.67 40.804C253.217 40.804 252.211 40.0236 252.211 38.7973H253.217C253.217 39.5777 253.888 39.9122 254.782 39.9122C255.677 39.9122 256.236 39.5777 256.236 38.9088C256.236 38.2399 255.453 38.0169 254.67 37.9054C253.553 37.6824 252.435 37.4594 252.435 36.1216C252.435 35.0067 253.329 34.3378 254.782 34.3378C256.236 34.3378 257.13 35.1182 257.13 36.2331H256.236C256.236 35.5642 255.677 35.2297 254.782 35.2297C253.888 35.2297 253.441 35.5642 253.441 36.1216C253.441 36.679 254.111 36.902 255.006 37.0135C256.124 37.2365 257.354 37.348 257.354 38.9088C257.224 39.5017 256.877 40.0249 256.381 40.3756C255.884 40.7263 255.274 40.8791 254.67 40.804Z" fill="#BD1818"/>
<path d="M267.751 32.2196V40.6926H266.969L266.857 39.8007C266.546 40.1382 266.165 40.4032 265.74 40.5766C265.315 40.7501 264.856 40.8278 264.397 40.8041C263.969 40.8132 263.544 40.7358 263.146 40.5765C262.749 40.4173 262.387 40.1795 262.085 39.8774C261.782 39.5754 261.543 39.2153 261.384 38.8189C261.224 38.4225 261.146 37.998 261.155 37.571C261.136 37.1413 261.207 36.7124 261.363 36.3116C261.52 35.9107 261.758 35.5467 262.063 35.2426C262.368 34.9385 262.733 34.701 263.135 34.5453C263.537 34.3895 263.967 34.3189 264.397 34.3378C265.266 34.3206 266.108 34.6403 266.745 35.2297V32.2196H267.751ZM266.857 37.571C266.857 37.1079 266.719 36.6553 266.461 36.2702C266.203 35.8852 265.837 35.5852 265.408 35.408C264.979 35.2308 264.507 35.1844 264.051 35.2747C263.596 35.3651 263.177 35.588 262.849 35.9155C262.521 36.2429 262.297 36.6601 262.207 37.1142C262.116 37.5684 262.163 38.0391 262.34 38.4669C262.518 38.8947 262.819 39.2604 263.205 39.5176C263.591 39.7749 264.045 39.9122 264.509 39.9122C265.125 39.89 265.709 39.6363 266.145 39.2019C266.58 38.7675 266.835 38.1848 266.857 37.571Z" fill="#BD1818"/>
<path d="M275.578 37.9054H270.212C270.266 38.4486 270.529 38.9497 270.946 39.3033C271.363 39.6568 271.901 39.8351 272.448 39.8007C272.838 39.8166 273.225 39.72 273.562 39.5222C273.9 39.3245 274.172 39.0341 274.348 38.6858H275.354C275.124 39.2924 274.709 39.812 274.168 40.1718C273.626 40.5317 272.986 40.7137 272.336 40.6926C271.476 40.6926 270.651 40.3519 270.043 39.7456C269.435 39.1393 269.094 38.3169 269.094 37.4595C269.094 36.6168 269.429 35.8086 270.027 35.2127C270.624 34.6169 271.435 34.2821 272.28 34.2821C273.125 34.2821 273.935 34.6169 274.533 35.2127C275.13 35.8086 275.466 36.6168 275.466 37.4595C275.544 37.595 275.583 37.7493 275.578 37.9054ZM270.212 37.0135H274.572C274.503 36.5064 274.247 36.0429 273.855 35.7133C273.462 35.3836 272.961 35.2113 272.448 35.2297C271.925 35.2192 271.414 35.392 271.006 35.7179C270.597 36.0438 270.316 36.5023 270.212 37.0135Z" fill="#BD1818"/>
<path d="M280.049 32.2196H281.055V40.6926H280.049V32.2196Z" fill="#BD1818"/>
<path d="M289.103 34.4493V40.6926H288.32L288.209 39.8007C287.774 40.2963 287.198 40.6482 286.558 40.8096C285.918 40.9711 285.243 40.9344 284.624 40.7045C284.006 40.4746 283.472 40.0624 283.093 39.5225C282.715 38.9827 282.511 38.3409 282.507 37.6824C282.488 37.2528 282.559 36.8239 282.715 36.4231C282.871 36.0222 283.109 35.6582 283.414 35.3541C283.719 35.05 284.084 34.8125 284.486 34.6567C284.888 34.501 285.318 34.4303 285.749 34.4493C286.216 34.4456 286.677 34.5435 287.102 34.736C287.527 34.9286 287.905 35.2112 288.209 35.5642L288.32 34.5608H289.103V34.4493ZM288.097 37.5709C288.097 37.1079 287.959 36.6552 287.701 36.2702C287.443 35.8852 287.076 35.5851 286.647 35.4079C286.218 35.2307 285.746 35.1844 285.291 35.2747C284.836 35.365 284.417 35.588 284.089 35.9154C283.761 36.2429 283.537 36.66 283.446 37.1142C283.356 37.5683 283.402 38.0391 283.58 38.4669C283.758 38.8947 284.059 39.2603 284.445 39.5176C284.831 39.7748 285.285 39.9121 285.749 39.9121C286.371 39.9092 286.966 39.6616 287.406 39.2232C287.845 38.7848 288.094 38.191 288.097 37.5709Z" fill="#BD1818"/>
<path d="M293.688 36.5676C293.668 36.0204 293.761 35.4749 293.961 34.9653C294.162 34.4556 294.466 33.9927 294.854 33.6055C295.243 33.2184 295.707 32.9153 296.218 32.7152C296.729 32.515 297.276 32.4222 297.825 32.4426C298.698 32.4076 299.556 32.6782 300.25 33.2076C300.944 33.7369 301.431 34.4917 301.626 35.3412H300.619C300.407 34.7761 300.024 34.2904 299.524 33.951C299.023 33.6116 298.43 33.4352 297.825 33.4459C297.402 33.4393 296.983 33.5192 296.592 33.6808C296.202 33.8424 295.849 34.0822 295.556 34.3853C295.263 34.6884 295.035 35.0484 294.886 35.443C294.738 35.8375 294.673 36.2582 294.694 36.679C294.675 37.094 294.743 37.5084 294.894 37.8958C295.044 38.2831 295.274 38.6349 295.569 38.9287C295.863 39.2224 296.216 39.4517 296.604 39.6018C296.993 39.752 297.408 39.8197 297.825 39.8007C298.448 39.8254 299.062 39.6413 299.569 39.2776C300.075 38.9139 300.445 38.3916 300.619 37.7939H301.626C301.411 38.6629 300.907 39.4337 300.196 39.9804C299.486 40.5271 298.61 40.8174 297.713 40.804C297.166 40.8001 296.626 40.6862 296.125 40.4691C295.624 40.2519 295.172 39.9361 294.796 39.5405C294.42 39.1448 294.128 38.6776 293.938 38.1667C293.747 37.6559 293.662 37.1119 293.688 36.5676Z" fill="#BD1818"/>
<path d="M302.631 37.571C302.609 36.9052 302.786 36.2479 303.141 35.6834C303.496 35.1189 304.011 34.6729 304.622 34.4026C305.232 34.1323 305.91 34.0499 306.568 34.1661C307.225 34.2823 307.834 34.5917 308.314 35.0547C308.794 35.5177 309.125 36.1132 309.264 36.7649C309.402 37.4165 309.343 38.0946 309.092 38.7123C308.842 39.33 308.413 39.859 307.859 40.2317C307.305 40.6044 306.653 40.8037 305.985 40.8041C305.551 40.8144 305.119 40.7387 304.715 40.5813C304.311 40.4238 303.942 40.1879 303.63 39.8871C303.318 39.5862 303.069 39.2266 302.897 38.829C302.726 38.4314 302.635 38.0037 302.631 37.571ZM308.332 37.571C308.332 37.1079 308.195 36.6553 307.937 36.2702C307.679 35.8852 307.312 35.5851 306.883 35.4079C306.454 35.2307 305.982 35.1844 305.527 35.2747C305.071 35.3651 304.653 35.588 304.325 35.9155C303.996 36.2429 303.773 36.66 303.682 37.1142C303.591 37.5684 303.638 38.0391 303.816 38.4669C303.993 38.8947 304.294 39.2603 304.68 39.5176C305.066 39.7749 305.52 39.9122 305.985 39.9122C306.6 39.89 307.185 39.6363 307.62 39.2019C308.056 38.7675 308.31 38.1848 308.332 37.571Z" fill="#BD1818"/>
<path d="M319.96 36.679V40.6926H318.954V37.0135C318.954 35.8986 318.395 35.2297 317.501 35.2297C317.015 35.2832 316.57 35.5221 316.257 35.8962C315.944 36.2704 315.789 36.7507 315.824 37.2365V40.6926H314.929V37.0135C314.929 35.8986 314.37 35.2297 313.476 35.2297C312.991 35.2832 312.545 35.5221 312.232 35.8962C311.92 36.2704 311.764 36.7507 311.799 37.2365V40.6926H310.793V34.4493H311.464L311.576 35.3412C311.803 35.0222 312.105 34.7639 312.456 34.5889C312.807 34.4139 313.196 34.3277 313.588 34.3378C313.993 34.3206 314.394 34.4294 314.734 34.6491C315.075 34.8688 315.338 35.1885 315.488 35.5642C315.698 35.1875 316.007 34.8746 316.381 34.6587C316.755 34.4427 317.18 34.3319 317.613 34.3378C317.929 34.3024 318.25 34.3385 318.551 34.4436C318.852 34.5488 319.126 34.7201 319.351 34.945C319.577 35.1699 319.749 35.4426 319.854 35.7428C319.96 36.043 319.996 36.363 319.96 36.679Z" fill="#BD1818"/>
<path d="M321.748 38.0169V34.4493H322.754V37.9054C322.726 38.1564 322.751 38.4105 322.828 38.6511C322.905 38.8917 323.032 39.1134 323.201 39.3016C323.37 39.4899 323.577 39.6405 323.808 39.7436C324.039 39.8468 324.289 39.9001 324.543 39.9001C324.796 39.9001 325.046 39.8468 325.278 39.7436C325.509 39.6405 325.716 39.4899 325.884 39.3016C326.053 39.1134 326.18 38.8917 326.257 38.6511C326.334 38.4105 326.36 38.1564 326.331 37.9054V34.4493H327.338V38.0169C327.36 38.3888 327.304 38.7614 327.172 39.1099C327.039 39.4584 326.834 39.7748 326.57 40.0383C326.306 40.3018 325.988 40.5064 325.639 40.6384C325.289 40.7704 324.916 40.8268 324.543 40.804C324.168 40.8363 323.79 40.7864 323.436 40.6577C323.082 40.5291 322.761 40.3248 322.495 40.0593C322.228 39.7937 322.024 39.4733 321.895 39.1205C321.766 38.7677 321.715 38.391 321.748 38.0169Z" fill="#BD1818"/>
<path d="M334.717 36.902V40.6926H333.711V37.125C333.711 35.8987 333.152 35.1182 332.034 35.1182C331.766 35.1232 331.503 35.1832 331.259 35.2944C331.016 35.4055 330.799 35.5655 330.62 35.7643C330.442 35.9631 330.307 36.1964 330.223 36.4497C330.139 36.703 330.108 36.9709 330.133 37.2365V40.6926H329.127V34.4493H329.798L330.021 35.4527C330.27 35.0948 330.606 34.8051 330.996 34.6103C331.387 34.4155 331.821 34.3218 332.257 34.3378C332.596 34.3164 332.934 34.3689 333.25 34.4918C333.566 34.6147 333.851 34.8049 334.085 35.0492C334.32 35.2935 334.498 35.5859 334.607 35.9059C334.716 36.226 334.753 36.566 334.717 36.902Z" fill="#BD1818"/>
<path d="M336.504 32.2196H337.622V33.3345H336.504V32.2196ZM336.616 34.4493H337.622V40.6926H336.616V34.4493Z" fill="#BD1818"/>
<path d="M339.077 37.5709C339.068 37.1439 339.145 36.7194 339.305 36.323C339.465 35.9266 339.703 35.5665 340.006 35.2645C340.309 34.9624 340.67 34.7246 341.068 34.5654C341.465 34.4061 341.891 34.3287 342.319 34.3378C343.001 34.3147 343.67 34.5225 344.218 34.9274C344.767 35.3323 345.161 35.9105 345.337 36.5676H344.331C344.16 36.1756 343.879 35.8411 343.522 35.6039C343.165 35.3667 342.748 35.2368 342.319 35.2297C341.696 35.2297 341.099 35.4764 340.659 35.9155C340.219 36.3545 339.971 36.95 339.971 37.5709C339.971 38.1919 340.219 38.7874 340.659 39.2264C341.099 39.6655 341.696 39.9122 342.319 39.9122C342.753 39.9314 343.183 39.8121 343.545 39.5715C343.906 39.331 344.182 38.9817 344.331 38.5743H345.337C345.161 39.2314 344.767 39.8096 344.218 40.2145C343.67 40.6194 343.001 40.8272 342.319 40.8041C341.891 40.8132 341.465 40.7358 341.068 40.5765C340.67 40.4173 340.309 40.1795 340.006 39.8774C339.703 39.5754 339.465 39.2153 339.305 38.8189C339.145 38.4225 339.068 37.998 339.077 37.5709Z" fill="#BD1818"/>
<path d="M352.827 34.4493V40.6926H352.045L351.933 39.8007C351.498 40.2963 350.923 40.6482 350.282 40.8096C349.642 40.9711 348.968 40.9344 348.349 40.7045C347.73 40.4746 347.196 40.0624 346.818 39.5225C346.44 38.9827 346.235 38.3409 346.232 37.6824C346.213 37.2528 346.283 36.8239 346.44 36.4231C346.596 36.0222 346.834 35.6582 347.139 35.3541C347.444 35.05 347.809 34.8125 348.211 34.6567C348.613 34.501 349.043 34.4303 349.474 34.4493C349.94 34.4456 350.402 34.5435 350.827 34.736C351.252 34.9286 351.629 35.2112 351.933 35.5642L352.045 34.5608H352.827V34.4493ZM351.821 37.5709C351.821 37.1079 351.684 36.6552 351.426 36.2702C351.168 35.8852 350.801 35.5851 350.372 35.4079C349.943 35.2307 349.471 35.1844 349.016 35.2747C348.56 35.365 348.142 35.588 347.814 35.9154C347.485 36.2429 347.262 36.66 347.171 37.1142C347.08 37.5683 347.127 38.0391 347.305 38.4669C347.482 38.8947 347.783 39.2603 348.169 39.5176C348.555 39.7748 349.009 39.9121 349.474 39.9121C350.089 39.89 350.674 39.6362 351.109 39.2019C351.545 38.7675 351.799 38.1848 351.821 37.5709Z" fill="#BD1818"/>
<path d="M354.28 37.5709C354.271 37.1439 354.348 36.7194 354.508 36.323C354.668 35.9266 354.906 35.5665 355.209 35.2645C355.512 34.9624 355.873 34.7246 356.271 34.5654C356.668 34.4061 357.094 34.3287 357.522 34.3378C358.204 34.3147 358.873 34.5225 359.422 34.9274C359.97 35.3323 360.364 35.9105 360.541 36.5676H359.646C359.475 36.1756 359.194 35.8411 358.837 35.6039C358.48 35.3667 358.063 35.2368 357.634 35.2297C357.011 35.2297 356.414 35.4764 355.974 35.9155C355.534 36.3545 355.286 36.95 355.286 37.5709C355.286 38.1919 355.534 38.7874 355.974 39.2264C356.414 39.6655 357.011 39.9122 357.634 39.9122C358.068 39.9314 358.498 39.8121 358.859 39.5715C359.221 39.331 359.497 38.9817 359.646 38.5743H360.652C360.476 39.2314 360.081 39.8096 359.533 40.2145C358.985 40.6194 358.316 40.8272 357.634 40.8041C357.2 40.8144 356.768 40.7387 356.364 40.5813C355.96 40.4238 355.591 40.1879 355.279 39.887C354.967 39.5862 354.718 39.2266 354.546 38.829C354.375 38.4314 354.284 38.0037 354.28 37.5709Z" fill="#BD1818"/>
<path d="M361.996 32.2196H363.114V33.3345H361.996V32.2196ZM361.996 34.4493H363.002V40.6926H361.996V34.4493Z" fill="#BD1818"/>
<path d="M364.455 37.5709C364.433 36.9051 364.61 36.2479 364.965 35.6834C365.32 35.1189 365.835 34.6729 366.446 34.4026C367.057 34.1323 367.734 34.0499 368.392 34.1661C369.05 34.2823 369.658 34.5917 370.138 35.0547C370.618 35.5177 370.949 36.1132 371.088 36.7649C371.227 37.4165 371.167 38.0946 370.917 38.7123C370.666 39.33 370.237 39.859 369.683 40.2317C369.13 40.6044 368.477 40.8037 367.809 40.8041C367.375 40.8144 366.943 40.7387 366.539 40.5813C366.135 40.4238 365.766 40.1879 365.454 39.887C365.142 39.5862 364.893 39.2266 364.721 38.829C364.55 38.4314 364.459 38.0037 364.455 37.5709ZM370.045 37.5709C370.045 37.1079 369.907 36.6552 369.649 36.2702C369.391 35.8852 369.024 35.5851 368.596 35.4079C368.167 35.2307 367.694 35.1844 367.239 35.2747C366.784 35.365 366.365 35.588 366.037 35.9155C365.709 36.2429 365.485 36.66 365.394 37.1142C365.304 37.5683 365.35 38.0391 365.528 38.4669C365.706 38.8947 366.007 39.2603 366.393 39.5176C366.779 39.7749 367.233 39.9122 367.697 39.9122C368.319 39.9092 368.914 39.6616 369.354 39.2232C369.794 38.7848 370.042 38.191 370.045 37.5709ZM368.032 31.8851H369.039L368.032 33.6689H367.25L368.032 31.8851Z" fill="#BD1818"/>
<path d="M378.094 36.902V40.6926H377.088V37.125C377.088 35.8987 376.529 35.1183 375.411 35.1183C375.143 35.1233 374.88 35.1832 374.636 35.2944C374.393 35.4055 374.176 35.5655 373.997 35.7643C373.819 35.9631 373.684 36.1964 373.6 36.4497C373.516 36.703 373.485 36.9709 373.51 37.2365V40.6926H372.504V34.4493H373.175L373.398 35.4527C373.647 35.0948 373.983 34.8051 374.373 34.6103C374.764 34.4155 375.198 34.3218 375.634 34.3378C377.199 34.2264 378.094 35.3412 378.094 36.902Z" fill="#BD1818"/>
<path d="M379.881 41.5845C380.329 41.473 380.44 41.1385 380.44 40.5811H379.77V39.3547H380.999V40.4696C381.03 40.8333 380.936 41.1964 380.733 41.5001C380.53 41.8037 380.23 42.0299 379.881 42.1419V41.5845Z" fill="#BD1818"/>
<path d="M212.97 49.5H210.511V56.6351H209.504V49.5H207.045V48.4966H212.97V49.5Z" fill="#BD1818"/>
<path d="M214.09 53.9595V50.3919H215.096V53.848C215.068 54.099 215.093 54.3531 215.17 54.5937C215.247 54.8343 215.374 55.056 215.543 55.2442C215.712 55.4325 215.919 55.5831 216.15 55.6862C216.381 55.7894 216.631 55.8427 216.885 55.8427C217.138 55.8427 217.388 55.7894 217.62 55.6862C217.851 55.5831 218.058 55.4325 218.226 55.2442C218.395 55.056 218.522 54.8343 218.599 54.5937C218.676 54.3531 218.702 54.099 218.673 53.848V50.3919H219.68V53.9595C219.68 54.6987 219.385 55.4076 218.861 55.9303C218.337 56.453 217.626 56.7466 216.885 56.7466C216.143 56.7466 215.433 56.453 214.908 55.9303C214.384 55.4076 214.09 54.6987 214.09 53.9595Z" fill="#BD1818"/>
<path d="M224.934 50.2804V51.1723H224.264C224.008 51.1666 223.753 51.2164 223.519 51.3185C223.284 51.4205 223.074 51.5722 222.904 51.7631C222.734 51.954 222.607 52.1795 222.533 52.424C222.459 52.6685 222.439 52.9261 222.475 53.1791V56.5237H221.469V50.2804H222.14L222.251 51.2838C222.468 50.9541 222.768 50.6876 223.122 50.5113C223.475 50.3351 223.869 50.2554 224.264 50.2804H224.934Z" fill="#BD1818"/>
<path d="M225.939 48.1622H227.057V49.277H225.939V48.1622ZM225.939 50.3919H226.946V56.6351H225.939V50.3919Z" fill="#BD1818"/>
<path d="M228.398 54.7399H229.405C229.405 55.5203 230.075 55.8547 230.97 55.8547C231.864 55.8547 232.423 55.5203 232.423 54.8513C232.423 54.1824 231.641 53.9595 230.858 53.848C229.74 53.625 228.622 53.402 228.622 52.0642C228.622 50.9493 229.516 50.2804 230.97 50.2804C232.423 50.2804 233.317 51.0608 233.317 52.1757H232.423C232.423 51.5067 231.864 51.1723 230.97 51.1723C230.075 51.1723 229.628 51.5067 229.628 52.0642C229.628 52.6216 230.299 52.8446 231.193 52.9561C232.311 53.179 233.541 53.2905 233.541 54.8513C233.541 55.9662 232.535 56.7466 231.082 56.7466C229.405 56.7466 228.51 55.9662 228.398 54.7399Z" fill="#BD1818"/>
<path d="M244.051 52.6216V56.6351H243.044V52.9561C243.044 51.8412 242.485 51.1723 241.591 51.1723C241.106 51.2258 240.66 51.4647 240.347 51.8388C240.035 52.213 239.879 52.6933 239.914 53.1791V56.6351H238.908V52.9561C238.908 51.8412 238.349 51.1723 237.455 51.1723C236.969 51.2258 236.523 51.4647 236.211 51.8388C235.898 52.213 235.743 52.6933 235.778 53.1791V56.6351H234.771V50.3919H235.442L235.554 51.2838C235.781 50.9648 236.084 50.7065 236.435 50.5315C236.785 50.3565 237.174 50.2703 237.566 50.2804C237.972 50.2632 238.372 50.3719 238.713 50.5916C239.053 50.8113 239.317 51.1311 239.467 51.5068C239.677 51.1301 239.985 50.8172 240.359 50.6013C240.733 50.3853 241.159 50.2745 241.591 50.2804C241.913 50.2477 242.237 50.2849 242.543 50.3894C242.849 50.4939 243.128 50.6632 243.362 50.8857C243.596 51.1083 243.778 51.3787 243.897 51.6784C244.016 51.978 244.068 52.2998 244.051 52.6216Z" fill="#BD1818"/>
<path d="M245.392 53.5135C245.37 52.8477 245.548 52.1905 245.903 51.626C246.257 51.0615 246.773 50.6155 247.384 50.3452C247.994 50.0749 248.672 49.9925 249.329 50.1087C249.987 50.2249 250.595 50.5343 251.076 50.9973C251.556 51.4603 251.887 52.0558 252.025 52.7074C252.164 53.3591 252.104 54.0372 251.854 54.6549C251.604 55.2725 251.174 55.8016 250.621 56.1743C250.067 56.547 249.414 56.7463 248.746 56.7466C248.312 56.757 247.881 56.6813 247.477 56.5238C247.072 56.3664 246.703 56.1304 246.391 55.8296C246.079 55.5288 245.83 55.1691 245.659 54.7715C245.487 54.3739 245.397 53.9463 245.392 53.5135ZM251.094 53.5135C251.094 53.0505 250.956 52.5978 250.698 52.2128C250.44 51.8278 250.074 51.5277 249.645 51.3505C249.216 51.1733 248.744 51.1269 248.288 51.2173C247.833 51.3076 247.415 51.5306 247.086 51.858C246.758 52.1855 246.534 52.6026 246.444 53.0568C246.353 53.5109 246.4 53.9817 246.577 54.4095C246.755 54.8373 247.056 55.2029 247.442 55.4602C247.828 55.7174 248.282 55.8547 248.746 55.8547C249.368 55.8518 249.964 55.6042 250.403 55.1658C250.843 54.7273 251.091 54.1335 251.094 53.5135Z" fill="#BD1818"/>
<path d="M262.161 50.3919L259.143 56.8581C258.472 58.3074 257.913 58.8649 256.683 58.8649H256.124V57.973H256.683C257.466 57.973 257.801 57.75 258.36 56.6351L258.584 56.1892L255.789 50.3919H256.907L259.143 55.0743L261.267 50.3919H262.161Z" fill="#BD1818"/>
<path d="M272.111 51.0608C272.113 51.4076 272.044 51.7511 271.909 52.0705C271.773 52.3898 271.574 52.6782 271.323 52.9182C271.071 53.1581 270.774 53.3445 270.448 53.4661C270.123 53.5876 269.776 53.6417 269.428 53.625H267.528V56.5236H266.521V48.3851H269.428C270.137 48.3938 270.814 48.6785 271.316 49.1784C271.817 49.6783 272.103 50.3539 272.111 51.0608ZM271.105 51.0608C271.107 50.8456 271.065 50.6323 270.98 50.4345C270.895 50.2367 270.769 50.0587 270.612 49.9119C270.454 49.7651 270.267 49.6526 270.063 49.5817C269.86 49.5108 269.643 49.483 269.428 49.5H267.639V52.7331H269.428C269.65 52.7377 269.87 52.6975 270.075 52.6151C270.281 52.5327 270.467 52.4097 270.624 52.2534C270.781 52.0972 270.904 51.9111 270.987 51.7061C271.069 51.5012 271.11 51.2817 271.105 51.0608Z" fill="#BD1818"/>
<path d="M273.004 54.7399H274.01C274.01 55.5203 274.681 55.8547 275.575 55.8547C276.47 55.8547 277.029 55.5203 277.029 54.8513C277.029 54.1824 276.246 53.9595 275.463 53.848C274.345 53.625 273.227 53.402 273.227 52.0642C273.227 50.9493 274.122 50.2804 275.575 50.2804C277.029 50.2804 277.923 51.0608 277.923 52.1757H277.029C277.029 51.5067 276.47 51.1723 275.575 51.1723C274.681 51.1723 274.234 51.5067 274.234 52.0642C274.234 52.6216 274.904 52.8446 275.799 52.9561C276.917 53.179 278.147 53.2905 278.147 54.8513C278.147 55.9662 277.14 56.7466 275.687 56.7466C274.01 56.7466 273.004 55.9662 273.004 54.7399Z" fill="#BD1818"/>
<path d="M279.379 48.1622H280.497V49.277H279.379V48.1622ZM279.379 50.3919H280.385V56.6351H279.379V50.3919Z" fill="#BD1818"/>
<path d="M281.837 53.5135C281.828 53.0864 281.905 52.6619 282.065 52.2655C282.225 51.8692 282.463 51.5091 282.766 51.207C283.069 50.905 283.43 50.6672 283.827 50.5079C284.225 50.3487 284.65 50.2713 285.079 50.2804C285.76 50.2572 286.43 50.4651 286.978 50.87C287.526 51.2749 287.921 51.853 288.097 52.5101H287.091C286.92 52.1182 286.639 51.7837 286.282 51.5465C285.925 51.3093 285.507 51.1794 285.079 51.1723C284.456 51.1723 283.859 51.419 283.419 51.858C282.978 52.2971 282.731 52.8926 282.731 53.5135C282.731 54.1344 282.978 54.7299 283.419 55.169C283.859 55.6081 284.456 55.8547 285.079 55.8547C285.513 55.874 285.943 55.7547 286.304 55.5141C286.666 55.2735 286.942 54.9242 287.091 54.5169H288.097C287.921 55.174 287.526 55.7521 286.978 56.157C286.43 56.562 285.76 56.7698 285.079 56.7466C284.219 56.7466 283.394 56.406 282.786 55.7997C282.178 55.1933 281.837 54.371 281.837 53.5135Z" fill="#BD1818"/>
<path d="M289.103 53.5135C289.081 52.8477 289.259 52.1905 289.614 51.626C289.968 51.0615 290.484 50.6155 291.094 50.3452C291.705 50.0749 292.383 49.9925 293.04 50.1087C293.698 50.2249 294.306 50.5343 294.786 50.9973C295.267 51.4603 295.597 52.0558 295.736 52.7074C295.875 53.3591 295.815 54.0372 295.565 54.6549C295.315 55.2725 294.885 55.8016 294.332 56.1743C293.778 56.547 293.125 56.7463 292.457 56.7466C292.021 56.768 291.584 56.6999 291.175 56.5464C290.766 56.393 290.393 56.1575 290.078 55.8545C289.764 55.5514 289.515 55.1874 289.348 54.7847C289.18 54.3821 289.097 53.9494 289.103 53.5135ZM294.693 53.5135C294.693 53.0505 294.556 52.5978 294.298 52.2128C294.04 51.8278 293.673 51.5277 293.244 51.3505C292.815 51.1733 292.343 51.1269 291.888 51.2173C291.432 51.3076 291.014 51.5306 290.685 51.858C290.357 52.1855 290.134 52.6026 290.043 53.0568C289.952 53.5109 289.999 53.9817 290.177 54.4095C290.354 54.8373 290.655 55.2029 291.041 55.4602C291.427 55.7174 291.881 55.8547 292.345 55.8547C292.967 55.8518 293.563 55.6042 294.002 55.1658C294.442 54.7273 294.69 54.1335 294.693 53.5135Z" fill="#BD1818"/>
<path d="M297.152 48.1622H298.158V56.6351H297.152V48.1622Z" fill="#BD1818"/>
<path d="M299.725 53.5135C299.702 52.8477 299.88 52.1905 300.235 51.626C300.589 51.0615 301.105 50.6155 301.716 50.3452C302.326 50.0749 303.004 49.9925 303.661 50.1087C304.319 50.2249 304.927 50.5343 305.408 50.9973C305.888 51.4603 306.219 52.0558 306.357 52.7074C306.496 53.3591 306.436 54.0372 306.186 54.6549C305.936 55.2725 305.507 55.8016 304.953 56.1743C304.399 56.547 303.746 56.7463 303.078 56.7466C302.642 56.768 302.205 56.6999 301.796 56.5464C301.387 56.393 301.014 56.1575 300.699 55.8545C300.385 55.5514 300.136 55.1874 299.969 54.7847C299.801 54.3821 299.718 53.9494 299.725 53.5135ZM305.314 53.5135C305.314 53.0505 305.177 52.5978 304.919 52.2128C304.661 51.8278 304.294 51.5277 303.865 51.3505C303.436 51.1733 302.964 51.1269 302.509 51.2173C302.053 51.3076 301.635 51.5306 301.307 51.858C300.978 52.1855 300.755 52.6026 300.664 53.0568C300.573 53.5109 300.62 53.9817 300.798 54.4095C300.975 54.8373 301.276 55.2029 301.662 55.4602C302.048 55.7174 302.502 55.8547 302.967 55.8547C303.588 55.8518 304.184 55.6042 304.623 55.1658C305.063 54.7273 305.311 54.1335 305.314 53.5135Z" fill="#BD1818"/>
<path d="M313.587 50.3919V55.7432C313.64 56.1613 313.6 56.5859 313.47 56.987C313.341 57.3881 313.124 57.7558 312.836 58.0643C312.548 58.3727 312.196 58.6143 311.804 58.7719C311.412 58.9295 310.99 58.9993 310.568 58.9764C309.898 59.0222 309.232 58.8367 308.682 58.451C308.133 58.0653 307.733 57.5029 307.55 56.8581H308.556C308.775 57.3024 309.139 57.659 309.588 57.8689C310.038 58.0788 310.546 58.1294 311.028 58.0124C311.51 57.8954 311.938 57.6178 312.241 57.2255C312.543 56.8332 312.703 56.3496 312.692 55.8547V55.5203C312.398 55.8093 312.048 56.037 311.664 56.1901C311.28 56.3432 310.87 56.4187 310.456 56.4122C309.626 56.4122 308.83 56.0833 308.243 55.4979C307.656 54.9124 307.326 54.1185 307.326 53.2905C307.326 52.4626 307.656 51.6686 308.243 51.0832C308.83 50.4978 309.626 50.1689 310.456 50.1689C310.923 50.1652 311.385 50.2631 311.81 50.4556C312.234 50.6482 312.612 50.9308 312.916 51.2838L313.028 50.2804L313.587 50.3919ZM312.692 53.2905C312.692 52.8716 312.568 52.4621 312.334 52.1137C312.101 51.7654 311.769 51.4939 311.381 51.3335C310.993 51.1732 310.566 51.1313 310.154 51.213C309.742 51.2947 309.363 51.4965 309.066 51.7927C308.769 52.089 308.567 52.4664 308.485 52.8773C308.403 53.2882 308.445 53.7141 308.606 54.1012C308.767 54.4882 309.039 54.819 309.388 55.0518C309.737 55.2846 310.148 55.4088 310.568 55.4088C310.85 55.4181 311.13 55.3697 311.392 55.2665C311.654 55.1634 311.892 55.0077 312.091 54.8091C312.29 54.6105 312.446 54.3733 312.55 54.1121C312.653 53.8508 312.702 53.5712 312.692 53.2905Z" fill="#BD1818"/>
<path d="M315.6 50.3919H316.606V56.6351H315.6V50.3919ZM316.27 47.8277H317.277L316.494 49.6115H315.711L316.27 47.8277Z" fill="#BD1818"/>
<path d="M324.654 50.3919V56.6351H323.871L323.759 55.7432C323.324 56.2388 322.749 56.5907 322.109 56.7522C321.468 56.9136 320.794 56.877 320.175 56.6471C319.556 56.4172 319.022 56.0049 318.644 55.4651C318.266 54.9253 318.061 54.2835 318.058 53.625C318.039 53.1953 318.11 52.7665 318.266 52.3656C318.422 51.9648 318.66 51.6007 318.965 51.2966C319.27 50.9925 319.635 50.7551 320.037 50.5993C320.439 50.4435 320.869 50.3729 321.3 50.3919C321.766 50.3882 322.228 50.486 322.653 50.6786C323.078 50.8711 323.455 51.1537 323.759 51.5067L323.871 50.5034H324.654V50.3919ZM323.648 53.5135C323.648 53.0504 323.51 52.5978 323.252 52.2128C322.994 51.8278 322.627 51.5277 322.198 51.3505C321.769 51.1733 321.297 51.1269 320.842 51.2173C320.386 51.3076 319.968 51.5306 319.64 51.858C319.311 52.1854 319.088 52.6026 318.997 53.0567C318.907 53.5109 318.953 53.9816 319.131 54.4094C319.309 54.8372 319.609 55.2029 319.995 55.4601C320.382 55.7174 320.835 55.8547 321.3 55.8547C321.61 55.8624 321.919 55.807 322.207 55.6921C322.496 55.5771 322.757 55.405 322.977 55.186C323.197 54.9671 323.369 54.7059 323.484 54.4184C323.6 54.1309 323.655 53.823 323.648 53.5135Z" fill="#BD1818"/>
<path d="M72.2188 48.2736V46.0439H72.8895V48.2736C72.8895 48.9426 73.2249 49.3885 73.8957 49.3885C74.0304 49.3985 74.1657 49.3794 74.2923 49.3325C74.4189 49.2856 74.5339 49.212 74.6294 49.1168C74.7249 49.0216 74.7987 48.9069 74.8457 48.7806C74.8927 48.6544 74.9119 48.5195 74.9019 48.3851V46.1554H75.5726V48.2736C75.5726 48.7172 75.3959 49.1425 75.0815 49.4561C74.767 49.7698 74.3404 49.9459 73.8957 49.9459C73.4509 49.9459 73.0244 49.7698 72.7099 49.4561C72.3954 49.1425 72.2188 48.7172 72.2188 48.2736Z" fill="#BD1818"/>
<path d="M77.9219 46.1554H78.5926L80.605 48.8311V46.1554H81.2757V49.9459H80.7168L78.5926 47.2703V49.9459H77.9219V46.1554Z" fill="#BD1818"/>
<path d="M83.8477 46.1554H84.5184V49.9459H83.8477V46.1554Z" fill="#BD1818"/>
<path d="M86.7539 46.1554H87.5365L88.6544 49.054L89.7724 46.1554H90.555L88.9898 49.9459H88.4308L86.7539 46.1554Z" fill="#BD1818"/>
<path d="M92.6777 46.1554H95.4726V46.7128H93.3485V47.7162H95.249V48.2736H93.3485V49.3885H95.5844V49.9459H92.6777V46.1554Z" fill="#BD1818"/>
<path d="M97.9336 46.1554H99.6105C100.011 46.1288 100.408 46.2476 100.728 46.4899C100.838 46.5881 100.924 46.7087 100.982 46.8434C101.04 46.9781 101.068 47.1238 101.064 47.2703C101.092 47.5361 101.014 47.8024 100.847 48.0111C100.679 48.2199 100.436 48.3543 100.17 48.3851L101.176 49.8345H100.393L99.4987 48.4966H98.6044V49.8345H97.9336V46.1554ZM99.6105 48.0507C100.058 48.0507 100.393 47.8277 100.393 47.3818C100.393 46.9358 100.058 46.7128 99.6105 46.7128H98.6044V47.9392H99.6105V48.0507Z" fill="#BD1818"/>
<path d="M103.188 49.3885L103.635 48.9426C103.799 49.0953 103.993 49.2135 104.204 49.2901C104.415 49.3667 104.64 49.4002 104.864 49.3885C105.312 49.3885 105.535 49.1655 105.535 48.9426C105.535 48.7196 105.423 48.4966 104.641 48.3851C103.858 48.2736 103.411 47.9392 103.411 47.2703C103.411 46.6013 103.97 46.1554 104.753 46.1554C105.235 46.1658 105.702 46.3213 106.094 46.6013L105.759 47.1588C105.472 46.9197 105.123 46.7653 104.753 46.7128C104.305 46.7128 104.082 46.9358 104.082 47.1588C104.082 47.4932 104.305 47.6047 104.976 47.7162C105.647 47.8277 106.206 48.1622 106.206 48.8311C106.206 49.5 105.647 49.9459 104.864 49.9459C104.562 49.9716 104.257 49.9353 103.968 49.8395C103.68 49.7437 103.414 49.5902 103.188 49.3885Z" fill="#BD1818"/>
<path d="M108.441 46.1554H109.112V49.9459H108.441V46.1554Z" fill="#BD1818"/>
<path d="M111.684 46.1554H113.137C113.397 46.1333 113.659 46.1663 113.906 46.2522C114.153 46.3381 114.378 46.475 114.568 46.654C114.758 46.8329 114.908 47.0498 115.008 47.2905C115.109 47.5311 115.157 47.7902 115.149 48.0507C115.157 48.3111 115.109 48.5702 115.008 48.8109C114.908 49.0516 114.758 49.2685 114.568 49.4474C114.378 49.6263 114.153 49.7632 113.906 49.8491C113.659 49.935 113.397 49.968 113.137 49.9459H111.684V46.1554ZM112.354 46.8243V49.3885H113.137C113.315 49.3947 113.492 49.3644 113.658 49.2994C113.823 49.2343 113.974 49.136 114.099 49.0105C114.225 48.885 114.324 48.735 114.389 48.5699C114.454 48.4048 114.485 48.228 114.478 48.0507C114.485 47.8733 114.454 47.6966 114.389 47.5314C114.324 47.3663 114.225 47.2163 114.099 47.0908C113.974 46.9653 113.823 46.867 113.658 46.802C113.492 46.7369 113.315 46.7066 113.137 46.7128H112.354V46.8243Z" fill="#BD1818"/>
<path d="M118.616 46.1554H119.287L120.964 49.9459H120.293L119.957 49.054H118.169L117.722 49.9459H117.051L118.616 46.1554ZM119.622 48.4966L118.951 46.9358L118.281 48.4966H119.622Z" fill="#BD1818"/>
<path d="M123.088 46.1554H124.541C124.802 46.1333 125.064 46.1663 125.31 46.2522C125.557 46.3381 125.783 46.475 125.973 46.654C126.163 46.8329 126.313 47.0498 126.413 47.2905C126.513 47.5311 126.561 47.7902 126.554 48.0507C126.561 48.3111 126.513 48.5702 126.413 48.8109C126.313 49.0516 126.163 49.2685 125.973 49.4474C125.783 49.6263 125.557 49.7632 125.31 49.8491C125.064 49.935 124.802 49.968 124.541 49.9459H123.088V46.1554ZM123.759 46.8243V49.3885H124.541C124.719 49.3947 124.896 49.3644 125.062 49.2994C125.228 49.2343 125.378 49.136 125.504 49.0105C125.63 48.885 125.728 48.735 125.793 48.5699C125.859 48.4048 125.889 48.228 125.883 48.0507C125.889 47.8733 125.859 47.6966 125.793 47.5314C125.728 47.3663 125.63 47.2163 125.504 47.0908C125.378 46.9653 125.228 46.867 125.062 46.802C124.896 46.7369 124.719 46.7066 124.541 46.7128H123.759V46.8243Z" fill="#BD1818"/>
<path d="M132.031 46.1554H133.485C133.745 46.1333 134.007 46.1663 134.254 46.2522C134.5 46.3381 134.726 46.475 134.916 46.654C135.106 46.8329 135.256 47.0498 135.356 47.2905C135.456 47.5311 135.504 47.7902 135.497 48.0507C135.504 48.3111 135.456 48.5702 135.356 48.8109C135.256 49.0516 135.106 49.2685 134.916 49.4474C134.726 49.6263 134.5 49.7632 134.254 49.8491C134.007 49.935 133.745 49.968 133.485 49.9459H132.031V46.1554ZM132.814 46.8243V49.3885H133.596C133.774 49.3947 133.951 49.3644 134.117 49.2994C134.283 49.2343 134.433 49.136 134.559 49.0105C134.685 48.885 134.783 48.735 134.849 48.5699C134.914 48.4048 134.944 48.228 134.938 48.0507C134.944 47.8733 134.914 47.6966 134.849 47.5314C134.783 47.3663 134.685 47.2163 134.559 47.0908C134.433 46.9653 134.283 46.867 134.117 46.802C133.951 46.7369 133.774 46.7066 133.596 46.7128H132.814V46.8243Z" fill="#BD1818"/>
<path d="M137.844 46.1554H140.639V46.7128H138.515V47.7162H140.415V48.2736H138.515V49.3885H140.75V49.9459H137.844V46.1554Z" fill="#BD1818"/>
<path d="M71.9961 56.6351L72.4433 56.1892C72.6078 56.3419 72.8015 56.4601 73.0127 56.5367C73.224 56.6133 73.4485 56.6468 73.673 56.6351C74.1202 56.6351 74.3438 56.4122 74.3438 56.1892C74.3438 55.9662 74.232 55.7433 73.4494 55.6318C72.6669 55.5203 72.2197 55.1858 72.2197 54.5169C72.2197 53.848 72.7787 53.402 73.5612 53.402C74.0433 53.4125 74.5109 53.5679 74.9028 53.848L74.5674 54.2939C74.23 54.0691 73.8492 53.9172 73.4494 53.848C73.0023 53.848 72.7787 54.071 72.7787 54.2939C72.7787 54.6284 73.0023 54.7399 73.673 54.8514C74.3438 54.9629 74.9028 55.2973 74.9028 55.9662C74.9028 56.6351 74.3438 57.0811 73.5612 57.0811C73.2836 57.1203 73.0008 57.1008 72.7311 57.024C72.4615 56.9472 72.2111 56.8147 71.9961 56.6351Z" fill="#BD1818"/>
<path d="M78.591 53.402H79.2618L80.9387 57.1926H80.1561L79.8208 56.3007H78.032L77.5848 57.1926H76.9141L78.591 53.402ZM79.5972 55.7433L78.9264 54.1824L78.2556 55.7433H79.5972Z" fill="#BD1818"/>
<path d="M83.0645 53.402H83.7352L85.7476 56.0777V53.402H86.4183V57.1926H85.8593L83.7352 54.5169V57.1926H83.0645V53.402Z" fill="#BD1818"/>
<path d="M92.1201 53.402H92.7909L93.9088 55.1858L95.0268 53.402H95.6975V57.1926H95.0268V54.4054L93.797 56.1892L92.5673 54.4054V57.1926H91.8965V53.402H92.1201Z" fill="#BD1818"/>
<path d="M99.7219 53.402H100.393L102.07 57.1926H101.399L101.063 56.3007H99.1629L98.7157 57.1926H98.0449L99.7219 53.402ZM100.728 55.7433L100.057 54.1824L99.3865 55.7433H100.728Z" fill="#BD1818"/>
<path d="M104.305 53.402H105.982C106.383 53.3754 106.78 53.4942 107.1 53.7365C107.209 53.8347 107.295 53.9553 107.353 54.09C107.411 54.2247 107.439 54.3704 107.435 54.5169C107.463 54.7827 107.385 55.049 107.218 55.2578C107.05 55.4665 106.807 55.6009 106.541 55.6317L107.547 57.0811H106.764L105.87 55.7432H104.975V57.1926H104.305V53.402ZM105.87 55.2973C106.317 55.2973 106.652 55.0743 106.652 54.6284C106.652 54.1824 106.317 53.9595 105.87 53.9595H104.864V55.1858H105.87V55.2973Z" fill="#BD1818"/>
<path d="M110.677 54.071H109.447V53.402H112.578V54.071H111.348V57.1926H110.677V54.071Z" fill="#BD1818"/>
<path d="M114.814 53.402H115.485V57.1926H114.814V53.402ZM115.485 52.2872L116.044 52.5101L115.373 53.0676H114.814L115.485 52.2872Z" fill="#BD1818"/>
<path d="M118.057 53.402H118.727L120.74 56.0777V53.402H121.411V57.1926H120.852L118.727 54.5169V57.1926H118.057V53.402Z" fill="#BD1818"/>
<path d="M127.111 53.402H128.565C128.825 53.3799 129.087 53.4129 129.334 53.4988C129.58 53.5848 129.806 53.7217 129.996 53.9006C130.186 54.0795 130.336 54.2964 130.436 54.5371C130.536 54.7778 130.584 55.0368 130.577 55.2973C130.584 55.5577 130.536 55.8168 130.436 56.0575C130.336 56.2982 130.186 56.5151 129.996 56.694C129.806 56.8729 129.58 57.0098 129.334 57.0957C129.087 57.1816 128.825 57.2146 128.565 57.1926H127.111V53.402ZM127.782 53.9594V56.5236H128.565C128.743 56.5299 128.92 56.4995 129.085 56.4345C129.251 56.3695 129.401 56.2711 129.527 56.1456C129.653 56.0202 129.752 55.8702 129.817 55.705C129.882 55.5399 129.912 55.3632 129.906 55.1858C129.912 55.0084 129.882 54.8317 129.817 54.6665C129.752 54.5014 129.653 54.3514 129.527 54.2259C129.401 54.1005 129.251 54.0021 129.085 53.9371C128.92 53.8721 128.743 53.8417 128.565 53.848H127.782V53.9594Z" fill="#BD1818"/>
<path d="M132.926 53.402H135.721V53.9595H133.597V54.9629H135.497V55.5203H133.597V56.5237H135.832V57.1926H132.926V53.402Z" fill="#BD1818"/>
<path d="M141.309 53.402H142.874C143.051 53.382 143.23 53.3983 143.401 53.45C143.572 53.5016 143.73 53.5875 143.866 53.7024C144.002 53.8172 144.113 53.9586 144.192 54.1179C144.272 54.2771 144.318 54.4508 144.327 54.6284C144.327 55.5203 143.656 55.9662 142.762 55.9662H141.979V57.1926H141.309V53.402ZM142.762 55.4088C143.321 55.4088 143.545 55.0743 143.545 54.7399C143.545 54.2939 143.209 54.0709 142.762 54.0709H141.979V55.4088H142.762Z" fill="#BD1818"/>
<path d="M146.34 55.2973C146.34 54.7651 146.552 54.2546 146.929 53.8783C147.307 53.502 147.818 53.2905 148.352 53.2905C148.886 53.2905 149.398 53.502 149.775 53.8783C150.152 54.2546 150.364 54.7651 150.364 55.2973C150.376 55.5638 150.331 55.8296 150.234 56.0781C150.137 56.3265 149.989 56.5522 149.8 56.7408C149.611 56.9294 149.384 57.0768 149.135 57.1737C148.886 57.2707 148.619 57.3151 148.352 57.304C147.824 57.2873 147.322 57.0705 146.948 56.6977C146.574 56.325 146.357 55.8242 146.34 55.2973ZM149.582 55.2973C149.582 54.9425 149.441 54.6022 149.189 54.3513C148.937 54.1004 148.596 53.9594 148.24 53.9594C147.885 53.9594 147.543 54.1004 147.292 54.3513C147.04 54.6022 146.899 54.9425 146.899 55.2973C146.893 55.4746 146.923 55.6514 146.988 55.8165C147.053 55.9817 147.152 56.1316 147.278 56.2571C147.404 56.3826 147.554 56.4809 147.72 56.546C147.885 56.611 148.063 56.6414 148.24 56.6351C148.594 56.6294 148.932 56.4866 149.183 56.2369C149.433 55.9873 149.576 55.6503 149.582 55.2973Z" fill="#BD1818"/>
<path d="M152.602 53.402H154.278C154.679 53.3754 155.076 53.4942 155.396 53.7365C155.506 53.8347 155.592 53.9553 155.65 54.09C155.708 54.2247 155.736 54.3704 155.732 54.5169C155.76 54.7827 155.682 55.049 155.515 55.2578C155.347 55.4665 155.104 55.6009 154.837 55.6317L155.844 57.0811H155.061L154.167 55.7432H153.272V57.1926H152.602V53.402ZM154.278 55.2973C154.726 55.2973 155.061 55.0743 155.061 54.6284C155.061 54.1824 154.726 53.9595 154.278 53.9595H153.272V55.1858H154.278V55.2973Z" fill="#BD1818"/>
<path d="M158.191 53.402H159.868C160.269 53.3754 160.666 53.4942 160.986 53.7365C161.095 53.8347 161.182 53.9553 161.24 54.09C161.298 54.2247 161.326 54.3704 161.322 54.5169C161.35 54.7827 161.272 55.049 161.104 55.2578C160.937 55.4665 160.694 55.6009 160.427 55.6317L161.433 57.0811H160.651L159.757 55.7432H158.862V57.1926H158.191V53.402ZM159.757 55.2973C160.204 55.2973 160.539 55.0743 160.539 54.6284C160.539 54.1824 160.204 53.9595 159.757 53.9595H158.75V55.1858H159.757V55.2973Z" fill="#BD1818"/>
<path d="M163.67 53.402H166.465V53.9595H164.341V54.9629H166.241V55.5203H164.341V56.5237H166.577V57.1926H163.67V53.402Z" fill="#BD1818"/>
<path d="M168.588 56.6351L169.035 56.1892C169.2 56.3419 169.393 56.4601 169.605 56.5367C169.816 56.6133 170.04 56.6468 170.265 56.6351C170.712 56.6351 170.936 56.4122 170.936 56.1892C170.936 55.9662 170.824 55.7433 170.041 55.6318C169.259 55.5203 168.811 55.1858 168.811 54.5169C168.811 53.848 169.37 53.402 170.153 53.402C170.635 53.4125 171.103 53.5679 171.495 53.848L171.159 54.4054C170.872 54.1664 170.523 54.0119 170.153 53.9595C169.706 53.9595 169.482 54.1824 169.482 54.4054C169.482 54.7399 169.706 54.8514 170.377 54.9629C171.047 55.0743 171.606 55.4088 171.606 56.0777C171.606 56.7466 171.047 57.1926 170.265 57.1926C169.66 57.1959 169.07 56.9999 168.588 56.6351Z" fill="#BD1818"/>
<path d="M75.1271 16.6115V30.5473C75.137 31.3023 75.2498 32.0524 75.4624 32.777C75.6827 33.532 76.0224 34.247 76.4686 34.8953C76.9237 35.5573 77.5389 36.0941 78.2573 36.4561C79.1231 36.8956 80.0808 37.1248 81.0522 37.1248C82.0237 37.1248 82.9814 36.8956 83.8471 36.4561C84.5385 36.0554 85.1458 35.5254 85.6359 34.8953C86.0821 34.247 86.4217 33.532 86.642 32.777C86.8547 32.0524 86.9675 31.3023 86.9774 30.5473V16.6115H90.1077V30.9932C90.1224 32.2511 89.8947 33.5001 89.4369 34.6723C88.9767 35.7411 88.3336 36.7219 87.5364 37.5709C86.7043 38.3902 85.7159 39.0347 84.6297 39.4662C83.4933 39.9228 82.2773 40.1502 81.0522 40.1351C79.8281 40.1397 78.6141 39.9127 77.4748 39.4662C76.403 39.0072 75.4195 38.3659 74.5681 37.5709C73.7466 36.7412 73.1003 35.7555 72.6675 34.6723C72.2098 33.5001 71.982 32.2511 71.9968 30.9932V16.6115H75.1271Z" fill="#BD1818"/>
<path d="M113.696 33.223C113.759 32.1806 113.505 31.1436 112.966 30.2481C112.427 29.3527 111.63 28.6408 110.677 28.2061C109.799 27.739 108.858 27.401 107.882 27.2027C106.962 26.9899 106.064 26.6913 105.199 26.3108C104.421 26.0374 103.701 25.6215 103.075 25.0845C102.795 24.8119 102.579 24.4802 102.443 24.1137C102.308 23.7472 102.257 23.3551 102.293 22.9662C102.324 22.5872 102.399 22.2131 102.516 21.8514C102.654 21.4348 102.884 21.0541 103.187 20.7365C103.547 20.3502 104.014 20.0786 104.529 19.9561C106.029 19.4412 107.67 19.5211 109.112 20.1791C109.792 20.5027 110.371 21.0035 110.789 21.6284L113.472 19.2872C112.676 18.3482 111.629 17.6526 110.454 17.2804C109.364 16.9682 108.234 16.8179 107.1 16.8345H106.765C105.538 16.7978 104.317 17.026 103.187 17.5034C102.275 17.8635 101.441 18.3932 100.728 19.0642C100.107 19.6005 99.644 20.2938 99.386 21.071C99.0888 21.7377 98.9364 22.4596 98.9388 23.1892C98.8957 24.1389 99.0478 25.0875 99.386 25.9764L99.7214 26.6453C100.224 27.5017 100.961 28.1977 101.846 28.652C102.713 29.1932 103.654 29.6063 104.64 29.8784C105.647 30.2128 106.541 30.4358 107.324 30.7703C108.076 31.0506 108.79 31.4253 109.448 31.8851C109.716 32.119 109.927 32.412 110.063 32.7409C110.198 33.0698 110.256 33.4256 110.23 33.7804C110.255 34.3352 110.098 34.883 109.783 35.3412C109.531 35.816 109.141 36.2043 108.665 36.4561C108.24 36.7891 107.742 37.0182 107.212 37.125C106.698 37.2462 106.174 37.3208 105.647 37.348C104.726 37.3241 103.817 37.1353 102.963 36.7906C102.092 36.4225 101.351 35.8009 100.839 35.0068L98.1562 37.2365C99.0151 38.284 100.132 39.0908 101.398 39.5777C102.398 39.9706 103.455 40.1966 104.529 40.2466H105.647C106.707 40.2707 107.765 40.12 108.777 39.8007C109.243 39.6629 109.692 39.476 110.118 39.2433C110.544 39.0087 110.955 38.748 111.348 38.4628C112.087 37.8732 112.664 37.106 113.025 36.2331C113.471 35.2922 113.7 34.2637 113.696 33.223Z" fill="#BD1818"/>
<path d="M122.416 16.6115H127.111L134.49 34.2263H134.602L141.98 16.6115H146.676V40.1351H143.545V20.7365H143.434L135.496 40.1351H133.596L125.658 20.7365H125.546V40.1351H122.416V16.6115Z" fill="#BD1818"/>
<path d="M155.844 16.6115H164.005C165.257 16.5984 166.502 16.7866 167.694 17.1689C168.555 17.501 169.322 18.0366 169.93 18.7297C170.452 19.3467 170.834 20.0695 171.048 20.848C171.495 22.301 171.495 23.8543 171.048 25.3074C170.834 26.0859 170.452 26.8086 169.93 27.4257C169.3 28.0932 168.539 28.6245 167.694 28.9865C166.516 29.4229 165.26 29.6126 164.005 29.5439H158.974V40.0236H155.844V16.6115ZM159.086 26.8682H163.222C163.821 26.8867 164.42 26.8494 165.011 26.7567C165.568 26.6898 166.103 26.4993 166.576 26.1993C167.052 25.9475 167.442 25.5592 167.694 25.0845C168.038 24.5146 168.194 23.852 168.141 23.1892C168.194 22.5264 168.038 21.8637 167.694 21.2939C167.41 20.8433 167.028 20.4623 166.576 20.179C166.081 19.9268 165.555 19.7395 165.011 19.6216C164.42 19.529 163.821 19.4917 163.222 19.5101H159.086V26.8682Z" fill="#BD1818"/>
<path d="M0 14.8277V14.0473C0 14.0177 0.0117786 13.9894 0.0327444 13.9685C0.0537102 13.9476 0.0821459 13.9358 0.111796 13.9358L4.91901 12.9324C4.94866 12.9324 4.9771 12.9442 4.99807 12.9651C5.01903 12.986 5.03081 13.0144 5.03081 13.0439V13.8243C5.03081 13.839 5.02792 13.8535 5.0223 13.867C5.01668 13.8805 5.00845 13.8928 4.99807 13.9032C4.98768 13.9135 4.97536 13.9217 4.9618 13.9273C4.94823 13.9329 4.9337 13.9358 4.91901 13.9358L1.78873 14.4932L4.91901 14.9392C4.94866 14.9392 4.9771 14.9509 4.99807 14.9718C5.01903 14.9928 5.03081 15.0211 5.03081 15.0507V15.8311C5.03081 15.8607 5.01903 15.889 4.99807 15.9099C4.9771 15.9308 4.94866 15.9426 4.91901 15.9426L0 14.8277Z" fill="#BD1818"/>
<path d="M0.111796 19.9561H4.91901C4.93369 19.9561 4.94823 19.959 4.9618 19.9646C4.97536 19.9702 4.98768 19.9784 4.99807 19.9887C5.00845 19.9991 5.01668 20.0114 5.0223 20.0249C5.02792 20.0384 5.03081 20.0529 5.03081 20.0676V22.1858C5.03081 22.2154 5.01903 22.2437 4.99807 22.2646C4.9771 22.2856 4.94866 22.2973 4.91901 22.2973H4.13644C4.10679 22.2973 4.07836 22.2856 4.05739 22.2646C4.03643 22.2437 4.02465 22.2154 4.02465 22.1858V20.9595H3.01849V22.0743C3.01849 22.1039 3.00671 22.1323 2.98574 22.1532C2.96478 22.1741 2.93634 22.1858 2.90669 22.1858H2.12412C2.09447 22.1858 2.06603 22.1741 2.04507 22.1532C2.0241 22.1323 2.01232 22.1039 2.01232 22.0743V20.9595H0.894366V22.1858C0.894366 22.2154 0.882588 22.2437 0.861622 22.2646C0.840656 22.2856 0.812221 22.2973 0.78257 22.2973H0.111796C0.0821458 22.2973 0.0537102 22.2856 0.0327444 22.2646C0.0117786 22.2437 0 22.2154 0 22.1858L0.111796 19.9561C1.58259e-07 20.0676 1.58259e-07 19.9561 0.111796 19.9561Z" fill="#BD1818"/>
<path d="M0 29.3209V28.4291C0 28.3995 0.0117786 28.3711 0.0327444 28.3502C0.0537102 28.3293 0.0821458 28.3176 0.111796 28.3176L1.90053 27.7601V27.5372H0.111796C0.0821458 27.5372 0.0537102 27.5254 0.0327444 27.5045C0.0117786 27.4836 0 27.4552 0 27.4257V26.6453C0 26.6157 0.0117786 26.5873 0.0327444 26.5664C0.0537102 26.5455 0.0821458 26.5338 0.111796 26.5338H4.91901C4.94866 26.5338 4.9771 26.5455 4.99807 26.5664C5.01903 26.5873 5.03081 26.6157 5.03081 26.6453V27.8716C5.03081 28.875 4.47183 29.3209 3.46567 29.3209C3.23063 29.3352 2.99567 29.2919 2.7813 29.1947C2.56693 29.0975 2.37969 28.9495 2.23592 28.7635L0 29.3209ZM2.79489 27.6486C2.79489 27.8716 2.79489 27.9831 2.90669 28.0946C3.01849 28.2061 3.13028 28.2061 3.46567 28.2061C3.65933 28.2352 3.8571 28.1957 4.02465 28.0946C4.02465 27.9831 4.13644 27.8716 4.13644 27.6486V27.4257H2.90669V27.6486H2.79489Z" fill="#BD1818"/>
<path d="M0.111796 33.446H4.91901C4.9337 33.446 4.94823 33.4488 4.9618 33.4544C4.97536 33.46 4.98768 33.4683 4.99807 33.4786C5.00845 33.489 5.01668 33.5012 5.0223 33.5148C5.02792 33.5283 5.03081 33.5428 5.03081 33.5574V34.3378C5.03081 34.3525 5.02792 34.367 5.0223 34.3805C5.01668 34.394 5.00845 34.4063 4.99807 34.4167C4.98768 34.427 4.97536 34.4352 4.9618 34.4408C4.94823 34.4464 4.9337 34.4493 4.91901 34.4493H0.111796C0.0971147 34.4493 0.0825773 34.4464 0.0690136 34.4408C0.0554499 34.4352 0.0431256 34.427 0.0327444 34.4167C0.0223632 34.4063 0.0141281 34.394 0.00850988 34.3805C0.00289162 34.367 0 34.3525 0 34.3378L0.111796 33.446Z" fill="#BD1818"/>
<path d="M0 40.3581V39.5777C0 39.5481 0.0117786 39.5198 0.0327444 39.4989C0.0537102 39.478 0.0821458 39.4662 0.111796 39.4662L4.02465 39.3547V38.5743C4.02465 38.5447 4.03643 38.5164 4.05739 38.4955C4.07836 38.4746 4.10679 38.4628 4.13644 38.4628H4.80722C4.83687 38.4628 4.8653 38.4746 4.88627 38.4955C4.90724 38.5164 4.91901 38.5447 4.91901 38.5743L5.03081 41.1385C5.03081 41.1681 5.01903 41.1964 4.99807 41.2173C4.9771 41.2382 4.94866 41.25 4.91901 41.25H4.24824C4.21859 41.25 4.19015 41.2382 4.16919 41.2173C4.14822 41.1964 4.13644 41.1681 4.13644 41.1385V40.3581H0Z" fill="#BD1818"/>
<path d="M1.11719 45.821L5.92441 44.7061H6.0362L6.37159 45.4865V45.598L2.45874 48.6081H2.34694L2.01155 47.8277V47.7162L2.79412 47.1588L2.34694 46.2669L1.45257 46.4899H1.34078L1.11719 45.821ZM3.12951 46.2669L3.4649 46.8243L4.91824 45.821L3.12951 46.2669Z" fill="#BD1818"/>
<path d="M8.49644 53.402C8.24572 53.7103 7.88522 53.91 7.49028 53.9595C7.3007 53.9589 7.11331 53.919 6.94007 53.8422C6.76682 53.7655 6.61154 53.6535 6.48412 53.5135C6.32234 53.4135 6.18883 53.274 6.09625 53.1082C6.00367 52.9423 5.95508 52.7557 5.95508 52.5659C5.95508 52.3761 6.00367 52.1894 6.09625 52.0236C6.18883 51.8577 6.32234 51.7182 6.48412 51.6182H6.59591L7.26669 52.0642V52.1757C7.15489 52.3986 7.04309 52.5101 7.04309 52.6216C7.03354 52.6824 7.03852 52.7445 7.05761 52.8029C7.07671 52.8614 7.10938 52.9145 7.15297 52.958C7.19657 53.0015 7.24984 53.034 7.30846 53.0531C7.36708 53.0721 7.42937 53.0771 7.49028 53.0676C7.60207 53.0676 7.71387 52.9561 7.82566 52.8446C7.94786 52.7336 8.02628 52.5828 8.04678 52.4192C8.06728 52.2557 8.02851 52.0902 7.93746 51.9527L7.82566 51.6182C7.68455 51.3433 7.64497 51.0275 7.71387 50.7264C7.77398 50.4247 7.93095 50.1507 8.16105 49.9459C8.26662 49.7971 8.40444 49.6738 8.56428 49.5853C8.72413 49.4967 8.9019 49.4452 9.08443 49.4345C9.26697 49.4238 9.44957 49.4542 9.61873 49.5234C9.78788 49.5926 9.93923 49.699 10.0616 49.8345C10.2073 49.9294 10.3288 50.0569 10.4164 50.2069C10.504 50.3569 10.5553 50.5252 10.5661 50.6984C10.577 50.8716 10.5471 51.045 10.4789 51.2047C10.4108 51.3644 10.3061 51.506 10.1734 51.6182H10.0616L9.39081 51.1723V51.0608C9.48592 50.9806 9.54937 50.8693 9.56985 50.7468C9.59032 50.6243 9.56649 50.4985 9.5026 50.3919C9.27901 50.1689 9.16721 50.2804 8.83183 50.5034C8.49644 50.7264 8.60824 50.8378 8.60824 50.9493C8.60358 51.1054 8.64227 51.2597 8.72003 51.3953L8.83183 51.7297C8.97294 52.0047 9.01252 52.3205 8.94362 52.6216C8.94362 52.8446 8.72003 53.0676 8.49644 53.402Z" fill="#BD1818"/>
<path d="M15.4277 60.3142L17.8872 56.1892H17.999L18.6698 56.6351V56.7466L16.6575 60.2027V60.3142L17.7754 60.9831V61.0946L17.4401 61.7635H17.3283L15.4277 60.3142Z" fill="#BD1818"/>
<path d="M21.3516 63.5473L23.3639 59.1993C23.3639 59.1993 23.3639 59.0878 23.4757 59.1993L24.2583 59.5338C24.2583 59.5338 24.37 59.5338 24.2583 59.6453L22.2459 63.9932C22.2459 63.9932 22.2459 64.1047 22.1341 63.9932L21.3516 63.5473Z" fill="#BD1818"/>
<path d="M27.166 65.777L27.6132 60.9831C27.6132 60.9535 27.625 60.9252 27.6459 60.9043C27.6669 60.8834 27.6953 60.8716 27.725 60.8716L28.9547 60.9831C29.1438 60.9869 29.3302 61.0283 29.5029 61.1048C29.6757 61.1814 29.8314 61.2916 29.9609 61.429C30.1845 61.652 30.1845 61.9865 30.1845 62.4324C30.2189 62.653 30.1691 62.8785 30.0449 63.0643C29.9207 63.2501 29.7312 63.3826 29.5137 63.4358C29.9609 63.5473 30.0727 63.9932 30.0727 64.6622C30.0802 64.8688 30.0444 65.0747 29.9673 65.2667C29.8903 65.4587 29.7739 65.6326 29.6255 65.777C29.2904 65.9793 28.8949 66.0582 28.5076 66L27.166 65.777ZM28.1722 65.1081L28.3958 65.2196C28.6194 65.2196 28.7312 65.2196 28.843 65.1081C28.9547 64.9966 28.9547 64.8851 29.0665 64.5507C29.0957 64.3575 29.0562 64.1603 28.9547 63.9932C28.843 63.8817 28.7312 63.8818 28.5076 63.7703H28.284L28.1722 65.1081ZM28.3958 62.9899H28.6194C28.843 62.9899 28.9547 62.9899 29.0665 62.8784C29.1783 62.7669 29.1783 62.6554 29.1783 62.4324V61.9865C29.1342 61.9443 29.0812 61.9125 29.0232 61.8932C28.9652 61.8739 28.9036 61.8677 28.843 61.875H28.6194L28.3958 62.9899Z" fill="#BD1818"/>
<path d="M35.3283 64.7737L33.4277 60.3142V60.2027L35.4401 59.4223H35.5519L35.8872 60.0912V60.2027L34.7693 60.6487V60.7601L35.2165 61.7635H35.3283L36.3344 61.3176H36.4462L36.7816 61.9865V62.098L35.4401 62.5439V62.6554L35.8872 63.6588H35.999L37.117 63.2128H37.2288L37.5642 63.8818V63.9932L35.3283 64.7737Z" fill="#BD1818"/>
<path d="M43.9366 60.4257L43.154 60.8716H43.0422L41.5889 59.5338L41.3653 59.6453V59.7567L42.2597 61.3176V61.429L41.5889 61.875H41.4771L39.0176 57.75V57.6385L40.0237 57.0811C40.1845 56.9583 40.3716 56.8744 40.5703 56.836C40.7691 56.7976 40.9741 56.8058 41.1692 56.8598C41.3642 56.9139 41.5441 57.0123 41.6945 57.1474C41.8449 57.2826 41.9619 57.4507 42.0361 57.6385C42.1858 57.8252 42.2764 58.0522 42.2963 58.2904C42.3162 58.5287 42.2645 58.7675 42.1479 58.9763L43.9366 60.4257ZM41.1417 58.8649L41.4771 58.5304C41.4845 58.3384 41.4462 58.1473 41.3653 57.973C41.2817 57.8052 41.168 57.6541 41.0299 57.527C40.8734 57.5224 40.7186 57.561 40.5827 57.6385L40.3591 57.75V57.8615L41.0299 58.9763H41.1417V58.8649Z" fill="#BD1818"/>
<path d="M47.5128 57.973L45.3887 53.5135V53.402L46.0594 52.8446H46.1712L49.9723 56.0777V56.1892L49.3015 56.6351H49.1897L48.519 56.0777L47.7364 56.6351L48.1836 57.4156V57.527L47.5128 57.973ZM47.401 55.9662L47.96 55.5203L46.6184 54.4054L47.401 55.9662Z" fill="#BD1818"/>
<path d="M53.3275 53.0676L49.75 49.8345V49.723L50.6444 48.8311C50.8724 48.5517 51.187 48.3556 51.5387 48.2737C51.7123 48.2737 51.8835 48.3139 52.0387 48.3913C52.1939 48.4688 52.329 48.5811 52.4331 48.7196C52.6169 48.8338 52.7594 49.0035 52.8398 49.204C52.9203 49.4045 52.9344 49.6254 52.8803 49.8345C53.2157 49.6115 53.6629 49.723 54.11 50.1689C54.281 50.275 54.4221 50.4228 54.5199 50.5984C54.6177 50.7739 54.669 50.9715 54.669 51.1723C54.669 51.3731 54.6177 51.5707 54.5199 51.7462C54.4221 51.9218 54.281 52.0696 54.11 52.1757L53.3275 53.0676ZM51.8741 50.3919L51.9859 50.2804C52.0977 50.1689 52.2095 50.0574 52.2095 49.9459C52.2095 49.8345 52.0977 49.723 51.8741 49.5C51.6505 49.277 51.5387 49.277 51.4269 49.277C51.3151 49.277 51.2033 49.3885 51.0916 49.5L50.9798 49.6115V49.723L51.8741 50.3919ZM53.4393 51.8412L53.6629 51.7297C53.7805 51.6068 53.8585 51.4514 53.8864 51.2838C53.8864 51.1723 53.7747 51.0608 53.5511 50.8378C53.4066 50.6682 53.2101 50.5507 52.9921 50.5034C52.8803 50.5034 52.7685 50.6149 52.5449 50.7264L52.4331 50.8378V50.9493L53.4393 51.8412Z" fill="#BD1818"/>
<path d="M57.7989 46.6014L53.327 44.8176C53.327 44.8176 53.2152 44.8176 53.327 44.7061L53.6624 43.9257C53.6624 43.9257 53.6624 43.8142 53.7742 43.9257L58.246 45.7095C58.246 45.7095 58.3578 45.7095 58.246 45.8209L57.7989 46.6014Z" fill="#BD1818"/>
<path d="M59.3628 38.9088V39.6892C59.3628 39.7187 59.3511 39.7471 59.3301 39.768C59.3091 39.7889 59.2807 39.8007 59.251 39.8007H55.2264V40.5811C55.2264 40.6106 55.2146 40.639 55.1937 40.6599C55.1727 40.6808 55.1442 40.6926 55.1146 40.6926H54.4438C54.4142 40.6926 54.3857 40.6808 54.3648 40.6599C54.3438 40.639 54.332 40.6106 54.332 40.5811V38.0169C54.332 37.9873 54.3438 37.959 54.3648 37.938C54.3857 37.9171 54.4142 37.9054 54.4438 37.9054H55.1146C55.1442 37.9054 55.1727 37.9171 55.1937 37.938C55.2146 37.959 55.2264 37.9873 55.2264 38.0169V38.7973L59.3628 38.9088Z" fill="#BD1818"/>
<path d="M59.3628 27.4257V28.2061C59.3628 28.2357 59.3511 28.264 59.3301 28.2849C59.3091 28.3058 59.2807 28.3176 59.251 28.3176L54.4438 29.2095C54.4142 29.2095 54.3857 29.1977 54.3648 29.1768C54.3438 29.1559 54.332 29.1276 54.332 29.098V28.3176C54.332 28.288 54.3438 28.2597 54.3648 28.2387C54.3857 28.2178 54.4142 28.2061 54.4438 28.2061L57.5741 27.6487L54.4438 27.3142C54.4142 27.3142 54.3857 27.3025 54.3648 27.2815C54.3438 27.2606 54.332 27.2323 54.332 27.2027V26.4223C54.332 26.3927 54.3438 26.3644 54.3648 26.3435C54.3857 26.3226 54.4142 26.3108 54.4438 26.3108L59.3628 27.4257Z" fill="#BD1818"/>
<path d="M59.4747 21.0709C59.5082 21.3501 59.4347 21.6317 59.2688 21.8591C59.103 22.0865 58.8571 22.243 58.5804 22.2973C58.4686 22.2973 58.3568 22.4088 58.1332 22.4088H55.6737C55.4501 22.4088 55.3383 22.4088 55.2265 22.2973C54.959 22.2261 54.7242 22.0654 54.5614 21.8421C54.3986 21.6189 54.3176 21.3466 54.3321 21.0709C54.2986 20.7917 54.3722 20.5102 54.538 20.2828C54.7039 20.0553 54.9498 19.8988 55.2265 19.8446C55.3383 19.8446 55.4501 19.7331 55.6737 19.7331H58.1332C58.3568 19.7331 58.4686 19.7331 58.5804 19.8446C58.8571 19.8988 59.103 20.0553 59.2688 20.2828C59.4347 20.5102 59.5082 20.7917 59.4747 21.0709ZM58.5804 21.0709C58.5804 20.848 58.4686 20.7365 58.3568 20.7365H55.4501C55.3383 20.7365 55.2265 20.848 55.2265 21.0709C55.2265 21.2939 55.3383 21.4054 55.4501 21.4054H58.3568C58.4686 21.2939 58.5804 21.1824 58.5804 21.0709Z" fill="#BD1818"/>
<path d="M57.9098 12.9324C58.1092 12.9101 58.311 12.9282 58.5031 12.9857C58.6952 13.0432 58.8737 13.1388 59.0278 13.2669C59.148 13.4033 59.2397 13.5624 59.2973 13.7347C59.3549 13.9071 59.3773 14.0892 59.3632 14.2703C59.3894 14.452 59.3727 14.6374 59.3146 14.8116C59.2564 14.9858 59.1583 15.1442 59.0281 15.274C58.8979 15.4038 58.7392 15.5016 58.5645 15.5596C58.3897 15.6176 58.2039 15.6342 58.0216 15.6081C58.0069 15.6081 57.9924 15.6052 57.9788 15.5996C57.9653 15.594 57.953 15.5858 57.9426 15.5755C57.9322 15.5651 57.924 15.5528 57.9183 15.5393C57.9127 15.5258 57.9098 15.5113 57.9098 15.4966L57.798 14.7162C57.798 14.6867 57.8098 14.6583 57.8308 14.6374C57.8517 14.6165 57.8802 14.6047 57.9098 14.6047C58.1334 14.6047 58.357 14.6047 58.357 14.4933C58.4296 14.3968 58.4688 14.2794 58.4688 14.1588C58.4688 14.0382 58.4296 13.9208 58.357 13.8243C58.2452 13.7128 58.1334 13.7128 57.9098 13.7128C57.6862 13.7128 57.5744 13.7128 57.4626 13.8243C57.3508 13.9358 57.2391 14.0473 57.2391 14.1588L57.1273 14.4933C57.0073 14.7948 56.8154 15.0627 56.5683 15.2737C56.2904 15.4131 55.9849 15.4892 55.6739 15.4966C55.4916 15.5227 55.3058 15.5062 55.1311 15.4482C54.9564 15.3902 54.7976 15.2924 54.6674 15.1625C54.5372 15.0327 54.4391 14.8744 54.381 14.7001C54.3228 14.5259 54.3062 14.3406 54.3324 14.1588C54.3218 13.9897 54.3455 13.8202 54.4022 13.6604C54.4588 13.5007 54.5472 13.354 54.662 13.2291C54.7768 13.1042 54.9157 13.0037 55.0703 12.9335C55.225 12.8634 55.3923 12.8251 55.5621 12.821C55.5918 12.821 55.6202 12.8327 55.6412 12.8536C55.6621 12.8745 55.6739 12.9029 55.6739 12.9324L55.7857 13.7128C55.7857 13.7424 55.7739 13.7708 55.753 13.7917C55.732 13.8126 55.7036 13.8243 55.6739 13.8243C55.3385 13.8243 55.1149 13.9358 55.1149 14.2703C55.1149 14.6047 55.2267 14.6047 55.5621 14.6047C55.8975 14.6047 55.8975 14.6047 56.0093 14.4933C56.1211 14.3818 56.1211 14.2703 56.2329 14.1588L56.3447 13.8243C56.4646 13.5228 56.6565 13.2549 56.9037 13.0439C57.2278 12.9382 57.5703 12.9003 57.9098 12.9324Z" fill="#BD1818"/>
<path d="M31.7491 0L29.625 2.34122L27.5009 0L27.6127 3.12162L24.4824 3.01014L26.8301 5.12838L24.4824 7.24662L27.6127 7.13514L27.5009 10.2568L29.625 7.91554L31.7491 10.2568L31.6374 7.02365L34.7676 7.13514L32.4199 5.01689L34.7676 2.89865L31.6374 3.01014L31.7491 0Z" fill="#BD1818"/>
<path d="M50.3074 13.1554H9.05474V39.4662C9.04886 41.1922 9.5125 42.8875 10.3963 44.3716C11.0927 45.4356 11.9188 46.4093 12.8558 47.2703C13.3986 47.8485 13.9978 48.3713 14.6445 48.8311C18.9635 52.4414 23.882 55.2711 29.178 57.1926C29.3092 57.2812 29.4676 57.3207 29.6252 57.304C29.7828 57.3207 29.9412 57.2812 30.0724 57.1926C35.3802 55.2966 40.303 52.4644 44.6058 48.8311C45.1648 48.2736 45.8356 47.8277 46.3945 47.2703C47.3315 46.4093 48.1576 45.4356 48.854 44.3716C49.7512 42.8932 50.2159 41.1941 50.1956 39.4662C50.3074 37.5709 50.3074 13.2669 50.3074 13.1554ZM46.0591 42.5878C45.5219 43.3742 44.8828 44.0864 44.1586 44.7061C43.5996 45.2635 42.9289 45.8209 42.3699 46.3784L29.737 33.6689V53.625C25.1415 51.8972 20.8707 49.4097 17.104 46.2669L29.737 33.6689H12.5204V16.5L29.737 33.6689V16.5H46.9535L29.737 33.6689H46.9535V39.3547C46.9355 40.4907 46.6278 41.6034 46.0591 42.5878Z" fill="#BD1818"/>
</g>
<defs>
<clipPath id="clip0_14_447">
<rect width="381" height="66" fill="white"/>
</clipPath>
</defs>
</svg>
