<svg width="514" height="89" viewBox="0 0 514 89" fill="none" xmlns="http://www.w3.org/2000/svg">
<g clip-path="url(#clip0_32_2095)">
<path d="M256.398 17.5896H255.342V76.6724H256.398V17.5896Z" fill="white"/>
<path d="M281.734 23.603V27.2111H286.108V28.4139H281.734V33.2247H280.377V22.25H286.561V23.603H281.734Z" fill="white"/>
<path d="M296.666 24.8058V33.2247H295.61L295.46 32.022C294.873 32.6904 294.096 33.1649 293.233 33.3826C292.369 33.6003 291.459 33.5509 290.624 33.2409C289.79 32.9308 289.069 32.3749 288.559 31.647C288.049 30.9191 287.773 30.0536 287.768 29.1656C287.742 28.5863 287.838 28.0079 288.048 27.4674C288.259 26.9269 288.58 26.4359 288.992 26.0259C289.403 25.6158 289.896 25.2956 290.438 25.0855C290.98 24.8755 291.56 24.7802 292.142 24.8058C292.771 24.8009 293.394 24.9328 293.967 25.1924C294.54 25.4521 295.05 25.8332 295.46 26.3092L295.61 24.9562H296.666V24.8058ZM295.309 29.0153C295.309 28.3909 295.123 27.7805 294.775 27.2613C294.427 26.7421 293.932 26.3375 293.354 26.0985C292.775 25.8596 292.138 25.797 291.524 25.9189C290.909 26.0407 290.345 26.3414 289.902 26.7829C289.459 27.2244 289.157 27.787 289.035 28.3994C288.913 29.0118 288.976 29.6466 289.215 30.2235C289.455 30.8003 289.861 31.2934 290.382 31.6403C290.903 31.9872 291.515 32.1724 292.142 32.1724C292.563 32.194 292.985 32.1271 293.379 31.9761C293.773 31.8251 294.131 31.5933 294.429 31.2957C294.728 30.9981 294.96 30.6414 295.112 30.2485C295.263 29.8557 295.331 29.4356 295.309 29.0153Z" fill="white"/>
<path d="M298.778 29.0152C298.766 28.4393 298.871 27.8669 299.086 27.3324C299.302 26.7978 299.623 26.3123 300.032 25.905C300.441 25.4977 300.928 25.177 301.464 24.9622C302 24.7475 302.574 24.6431 303.152 24.6554C304.072 24.6242 304.975 24.9044 305.715 25.4505C306.454 25.9965 306.986 26.7761 307.224 27.6622H305.867C305.636 27.1337 305.257 26.6826 304.775 26.3627C304.294 26.0428 303.731 25.8677 303.152 25.8581C302.312 25.8581 301.507 26.1908 300.913 26.7828C300.319 27.3749 299.985 28.1779 299.985 29.0152C299.985 29.8525 300.319 30.6556 300.913 31.2476C301.507 31.8397 302.312 32.1723 303.152 32.1723C303.738 32.1983 304.317 32.0374 304.806 31.713C305.294 31.3886 305.666 30.9175 305.867 30.3683H307.224C306.906 31.3475 306.246 32.181 305.365 32.7181C304.484 33.2552 303.44 33.4607 302.42 33.2973C301.4 33.134 300.473 32.6126 299.805 31.8273C299.137 31.0421 298.773 30.0447 298.778 29.0152Z" fill="white"/>
<path d="M308.883 29.7669V24.9561H310.24V29.6165C310.202 29.955 310.236 30.2977 310.34 30.6221C310.444 30.9465 310.616 31.2455 310.843 31.4994C311.071 31.7532 311.35 31.9563 311.662 32.0954C311.974 32.2344 312.312 32.3063 312.653 32.3063C312.995 32.3063 313.333 32.2344 313.645 32.0954C313.957 31.9563 314.236 31.7532 314.463 31.4994C314.691 31.2455 314.863 30.9465 314.967 30.6221C315.07 30.2977 315.105 29.955 315.066 29.6165V24.9561H316.424V29.7669C316.424 30.7637 316.027 31.7196 315.32 32.4245C314.612 33.1293 313.653 33.5253 312.653 33.5253C311.653 33.5253 310.694 33.1293 309.987 32.4245C309.28 31.7196 308.883 30.7637 308.883 29.7669Z" fill="white"/>
<path d="M318.988 21.7991H320.346V33.2247H318.988V21.7991Z" fill="white"/>
<path d="M327.433 32.022V33.2247H326.378C325.98 33.2575 325.58 33.2009 325.207 33.0591C324.834 32.9173 324.497 32.694 324.222 32.4055C323.947 32.117 323.741 31.7707 323.618 31.3921C323.495 31.0135 323.459 30.6123 323.512 30.2179V26.0085H322.004V25.7078L324.568 23.0017H324.719V24.8058H327.433V26.0085H324.719V30.2179C324.683 30.463 324.706 30.713 324.784 30.9479C324.863 31.1829 324.995 31.3963 325.171 31.5714C325.346 31.7465 325.561 31.8784 325.796 31.9566C326.032 32.0348 326.283 32.0572 326.529 32.022H327.433Z" fill="white"/>
<path d="M337.387 24.8058V33.2247H336.331L336.18 32.022C335.594 32.6904 334.817 33.1649 333.953 33.3826C333.09 33.6003 332.18 33.5509 331.345 33.2409C330.51 32.9308 329.79 32.3749 329.28 31.647C328.769 30.9191 328.493 30.0536 328.488 29.1656C328.463 28.5863 328.558 28.0079 328.769 27.4674C328.98 26.9269 329.301 26.4359 329.712 26.0259C330.124 25.6158 330.616 25.2956 331.159 25.0855C331.701 24.8755 332.281 24.7802 332.862 24.8058C333.492 24.8009 334.115 24.9328 334.688 25.1924C335.261 25.4521 335.77 25.8332 336.18 26.3092L336.331 24.9562H337.387V24.8058ZM336.03 29.0153C336.03 28.3909 335.844 27.7805 335.496 27.2613C335.148 26.7421 334.653 26.3375 334.074 26.0985C333.496 25.8596 332.859 25.797 332.244 25.9189C331.63 26.0407 331.066 26.3414 330.623 26.7829C330.18 27.2244 329.878 27.787 329.756 28.3994C329.634 29.0118 329.696 29.6466 329.936 30.2235C330.176 30.8003 330.582 31.2934 331.103 31.6403C331.623 31.9872 332.236 32.1724 332.862 32.1724C333.281 32.1827 333.698 32.1081 334.086 31.9531C334.475 31.7981 334.829 31.5659 335.125 31.2707C335.421 30.9754 335.654 30.6232 335.81 30.2355C335.965 29.8479 336.04 29.4327 336.03 29.0153Z" fill="white"/>
<path d="M348.246 21.7991V33.2247H347.191L347.04 32.022C346.621 32.4772 346.106 32.8345 345.532 33.0684C344.959 33.3023 344.341 33.407 343.722 33.3751C343.144 33.3874 342.57 33.283 342.033 33.0683C341.497 32.8535 341.01 32.5328 340.601 32.1255C340.193 31.7182 339.871 31.2327 339.656 30.6982C339.44 30.1636 339.335 29.5912 339.348 29.0153C339.322 28.4359 339.418 27.8576 339.628 27.3171C339.839 26.7765 340.16 26.2856 340.572 25.8755C340.983 25.4655 341.476 25.1452 342.018 24.9352C342.56 24.7251 343.14 24.6299 343.722 24.6555C344.894 24.6322 346.029 25.0634 346.889 25.8582V21.7991H348.246ZM346.889 29.0153C346.889 28.3909 346.703 27.7805 346.355 27.2613C346.007 26.7421 345.512 26.3375 344.934 26.0985C344.355 25.8596 343.718 25.797 343.104 25.9189C342.489 26.0407 341.925 26.3414 341.482 26.7829C341.039 27.2244 340.737 27.787 340.615 28.3994C340.493 29.0118 340.556 29.6466 340.796 30.2235C341.035 30.8003 341.441 31.2934 341.962 31.6403C342.483 31.9872 343.095 32.1724 343.722 32.1724C344.143 32.194 344.565 32.1271 344.959 31.9761C345.353 31.8251 345.711 31.5933 346.009 31.2957C346.308 30.9981 346.54 30.6414 346.692 30.2485C346.843 29.8557 346.911 29.4356 346.889 29.0153Z" fill="white"/>
<path d="M363.178 21.7991V33.2247H362.122L361.971 32.022C361.552 32.4772 361.038 32.8345 360.464 33.0684C359.891 33.3023 359.272 33.407 358.653 33.3751C358.076 33.3874 357.501 33.283 356.965 33.0683C356.429 32.8535 355.942 32.5328 355.533 32.1255C355.124 31.7182 354.803 31.2327 354.587 30.6982C354.372 30.1636 354.267 29.5912 354.279 29.0153C354.254 28.4359 354.349 27.8576 354.56 27.3171C354.771 26.7765 355.092 26.2856 355.503 25.8755C355.915 25.4655 356.407 25.1452 356.95 24.9352C357.492 24.7251 358.072 24.6299 358.653 24.6555C359.826 24.6322 360.961 25.0634 361.821 25.8582V21.7991H363.178ZM361.821 29.0153C361.821 28.3909 361.635 27.7805 361.287 27.2613C360.939 26.7421 360.444 26.3375 359.865 26.0985C359.287 25.8596 358.65 25.797 358.035 25.9189C357.421 26.0407 356.857 26.3414 356.414 26.7829C355.971 27.2244 355.669 27.787 355.547 28.3994C355.425 29.0118 355.487 29.6466 355.727 30.2235C355.967 30.8003 356.373 31.2934 356.894 31.6403C357.415 31.9872 358.027 32.1724 358.653 32.1724C359.075 32.194 359.496 32.1271 359.891 31.9761C360.285 31.8251 360.643 31.5933 360.941 31.2957C361.24 30.9981 361.472 30.6414 361.624 30.2485C361.775 29.8557 361.842 29.4356 361.821 29.0153Z" fill="white"/>
<path d="M373.584 29.6164H366.344C366.417 30.3489 366.772 31.0247 367.335 31.5014C367.897 31.9781 368.624 32.2186 369.361 32.1722C369.888 32.1937 370.41 32.0633 370.865 31.7967C371.319 31.5301 371.687 31.1385 371.925 30.6688H373.282C372.971 31.4868 372.411 32.1875 371.681 32.6727C370.951 33.1579 370.087 33.4034 369.21 33.3749C368.05 33.3749 366.937 32.9156 366.117 32.0979C365.297 31.2803 364.836 30.1714 364.836 29.0151C364.836 27.8787 365.289 26.7889 366.095 25.9854C366.901 25.1819 367.994 24.7305 369.134 24.7305C370.274 24.7305 371.368 25.1819 372.174 25.9854C372.98 26.7889 373.433 27.8787 373.433 29.0151C373.734 29.3158 373.734 29.4661 373.584 29.6164ZM366.495 28.4137H372.377C372.284 27.7299 371.939 27.1049 371.409 26.6604C370.88 26.2158 370.203 25.9834 369.511 26.0083C369.155 25.9686 368.794 25.9994 368.449 26.0988C368.105 26.1982 367.783 26.3644 367.503 26.5878C367.223 26.8112 366.99 27.0875 366.817 27.4008C366.644 27.7141 366.534 28.0583 366.495 28.4137Z" fill="white"/>
<path d="M279.624 49.3107C279.596 48.5729 279.722 47.8373 279.993 47.15C280.263 46.4628 280.673 45.8386 281.197 45.3165C281.721 44.7944 282.347 44.3856 283.037 44.1158C283.726 43.8459 284.464 43.7208 285.204 43.7482C286.382 43.701 287.54 44.066 288.476 44.7798C289.413 45.4937 290.069 46.5115 290.332 47.657H289.126C288.839 46.8949 288.323 46.24 287.647 45.7823C286.972 45.3247 286.171 45.0867 285.355 45.1012C284.785 45.0923 284.219 45.2001 283.693 45.418C283.167 45.6359 282.691 45.9592 282.295 46.368C281.899 46.7767 281.591 47.2621 281.391 47.7942C281.191 48.3263 281.103 48.8936 281.132 49.461C281.106 50.0207 281.198 50.5795 281.401 51.1018C281.604 51.6241 281.914 52.0985 282.312 52.4946C282.709 52.8908 283.185 53.1999 283.709 53.4024C284.233 53.6049 284.794 53.6962 285.355 53.6705C286.196 53.7039 287.025 53.4556 287.708 52.9651C288.391 52.4747 288.89 51.7704 289.126 50.9644H290.483C290.193 52.1363 289.513 53.1757 288.555 53.9129C287.596 54.6501 286.415 55.0416 285.204 55.0235C284.456 55.0344 283.713 54.8929 283.021 54.6077C282.329 54.3225 281.702 53.8996 281.18 53.3648C280.658 52.8301 280.25 52.1948 279.983 51.4977C279.715 50.8006 279.593 50.0564 279.624 49.3107Z" fill="white"/>
<path d="M292.293 43.4478H293.801V44.9511H292.293V43.4478ZM292.444 46.4545H293.801V54.8734H292.444V46.4545Z" fill="white"/>
<path d="M304.209 51.115H296.969C297.042 51.8475 297.397 52.5232 297.96 53C298.522 53.4767 299.249 53.7172 299.986 53.6707C300.513 53.6922 301.035 53.5619 301.49 53.2952C301.944 53.0286 302.312 52.637 302.55 52.1673H303.907C303.596 52.9854 303.036 53.686 302.306 54.1712C301.576 54.6564 300.712 54.902 299.835 54.8734C298.675 54.8734 297.562 54.4141 296.742 53.5965C295.922 52.7789 295.461 51.6699 295.461 50.5136C295.461 49.951 295.572 49.3938 295.788 48.874C296.004 48.3541 296.321 47.8818 296.72 47.4839C297.119 47.0861 297.593 46.7705 298.114 46.5551C298.636 46.3398 299.195 46.229 299.759 46.229C300.324 46.229 300.883 46.3398 301.404 46.5551C301.926 46.7705 302.4 47.0861 302.799 47.4839C303.198 47.8818 303.515 48.3541 303.731 48.874C303.947 49.3938 304.058 49.951 304.058 50.5136C304.359 50.8143 304.359 50.9646 304.209 51.115ZM297.12 49.9123H303.002C302.909 49.2284 302.564 48.6035 302.034 48.1589C301.505 47.7143 300.828 47.482 300.136 47.5069C299.422 47.4536 298.713 47.6721 298.154 48.1183C297.594 48.5646 297.225 49.2056 297.12 49.9123Z" fill="white"/>
<path d="M313.709 49.7618V54.8733H312.352V50.0625C312.352 48.4088 311.598 47.3564 310.089 47.3564C309.729 47.3632 309.373 47.444 309.045 47.5939C308.717 47.7438 308.423 47.9595 308.183 48.2276C307.942 48.4957 307.76 48.8103 307.646 49.1519C307.533 49.4935 307.492 49.8547 307.525 50.2128V54.8733H306.168V46.4544H307.073L307.375 47.8074C307.711 47.3248 308.163 46.9342 308.69 46.6715C309.217 46.4088 309.802 46.2824 310.391 46.3041C312.502 46.1537 313.709 47.6571 313.709 49.7618Z" fill="white"/>
<path d="M315.669 50.6639C315.657 50.088 315.761 49.5156 315.977 48.981C316.192 48.4465 316.514 47.961 316.923 47.5537C317.331 47.1464 317.818 46.8257 318.354 46.6109C318.891 46.3962 319.465 46.2918 320.043 46.3041C320.963 46.2729 321.866 46.5531 322.605 47.0991C323.345 47.6452 323.877 48.4248 324.115 49.3109H322.758C322.526 48.7823 322.147 48.3312 321.666 48.0114C321.185 47.6915 320.621 47.5164 320.043 47.5068C319.203 47.5068 318.397 47.8394 317.803 48.4315C317.209 49.0236 316.876 49.8266 316.876 50.6639C316.876 51.5012 317.209 52.3042 317.803 52.8963C318.397 53.4884 319.203 53.821 320.043 53.821C320.629 53.847 321.208 53.6861 321.696 53.3617C322.184 53.0373 322.556 52.5662 322.758 52.0169H324.115C323.877 52.9031 323.345 53.6827 322.605 54.2287C321.866 54.7747 320.963 55.0549 320.043 55.0237C319.465 55.036 318.891 54.9316 318.354 54.7169C317.818 54.5022 317.331 54.1815 316.923 53.7741C316.514 53.3668 316.192 52.8813 315.977 52.3468C315.761 51.8123 315.657 51.2398 315.669 50.6639Z" fill="white"/>
<path d="M325.926 43.4478H327.434V44.9511H325.926V43.4478ZM326.077 46.4545H327.434V54.8734H326.077V46.4545Z" fill="white"/>
<path d="M338.293 46.4543V54.8732H337.237L337.087 53.6705C336.5 54.3388 335.723 54.8133 334.86 55.031C333.996 55.2488 333.086 55.1993 332.251 54.8893C331.417 54.5793 330.696 54.0234 330.186 53.2955C329.676 52.5675 329.4 51.7021 329.395 50.8141C329.369 50.2347 329.465 49.6564 329.675 49.1158C329.886 48.5753 330.207 48.0844 330.619 47.6743C331.03 47.2642 331.523 46.944 332.065 46.734C332.607 46.5239 333.187 46.4287 333.769 46.4543C334.398 46.4493 335.021 46.5812 335.594 46.8409C336.167 47.1005 336.676 47.4816 337.087 47.9576L337.237 46.6046H338.293V46.4543ZM336.936 50.6637C336.936 50.0393 336.75 49.4289 336.402 48.9097C336.054 48.3906 335.559 47.9859 334.981 47.747C334.402 47.508 333.765 47.4455 333.151 47.5673C332.536 47.6891 331.972 47.9898 331.529 48.4313C331.086 48.8729 330.784 49.4354 330.662 50.0478C330.54 50.6602 330.603 51.295 330.842 51.8719C331.082 52.4488 331.488 52.9419 332.009 53.2888C332.53 53.6357 333.142 53.8208 333.769 53.8208C334.599 53.791 335.387 53.4488 335.975 52.863C336.563 52.2773 336.906 51.4915 336.936 50.6637Z" fill="white"/>
<path d="M343.572 55.0235C341.611 55.0235 340.254 53.9712 340.254 52.3175H341.611C341.611 53.3698 342.516 53.8208 343.723 53.8208C344.929 53.8208 345.683 53.3698 345.683 52.4678C345.683 51.5658 344.628 51.2651 343.572 51.1148C342.064 50.8141 340.556 50.5134 340.556 48.7094C340.556 47.206 341.762 46.304 343.723 46.304C345.683 46.304 346.89 47.3563 346.89 48.8597H345.683C345.683 47.9577 344.929 47.5067 343.723 47.5067C342.516 47.5067 341.913 47.9577 341.913 48.7094C341.913 49.461 342.818 49.7617 344.024 49.9121C345.533 50.2127 347.192 50.3631 347.192 52.4678C347.017 53.2673 346.549 53.9729 345.879 54.4458C345.21 54.9187 344.387 55.1248 343.572 55.0235Z" fill="white"/>
<path d="M361.219 43.4478V54.8734H360.163L360.012 53.6707C359.593 54.1259 359.079 54.4832 358.505 54.7171C357.932 54.951 357.313 55.0557 356.694 55.0238C356.117 55.0361 355.542 54.9317 355.006 54.717C354.47 54.5022 353.983 54.1815 353.574 53.7742C353.165 53.3669 352.844 52.8814 352.628 52.3468C352.413 51.8123 352.308 51.2399 352.32 50.664C352.295 50.0846 352.39 49.5063 352.601 48.9657C352.812 48.4252 353.133 47.9343 353.544 47.5242C353.956 47.1142 354.448 46.7939 354.991 46.5839C355.533 46.3738 356.113 46.2786 356.694 46.3042C357.867 46.2809 359.002 46.7121 359.862 47.5069V43.4478H361.219ZM360.012 50.664C360.012 50.0396 359.827 49.4292 359.479 48.91C359.131 48.3908 358.636 47.9862 358.057 47.7472C357.478 47.5082 356.842 47.4457 356.227 47.5675C355.613 47.6894 355.049 47.99 354.606 48.4316C354.163 48.8731 353.861 49.4356 353.739 50.0481C353.617 50.6605 353.679 51.2953 353.919 51.8721C354.159 52.449 354.565 52.9421 355.086 53.289C355.606 53.6359 356.219 53.8211 356.845 53.8211C357.676 53.7912 358.464 53.449 359.052 52.8633C359.639 52.2776 359.982 51.4918 360.012 50.664Z" fill="white"/>
<path d="M371.775 51.115H364.536C364.608 51.8475 364.963 52.5232 365.526 53C366.089 53.4767 366.815 53.7172 367.552 53.6707C368.079 53.6922 368.601 53.5619 369.056 53.2952C369.511 53.0286 369.879 52.637 370.116 52.1673H371.473C371.162 52.9854 370.603 53.686 369.873 54.1712C369.142 54.6564 368.278 54.902 367.401 54.8734C366.241 54.8734 365.129 54.4141 364.308 53.5965C363.488 52.7789 363.027 51.6699 363.027 50.5136C363.027 49.3773 363.48 48.2875 364.286 47.4839C365.092 46.6804 366.186 46.229 367.326 46.229C368.466 46.229 369.559 46.6804 370.365 47.4839C371.171 48.2875 371.624 49.3773 371.624 50.5136C371.729 50.6964 371.781 50.9045 371.775 51.115ZM364.536 49.9123H370.418C370.324 49.2284 369.98 48.6035 369.45 48.1589C368.92 47.7143 368.244 47.482 367.552 47.5069C366.846 47.4927 366.158 47.7256 365.607 48.1651C365.056 48.6046 364.677 49.2229 364.536 49.9123Z" fill="white"/>
<path d="M377.809 43.4478H379.166V54.8734H377.809V43.4478Z" fill="white"/>
<path d="M390.024 46.4543V54.8732H388.968L388.817 53.6705C388.23 54.3388 387.454 54.8133 386.59 55.031C385.726 55.2488 384.817 55.1993 383.982 54.8893C383.147 54.5793 382.427 54.0234 381.916 53.2955C381.406 52.5675 381.13 51.7021 381.125 50.8141C381.1 50.2347 381.195 49.6564 381.406 49.1158C381.616 48.5753 381.938 48.0844 382.349 47.6743C382.761 47.2642 383.253 46.944 383.795 46.734C384.338 46.5239 384.918 46.4287 385.499 46.4543C386.128 46.4493 386.751 46.5812 387.325 46.8409C387.898 47.1005 388.407 47.4816 388.817 47.9576L388.968 46.6046H390.024V46.4543ZM388.666 50.6637C388.666 50.0393 388.481 49.4289 388.132 48.9097C387.784 48.3906 387.29 47.9859 386.711 47.747C386.132 47.508 385.495 47.4455 384.881 47.5673C384.267 47.6891 383.702 47.9898 383.259 48.4313C382.816 48.8729 382.515 49.4354 382.393 50.0478C382.27 50.6602 382.333 51.295 382.573 51.8719C382.813 52.4488 383.219 52.9419 383.739 53.2888C384.26 53.6357 384.873 53.8208 385.499 53.8208C386.338 53.8169 387.141 53.483 387.734 52.8918C388.327 52.3006 388.662 51.4998 388.666 50.6637Z" fill="white"/>
<path d="M396.209 49.3107C396.182 48.5729 396.307 47.8373 396.578 47.15C396.849 46.4628 397.259 45.8386 397.782 45.3165C398.306 44.7944 398.932 44.3856 399.622 44.1158C400.311 43.8459 401.049 43.7208 401.79 43.7482C402.968 43.701 404.125 44.066 405.061 44.7798C405.998 45.4937 406.654 46.5115 406.917 47.657H405.56C405.274 46.8949 404.757 46.24 404.082 45.7823C403.407 45.3247 402.606 45.0867 401.79 45.1012C401.22 45.0923 400.654 45.2001 400.127 45.418C399.601 45.6359 399.125 45.9592 398.729 46.368C398.333 46.7767 398.026 47.2621 397.826 47.7942C397.626 48.3263 397.538 48.8936 397.567 49.461C397.541 50.0207 397.632 50.5795 397.836 51.1018C398.039 51.6241 398.349 52.0985 398.746 52.4946C399.144 52.8908 399.619 53.1999 400.143 53.4024C400.668 53.6049 401.228 53.6962 401.79 53.6705C402.631 53.7039 403.459 53.4556 404.143 52.9651C404.826 52.4747 405.325 51.7704 405.56 50.9644H406.917C406.628 52.1363 405.948 53.1757 404.989 53.9129C404.031 54.6501 402.849 55.0416 401.639 55.0235C400.901 55.0183 400.173 54.8646 399.497 54.5718C398.82 54.279 398.211 53.8531 397.704 53.3196C397.196 52.7861 396.803 52.156 396.546 51.4672C396.289 50.7783 396.175 50.0448 396.209 49.3107Z" fill="white"/>
<path d="M408.274 50.6639C408.244 49.7661 408.484 48.8798 408.962 48.1186C409.441 47.3574 410.136 46.756 410.96 46.3914C411.784 46.0269 412.698 45.9159 413.585 46.0725C414.473 46.2292 415.293 46.6465 415.941 47.2708C416.589 47.8952 417.035 48.6982 417.222 49.5769C417.409 50.4556 417.329 51.3701 416.991 52.203C416.654 53.0359 416.074 53.7493 415.327 54.2519C414.58 54.7544 413.7 55.0232 412.799 55.0237C412.213 55.0377 411.631 54.9355 411.086 54.7233C410.54 54.511 410.042 54.1928 409.621 53.7871C409.201 53.3815 408.865 52.8965 408.633 52.3603C408.402 51.8242 408.28 51.2475 408.274 50.6639ZM415.966 50.6639C415.966 50.0395 415.78 49.4291 415.432 48.9099C415.084 48.3907 414.589 47.9861 414.011 47.7471C413.432 47.5082 412.795 47.4456 412.181 47.5675C411.566 47.6893 411.002 47.99 410.559 48.4315C410.116 48.873 409.814 49.4356 409.692 50.048C409.57 50.6604 409.633 51.2952 409.872 51.8721C410.112 52.4489 410.518 52.942 411.039 53.2889C411.56 53.6358 412.172 53.821 412.799 53.821C413.629 53.7911 414.417 53.4489 415.005 52.8632C415.593 52.2775 415.936 51.4917 415.966 50.6639Z" fill="white"/>
<path d="M431.651 49.461V54.8732H430.293V49.9121C430.293 48.4087 429.539 47.5066 428.332 47.5066C427.678 47.5788 427.076 47.9009 426.654 48.4054C426.233 48.91 426.023 49.5577 426.07 50.2127V54.8732H424.864V49.9121C424.864 48.4087 424.11 47.5066 422.903 47.5066C422.248 47.5788 421.647 47.9009 421.225 48.4054C420.803 48.91 420.594 49.5577 420.641 50.2127V54.8732H419.283V46.4543H420.188L420.339 47.657C420.645 47.2269 421.053 46.8785 421.527 46.6425C422 46.4066 422.525 46.2903 423.054 46.3039C423.6 46.2807 424.141 46.4274 424.6 46.7236C425.059 47.0199 425.415 47.4511 425.618 47.9577C425.901 47.4497 426.317 47.0278 426.822 46.7366C427.326 46.4454 427.9 46.2959 428.483 46.3039C428.911 46.2561 429.344 46.3049 429.75 46.4466C430.156 46.5884 430.525 46.8195 430.829 47.1228C431.133 47.426 431.365 47.7937 431.507 48.1985C431.65 48.6033 431.699 49.0348 431.651 49.461Z" fill="white"/>
<path d="M434.064 51.2652V46.4543H435.421V51.1148C435.383 51.4533 435.417 51.7959 435.521 52.1204C435.625 52.4448 435.796 52.7438 436.024 52.9976C436.252 53.2515 436.531 53.4546 436.843 53.5937C437.155 53.7327 437.493 53.8046 437.834 53.8046C438.176 53.8046 438.514 53.7327 438.826 53.5937C439.138 53.4546 439.416 53.2515 439.644 52.9976C439.872 52.7438 440.043 52.4448 440.147 52.1204C440.251 51.7959 440.285 51.4533 440.247 51.1148V46.4543H441.605V51.2652C441.636 51.7667 441.559 52.2691 441.381 52.7391C441.202 53.209 440.925 53.6357 440.569 53.9911C440.212 54.3464 439.784 54.6222 439.313 54.8002C438.841 54.9782 438.337 55.0544 437.834 55.0236C437.328 55.0671 436.818 54.9998 436.341 54.8263C435.864 54.6528 435.43 54.3774 435.071 54.0193C434.712 53.6612 434.436 53.2292 434.262 52.7534C434.088 52.2776 434.02 51.7697 434.064 51.2652Z" fill="white"/>
<path d="M451.561 49.7619V54.8734H450.203V50.0626C450.203 48.4089 449.449 47.3565 447.941 47.3565C447.58 47.3633 447.225 47.4441 446.897 47.594C446.568 47.7439 446.275 47.9596 446.034 48.2277C445.794 48.4958 445.611 48.8104 445.498 49.152C445.385 49.4936 445.344 49.8548 445.377 50.2129V54.8734H444.02V46.4545H444.924L445.226 47.8075C445.562 47.3249 446.014 46.9343 446.542 46.6716C447.069 46.4089 447.654 46.2825 448.243 46.3042C448.699 46.2752 449.156 46.3461 449.582 46.5118C450.008 46.6775 450.393 46.934 450.709 47.2634C451.025 47.5928 451.265 47.9871 451.412 48.4187C451.559 48.8503 451.61 49.3088 451.561 49.7619Z" fill="white"/>
<path d="M453.973 43.4478H455.481V44.9511H453.973V43.4478ZM454.123 46.4545H455.481V54.8734H454.123V46.4545Z" fill="white"/>
<path d="M457.442 50.6639C457.43 50.088 457.535 49.5156 457.75 48.981C457.966 48.4465 458.287 47.961 458.696 47.5537C459.105 47.1464 459.592 46.8257 460.128 46.6109C460.664 46.3962 461.238 46.2918 461.816 46.3041C462.736 46.2729 463.639 46.5531 464.379 47.0991C465.118 47.6452 465.65 48.4248 465.888 49.3109H464.531C464.3 48.7823 463.921 48.3312 463.439 48.0114C462.958 47.6915 462.395 47.5164 461.816 47.5068C460.976 47.5068 460.171 47.8394 459.577 48.4315C458.983 49.0236 458.649 49.8266 458.649 50.6639C458.649 51.5012 458.983 52.3042 459.577 52.8963C460.171 53.4884 460.976 53.821 461.816 53.821C462.402 53.847 462.982 53.6861 463.47 53.3617C463.958 53.0373 464.33 52.5662 464.531 52.0169H465.888C465.65 52.9031 465.118 53.6827 464.379 54.2287C463.639 54.7747 462.736 55.0549 461.816 55.0237C461.238 55.036 460.664 54.9316 460.128 54.7169C459.592 54.5022 459.105 54.1815 458.696 53.7741C458.287 53.3668 457.966 52.8813 457.75 52.3468C457.535 51.8123 457.43 51.2398 457.442 50.6639Z" fill="white"/>
<path d="M475.992 46.4543V54.8732H474.937L474.786 53.6705C474.199 54.3388 473.422 54.8133 472.559 55.031C471.695 55.2488 470.785 55.1993 469.951 54.8893C469.116 54.5793 468.395 54.0234 467.885 53.2955C467.375 52.5675 467.099 51.7021 467.094 50.8141C467.068 50.2347 467.164 49.6564 467.375 49.1158C467.585 48.5753 467.907 48.0844 468.318 47.6743C468.729 47.2642 469.222 46.944 469.764 46.734C470.306 46.5239 470.887 46.4287 471.468 46.4543C472.097 46.4493 472.72 46.5812 473.293 46.8409C473.866 47.1005 474.376 47.4816 474.786 47.9576L474.937 46.6046H475.992V46.4543ZM474.635 50.6637C474.635 50.0393 474.449 49.4289 474.101 48.9097C473.753 48.3906 473.259 47.9859 472.68 47.747C472.101 47.508 471.464 47.4455 470.85 47.5673C470.235 47.6891 469.671 47.9898 469.228 48.4313C468.785 48.8729 468.484 49.4354 468.361 50.0478C468.239 50.6602 468.302 51.295 468.542 51.8719C468.781 52.4488 469.187 52.9419 469.708 53.2888C470.229 53.6357 470.841 53.8208 471.468 53.8208C472.298 53.791 473.087 53.4488 473.674 52.863C474.262 52.2773 474.605 51.4915 474.635 50.6637Z" fill="white"/>
<path d="M477.954 50.6639C477.942 50.088 478.046 49.5156 478.262 48.981C478.477 48.4465 478.799 47.961 479.208 47.5537C479.616 47.1464 480.103 46.8257 480.64 46.6109C481.176 46.3962 481.75 46.2918 482.328 46.3041C483.248 46.2729 484.151 46.5531 484.89 47.0991C485.63 47.6452 486.162 48.4248 486.4 49.3109H485.194C484.962 48.7823 484.583 48.3312 484.102 48.0114C483.621 47.6915 483.057 47.5164 482.479 47.5068C481.639 47.5068 480.833 47.8394 480.239 48.4315C479.645 49.0236 479.311 49.8266 479.311 50.6639C479.311 51.5012 479.645 52.3042 480.239 52.8963C480.833 53.4884 481.639 53.821 482.479 53.821C483.065 53.847 483.644 53.6861 484.132 53.3617C484.62 53.0373 484.992 52.5662 485.194 52.0169H486.551C486.313 52.9031 485.781 53.6827 485.041 54.2287C484.302 54.7747 483.398 55.0549 482.479 55.0237C481.893 55.0377 481.311 54.9356 480.766 54.7233C480.22 54.511 479.723 54.1928 479.302 53.7871C478.881 53.3815 478.545 52.8965 478.313 52.3603C478.082 51.8242 477.96 51.2475 477.954 50.6639Z" fill="white"/>
<path d="M488.361 43.4478H489.87V44.9511H488.361V43.4478ZM488.361 46.4545H489.719V54.8734H488.361V46.4545Z" fill="white"/>
<path d="M491.678 50.6638C491.648 49.766 491.888 48.8797 492.366 48.1185C492.845 47.3573 493.541 46.7559 494.364 46.3914C495.188 46.0268 496.102 45.9158 496.99 46.0725C497.877 46.2291 498.697 46.6464 499.345 47.2707C499.993 47.8951 500.439 48.6981 500.626 49.5768C500.814 50.4556 500.733 51.37 500.396 52.2029C500.058 53.0358 499.479 53.7493 498.732 54.2518C497.985 54.7544 497.104 55.0231 496.203 55.0236C495.618 55.0376 495.035 54.9355 494.49 54.7232C493.944 54.5109 493.447 54.1927 493.026 53.787C492.605 53.3814 492.269 52.8964 492.038 52.3602C491.806 51.8241 491.684 51.2474 491.678 50.6638ZM499.219 50.6638C499.219 50.0394 499.034 49.429 498.686 48.9098C498.338 48.3906 497.843 47.986 497.264 47.747C496.685 47.5081 496.049 47.4456 495.434 47.5674C494.82 47.6892 494.256 47.9899 493.813 48.4314C493.37 48.8729 493.068 49.4355 492.946 50.0479C492.824 50.6603 492.886 51.2951 493.126 51.872C493.366 52.4489 493.772 52.9419 494.292 53.2888C494.813 53.6357 495.426 53.8209 496.052 53.8209C496.891 53.817 497.694 53.4831 498.287 52.8918C498.88 52.3006 499.215 51.4999 499.219 50.6638ZM496.505 42.9966H497.862L496.505 45.402H495.449L496.505 42.9966Z" fill="white"/>
<path d="M510.08 49.7618V54.8733H508.723V50.0625C508.723 48.4088 507.969 47.3564 506.46 47.3564C506.1 47.3632 505.744 47.444 505.416 47.5939C505.088 47.7438 504.794 47.9595 504.554 48.2276C504.313 48.4957 504.131 48.8103 504.018 49.1519C503.904 49.4935 503.863 49.8547 503.896 50.2128V54.8733H502.539V46.4544H503.444L503.746 47.8074C504.082 47.3248 504.534 46.9342 505.061 46.6715C505.588 46.4088 506.173 46.2824 506.762 46.3041C508.874 46.1537 510.08 47.6571 510.08 49.7618Z" fill="white"/>
<path d="M512.493 56.0761C513.096 55.9258 513.247 55.4747 513.247 54.723H512.342V53.0693H514.001V54.5727C514.042 55.0631 513.915 55.5528 513.641 55.9623C513.367 56.3717 512.962 56.6768 512.493 56.8278V56.0761Z" fill="white"/>
<path d="M287.314 66.75H283.996V76.3716H282.638V66.75H279.32V65.397H287.314V66.75Z" fill="white"/>
<path d="M288.824 72.7634V67.9526H290.182V72.6131C290.144 72.9516 290.178 73.2942 290.282 73.6187C290.386 73.9431 290.557 74.2421 290.785 74.4959C291.012 74.7498 291.291 74.9529 291.603 75.092C291.915 75.231 292.253 75.3029 292.595 75.3029C292.936 75.3029 293.274 75.231 293.586 75.092C293.898 74.9529 294.177 74.7498 294.405 74.4959C294.633 74.2421 294.804 73.9431 294.908 73.6187C295.012 73.2942 295.046 72.9516 295.008 72.6131V67.9526H296.365V72.7634C296.365 73.7602 295.968 74.7162 295.261 75.4211C294.554 76.1259 293.595 76.5219 292.595 76.5219C291.595 76.5219 290.636 76.1259 289.929 75.4211C289.221 74.7162 288.824 73.7602 288.824 72.7634Z" fill="white"/>
<path d="M303.453 67.8025V69.0052H302.548C302.202 68.9974 301.859 69.0647 301.543 69.2022C301.226 69.3398 300.943 69.5444 300.713 69.8018C300.484 70.0592 300.313 70.3633 300.213 70.6931C300.113 71.0228 300.087 71.3702 300.135 71.7112V76.2214H298.777V67.8025H299.682L299.833 69.1555C300.125 68.7109 300.53 68.3515 301.007 68.1138C301.484 67.8761 302.016 67.7687 302.548 67.8025H303.453Z" fill="white"/>
<path d="M304.811 64.946H306.319V66.4494H304.811V64.946ZM304.811 67.9528H306.168V76.3717H304.811V67.9528Z" fill="white"/>
<path d="M308.129 73.8158H309.486C309.486 74.8681 310.391 75.3191 311.598 75.3191C312.804 75.3191 313.558 74.8681 313.558 73.9661C313.558 73.0641 312.503 72.7634 311.447 72.6131C309.939 72.3124 308.431 72.0117 308.431 70.2077C308.431 68.7043 309.637 67.8022 311.598 67.8022C313.558 67.8022 314.765 68.8546 314.765 70.358H313.558C313.558 69.456 312.804 69.0049 311.598 69.0049C310.391 69.0049 309.788 69.456 309.788 70.2077C309.788 70.9593 310.693 71.26 311.899 71.4104C313.408 71.711 315.067 71.8614 315.067 73.9661C315.067 75.4695 313.709 76.5218 311.749 76.5218C309.486 76.5218 308.28 75.4695 308.129 73.8158Z" fill="white"/>
<path d="M329.245 70.9595V76.3717H327.887V71.4105C327.887 69.9071 327.133 69.0051 325.927 69.0051C325.272 69.0773 324.67 69.3994 324.249 69.9039C323.827 70.4084 323.617 71.0561 323.664 71.7112V76.3717H322.307V71.4105C322.307 69.9071 321.553 69.0051 320.346 69.0051C319.691 69.0773 319.09 69.3994 318.668 69.9039C318.246 70.4084 318.037 71.0561 318.084 71.7112V76.3717H316.727V67.9527H317.631L317.782 69.1554C318.089 68.7253 318.497 68.3769 318.97 68.141C319.444 67.905 319.968 67.7888 320.497 67.8024C321.044 67.7792 321.584 67.9258 322.043 68.2221C322.503 68.5184 322.858 68.9496 323.061 69.4561C323.344 68.9482 323.76 68.5262 324.265 68.235C324.769 67.9439 325.344 67.7944 325.927 67.8024C326.36 67.7583 326.799 67.8084 327.211 67.9493C327.623 68.0902 328 68.3186 328.316 68.6187C328.631 68.9187 328.877 69.2834 329.038 69.6875C329.198 70.0916 329.269 70.5256 329.245 70.9595Z" fill="white"/>
<path d="M331.053 72.1622C331.023 71.2644 331.263 70.3781 331.741 69.6169C332.22 68.8557 332.916 68.2543 333.739 67.8897C334.563 67.5252 335.477 67.4142 336.365 67.5708C337.252 67.7275 338.072 68.1448 338.72 68.7691C339.368 69.3935 339.814 70.1965 340.001 71.0752C340.189 71.9539 340.108 72.8684 339.771 73.7013C339.433 74.5342 338.854 75.2476 338.107 75.7502C337.36 76.2527 336.479 76.5215 335.578 76.522C334.993 76.536 334.41 76.4338 333.865 76.2216C333.319 76.0093 332.822 75.6911 332.401 75.2854C331.98 74.8798 331.644 74.3948 331.413 73.8586C331.181 73.3224 331.059 72.7458 331.053 72.1622ZM338.745 72.1622C338.745 71.5378 338.559 70.9274 338.211 70.4082C337.863 69.889 337.369 69.4844 336.79 69.2454C336.211 69.0065 335.574 68.9439 334.96 69.0658C334.346 69.1876 333.781 69.4883 333.338 69.9298C332.895 70.3713 332.594 70.9338 332.472 71.5463C332.349 72.1587 332.412 72.7935 332.652 73.3704C332.891 73.9472 333.297 74.4403 333.818 74.7872C334.339 75.1341 334.952 75.3193 335.578 75.3193C336.417 75.3153 337.22 74.9814 337.813 74.3902C338.406 73.799 338.741 72.9983 338.745 72.1622Z" fill="white"/>
<path d="M353.677 67.9526L349.605 76.6722C348.7 78.6266 347.946 79.3783 346.287 79.3783H345.533V78.1756H346.287C347.342 78.1756 347.795 77.8749 348.549 76.3716L348.851 75.7702L345.08 67.9526H346.588L349.605 74.2668L352.47 67.9526H353.677Z" fill="white"/>
<path d="M367.1 68.8547C367.102 69.3223 367.009 69.7856 366.826 70.2162C366.643 70.6468 366.374 71.0358 366.036 71.3593C365.697 71.6829 365.296 71.9343 364.856 72.0981C364.417 72.262 363.949 72.3349 363.48 72.3125H360.916V76.2212H359.559V65.2466H363.48C364.436 65.2583 365.35 65.6422 366.027 66.3163C366.703 66.9904 367.088 67.9014 367.1 68.8547ZM365.742 68.8547C365.745 68.5645 365.688 68.2769 365.573 68.0102C365.458 67.7434 365.289 67.5034 365.076 67.3054C364.864 67.1074 364.612 66.9558 364.337 66.8601C364.062 66.7645 363.77 66.727 363.48 66.75H361.067V71.1098H363.48C363.779 71.1159 364.076 71.0618 364.353 70.9506C364.63 70.8395 364.882 70.6736 365.093 70.4629C365.305 70.2523 365.471 70.0013 365.583 69.7249C365.694 69.4485 365.748 69.1525 365.742 68.8547Z" fill="white"/>
<path d="M368.307 73.8158H369.664C369.664 74.8681 370.569 75.3191 371.776 75.3191C372.982 75.3191 373.736 74.8681 373.736 73.9661C373.736 73.0641 372.68 72.7634 371.625 72.6131C370.116 72.3124 368.608 72.0117 368.608 70.2077C368.608 68.7043 369.815 67.8022 371.776 67.8022C373.736 67.8022 374.943 68.8546 374.943 70.358H373.736C373.736 69.456 372.982 69.0049 371.776 69.0049C370.569 69.0049 369.966 69.456 369.966 70.2077C369.966 70.9593 370.871 71.26 372.077 71.4104C373.585 71.711 375.244 71.8614 375.244 73.9661C375.244 75.4695 373.887 76.5218 371.926 76.5218C369.664 76.5218 368.307 75.4695 368.307 73.8158Z" fill="white"/>
<path d="M376.902 64.946H378.411V66.4494H376.902V64.946ZM376.902 67.9528H378.26V76.3717H376.902V67.9528Z" fill="white"/>
<path d="M380.22 72.1622C380.207 71.5863 380.312 71.0139 380.528 70.4793C380.743 69.9448 381.065 69.4593 381.473 69.052C381.882 68.6446 382.369 68.324 382.905 68.1092C383.442 67.8945 384.016 67.7901 384.594 67.8024C385.513 67.7712 386.417 68.0514 387.156 68.5974C387.896 69.1435 388.428 69.9231 388.666 70.8092H387.308C387.077 70.2806 386.698 69.8295 386.217 69.5097C385.735 69.1898 385.172 69.0147 384.594 69.0051C383.754 69.0051 382.948 69.3377 382.354 69.9298C381.76 70.5219 381.426 71.3249 381.426 72.1622C381.426 72.9995 381.76 73.8025 382.354 74.3946C382.948 74.9867 383.754 75.3193 384.594 75.3193C385.18 75.3452 385.759 75.1843 386.247 74.8599C386.735 74.5355 387.107 74.0645 387.308 73.5152H388.666C388.428 74.4013 387.896 75.1809 387.156 75.727C386.417 76.273 385.513 76.5532 384.594 76.522C383.434 76.522 382.321 76.0627 381.501 75.245C380.681 74.4274 380.22 73.3185 380.22 72.1622Z" fill="white"/>
<path d="M390.024 72.1622C389.994 71.2644 390.234 70.3781 390.712 69.6169C391.191 68.8557 391.886 68.2543 392.71 67.8897C393.534 67.5252 394.448 67.4142 395.335 67.5708C396.223 67.7275 397.043 68.1448 397.691 68.7691C398.339 69.3935 398.785 70.1965 398.972 71.0752C399.159 71.9539 399.079 72.8684 398.741 73.7013C398.404 74.5342 397.824 75.2476 397.077 75.7502C396.33 76.2527 395.45 76.5215 394.549 76.522C393.96 76.5508 393.371 76.4589 392.819 76.252C392.267 76.0451 391.763 75.7275 391.339 75.3189C390.915 74.9103 390.58 74.4193 390.353 73.8764C390.127 73.3334 390.015 72.75 390.024 72.1622ZM397.565 72.1622C397.565 71.5378 397.379 70.9274 397.031 70.4082C396.683 69.889 396.189 69.4844 395.61 69.2454C395.031 69.0065 394.394 68.9439 393.78 69.0658C393.166 69.1876 392.601 69.4883 392.158 69.9298C391.715 70.3713 391.414 70.9338 391.291 71.5463C391.169 72.1587 391.232 72.7935 391.472 73.3704C391.711 73.9472 392.117 74.4403 392.638 74.7872C393.159 75.1341 393.771 75.3193 394.398 75.3193C395.237 75.3153 396.04 74.9814 396.633 74.3902C397.226 73.799 397.561 72.9983 397.565 72.1622Z" fill="white"/>
<path d="M400.885 64.946H402.242V76.3717H400.885V64.946Z" fill="white"/>
<path d="M404.354 72.1622C404.324 71.2644 404.564 70.3781 405.042 69.6169C405.521 68.8557 406.216 68.2543 407.04 67.8897C407.864 67.5252 408.778 67.4142 409.665 67.5708C410.553 67.7275 411.373 68.1448 412.021 68.7691C412.669 69.3935 413.115 70.1965 413.302 71.0752C413.489 71.9539 413.409 72.8684 413.071 73.7013C412.734 74.5342 412.154 75.2476 411.407 75.7502C410.66 76.2527 409.78 76.5215 408.879 76.522C408.29 76.5508 407.701 76.4589 407.149 76.252C406.597 76.0451 406.093 75.7275 405.669 75.3189C405.245 74.9103 404.91 74.4193 404.683 73.8764C404.457 73.3334 404.345 72.75 404.354 72.1622ZM411.895 72.1622C411.895 71.5378 411.709 70.9274 411.361 70.4082C411.013 69.889 410.519 69.4844 409.94 69.2454C409.361 69.0065 408.724 68.9439 408.11 69.0658C407.496 69.1876 406.931 69.4883 406.488 69.9298C406.045 70.3713 405.744 70.9338 405.622 71.5463C405.499 72.1587 405.562 72.7935 405.802 73.3704C406.041 73.9472 406.447 74.4403 406.968 74.7872C407.489 75.1341 408.101 75.3193 408.728 75.3193C409.567 75.3153 410.37 74.9814 410.963 74.3902C411.556 73.799 411.891 72.9983 411.895 72.1622Z" fill="white"/>
<path d="M423.055 67.9527V75.1689C423.127 75.7327 423.073 76.3052 422.898 76.8461C422.723 77.3869 422.431 77.8828 422.043 78.2987C421.654 78.7147 421.179 79.0404 420.65 79.2529C420.122 79.4655 419.552 79.5596 418.983 79.5287C418.079 79.5905 417.18 79.3403 416.439 78.8203C415.698 78.3002 415.158 77.5418 414.911 76.6723H416.268C416.563 77.2714 417.055 77.7522 417.661 78.0353C418.268 78.3183 418.953 78.3866 419.604 78.2288C420.254 78.0711 420.831 77.6967 421.24 77.1677C421.648 76.6386 421.863 75.9865 421.849 75.3192V74.8682C421.451 75.2579 420.98 75.565 420.462 75.7714C419.944 75.9779 419.39 76.0797 418.832 76.0709C417.712 76.0709 416.638 75.6274 415.846 74.838C415.054 74.0486 414.609 72.9779 414.609 71.8614C414.609 70.745 415.054 69.6743 415.846 68.8849C416.638 68.0955 417.712 67.652 418.832 67.652C419.462 67.647 420.085 67.7789 420.658 68.0386C421.231 68.2982 421.74 68.6794 422.15 69.1554L422.301 67.8023L423.055 67.9527ZM421.849 71.8614C421.849 71.2965 421.681 70.7442 421.366 70.2745C421.051 69.8048 420.603 69.4387 420.08 69.2225C419.556 69.0063 418.98 68.9497 418.424 69.0599C417.868 69.1701 417.358 69.4422 416.957 69.8417C416.556 70.2411 416.283 70.7501 416.173 71.3042C416.062 71.8583 416.119 72.4326 416.336 72.9546C416.553 73.4765 416.92 73.9226 417.391 74.2365C417.862 74.5503 418.416 74.7179 418.983 74.7179C419.363 74.7304 419.741 74.6651 420.095 74.526C420.448 74.3869 420.769 74.177 421.038 73.9092C421.306 73.6414 421.517 73.3215 421.656 72.9692C421.796 72.617 421.861 72.24 421.849 71.8614Z" fill="white"/>
<path d="M425.77 67.9526H427.127V76.3716H425.77V67.9526ZM426.674 64.4949H428.032L426.976 66.9003H425.92L426.674 64.4949Z" fill="white"/>
<path d="M437.985 67.9528V76.3717H436.929L436.778 75.169C436.191 75.8373 435.415 76.3119 434.551 76.5296C433.687 76.7473 432.778 76.6978 431.943 76.3878C431.108 76.0778 430.388 75.5219 429.877 74.794C429.367 74.0661 429.091 73.2006 429.086 72.3126C429.06 71.7332 429.156 71.1549 429.367 70.6144C429.577 70.0738 429.899 69.5829 430.31 69.1728C430.721 68.7628 431.214 68.4425 431.756 68.2325C432.299 68.0225 432.879 67.9272 433.46 67.9528C434.089 67.9478 434.712 68.0798 435.285 68.3394C435.859 68.5991 436.368 68.9802 436.778 69.4562L436.929 68.1031H437.985V67.9528ZM436.627 72.1623C436.627 71.5378 436.441 70.9275 436.093 70.4083C435.745 69.8891 435.251 69.4844 434.672 69.2455C434.093 69.0065 433.456 68.944 432.842 69.0658C432.228 69.1876 431.663 69.4883 431.22 69.9299C430.777 70.3714 430.476 70.9339 430.354 71.5463C430.231 72.1588 430.294 72.7935 430.534 73.3704C430.774 73.9473 431.179 74.4404 431.7 74.7873C432.221 75.1342 432.834 75.3194 433.46 75.3194C433.879 75.3297 434.295 75.2551 434.684 75.1C435.073 74.945 435.426 74.7129 435.723 74.4176C436.019 74.1224 436.252 73.7702 436.407 73.3825C436.563 72.9948 436.638 72.5797 436.627 72.1623Z" fill="white"/>
<path d="M97.4297 65.0964V62.0896H98.3346V65.0964C98.3346 65.9984 98.7871 66.5997 99.692 66.5997C99.8737 66.6132 100.056 66.5875 100.227 66.5242C100.398 66.461 100.553 66.3618 100.682 66.2333C100.811 66.1049 100.91 65.9503 100.974 65.78C101.037 65.6097 101.063 65.4278 101.049 65.2467V62.2399H101.954V65.0964C101.954 65.6944 101.716 66.268 101.292 66.6909C100.867 67.1138 100.292 67.3514 99.692 67.3514C99.092 67.3514 98.5166 67.1138 98.0923 66.6909C97.668 66.268 97.4297 65.6944 97.4297 65.0964Z" fill="white"/>
<path d="M105.123 62.2397H106.028L108.743 65.8479V62.2397H109.648V67.3512H108.894L106.028 63.7431V67.3512H105.123V62.2397Z" fill="white"/>
<path d="M113.115 62.2397H114.02V67.3512H113.115V62.2397Z" fill="white"/>
<path d="M117.037 62.2397H118.093L119.601 66.1485L121.109 62.2397H122.165L120.054 67.3512H119.299L117.037 62.2397Z" fill="white"/>
<path d="M125.031 62.2397H128.802V62.9914H125.936V64.3445H128.5V65.0962H125.936V66.5995H128.953V67.3512H125.031V62.2397Z" fill="white"/>
<path d="M132.119 62.2398H134.381C134.922 62.2039 135.458 62.3641 135.89 62.6908C136.037 62.8233 136.154 62.9859 136.232 63.1676C136.31 63.3492 136.347 63.5456 136.342 63.7432C136.38 64.1017 136.275 64.4607 136.049 64.7423C135.823 65.0238 135.495 65.205 135.136 65.2466L136.493 67.201H135.437L134.231 65.3969H133.024V67.201H132.119V62.2398ZM134.381 64.7956C134.985 64.7956 135.437 64.4949 135.437 63.8935C135.437 63.2922 134.985 62.9915 134.381 62.9915H133.024V64.6452H134.381V64.7956Z" fill="white"/>
<path d="M139.207 66.5995L139.81 65.9982C140.032 66.2042 140.294 66.3635 140.579 66.4668C140.864 66.5701 141.167 66.6153 141.469 66.5995C142.073 66.5995 142.374 66.2989 142.374 65.9982C142.374 65.6975 142.223 65.3968 141.168 65.2465C140.112 65.0962 139.509 64.6452 139.509 63.7431C139.509 62.8411 140.263 62.2397 141.319 62.2397C141.969 62.2538 142.6 62.4634 143.128 62.8411L142.676 63.5928C142.288 63.2704 141.818 63.0622 141.319 62.9914C140.715 62.9914 140.414 63.2921 140.414 63.5928C140.414 64.0438 140.715 64.1941 141.62 64.3445C142.525 64.4948 143.279 64.9458 143.279 65.8479C143.279 66.7499 142.525 67.3512 141.469 67.3512C141.061 67.3858 140.649 67.3369 140.261 67.2077C139.872 67.0785 139.513 66.8715 139.207 66.5995Z" fill="white"/>
<path d="M146.297 62.2397H147.202V67.3512H146.297V62.2397Z" fill="white"/>
<path d="M150.67 62.2399H152.631C152.982 62.2102 153.335 62.2547 153.668 62.3705C154.001 62.4864 154.306 62.671 154.562 62.9122C154.818 63.1535 155.02 63.446 155.155 63.7705C155.29 64.0951 155.355 64.4444 155.345 64.7957C155.355 65.1469 155.29 65.4962 155.155 65.8208C155.02 66.1454 154.818 66.4379 154.562 66.6791C154.306 66.9204 154.001 67.105 153.668 67.2208C153.335 67.3367 152.982 67.3812 152.631 67.3514H150.67V62.2399ZM151.575 63.142V66.5997H152.631C152.871 66.6081 153.11 66.5672 153.333 66.4795C153.556 66.3918 153.759 66.2592 153.929 66.09C154.099 65.9208 154.232 65.7185 154.32 65.4959C154.408 65.2732 154.449 65.0348 154.44 64.7957C154.449 64.5565 154.408 64.3182 154.32 64.0955C154.232 63.8728 154.099 63.6706 153.929 63.5013C153.759 63.3321 153.556 63.1995 153.333 63.1118C153.11 63.0241 152.871 62.9832 152.631 62.9916H151.575V63.142Z" fill="white"/>
<path d="M160.022 62.2397H160.927L163.189 67.3512H162.284L161.832 66.1485H159.418L158.815 67.3512H157.91L160.022 62.2397ZM161.379 65.3968L160.474 63.2921L159.569 65.3968H161.379Z" fill="white"/>
<path d="M166.055 62.2399H168.015C168.367 62.2102 168.72 62.2547 169.053 62.3705C169.386 62.4864 169.69 62.671 169.947 62.9122C170.203 63.1535 170.405 63.446 170.54 63.7705C170.675 64.0951 170.74 64.4444 170.73 64.7957C170.74 65.1469 170.675 65.4962 170.54 65.8208C170.405 66.1454 170.203 66.4379 169.947 66.6791C169.69 66.9204 169.386 67.105 169.053 67.2208C168.72 67.3367 168.367 67.3812 168.015 67.3514H166.055V62.2399ZM166.96 63.142V66.5997H168.015C168.255 66.6081 168.494 66.5672 168.718 66.4795C168.941 66.3918 169.144 66.2592 169.314 66.09C169.484 65.9208 169.617 65.7185 169.705 65.4959C169.793 65.2732 169.834 65.0348 169.825 64.7957C169.834 64.5565 169.793 64.3182 169.705 64.0955C169.617 63.8728 169.484 63.6706 169.314 63.5013C169.144 63.3321 168.941 63.1995 168.718 63.1118C168.494 63.0241 168.255 62.9832 168.015 62.9916H166.96V63.142Z" fill="white"/>
<path d="M178.121 62.2399H180.082C180.433 62.2102 180.787 62.2547 181.119 62.3705C181.452 62.4864 181.757 62.671 182.013 62.9122C182.269 63.1535 182.471 63.446 182.607 63.7705C182.742 64.0951 182.806 64.4444 182.797 64.7957C182.806 65.1469 182.742 65.4962 182.607 65.8208C182.471 66.1454 182.269 66.4379 182.013 66.6791C181.757 66.9204 181.452 67.105 181.119 67.2208C180.787 67.3367 180.433 67.3812 180.082 67.3514H178.121V62.2399ZM179.177 63.142V66.5997H180.233C180.473 66.6081 180.712 66.5672 180.935 66.4795C181.158 66.3918 181.361 66.2592 181.531 66.09C181.701 65.9208 181.834 65.7185 181.922 65.4959C182.01 65.2732 182.051 65.0348 182.042 64.7957C182.051 64.5565 182.01 64.3182 181.922 64.0955C181.834 63.8728 181.701 63.6706 181.531 63.5013C181.361 63.3321 181.158 63.1995 180.935 63.1118C180.712 63.0241 180.473 62.9832 180.233 62.9916H179.177V63.142Z" fill="white"/>
<path d="M185.963 62.2397H189.733V62.9914H186.868V64.3445H189.432V65.0962H186.868V66.5995H189.884V67.3512H185.963V62.2397Z" fill="white"/>
<path d="M97.1289 76.3715L97.7322 75.7702C97.9542 75.9761 98.2154 76.1355 98.5004 76.2388C98.7854 76.3421 99.0884 76.3872 99.3912 76.3715C99.9945 76.3715 100.296 76.0708 100.296 75.7702C100.296 75.4695 100.145 75.1688 99.0896 75.0185C98.0338 74.8681 97.4306 74.4171 97.4306 73.5151C97.4306 72.6131 98.1847 72.0117 99.2404 72.0117C99.8907 72.0258 100.522 72.2354 101.05 72.6131L100.598 73.2144C100.143 72.9112 99.6289 72.7064 99.0896 72.6131C98.4863 72.6131 98.1847 72.9138 98.1847 73.2144C98.1847 73.6654 98.4863 73.8158 99.3912 73.9661C100.296 74.1165 101.05 74.5675 101.05 75.4695C101.05 76.3715 100.296 76.9729 99.2404 76.9729C98.8658 77.0257 98.4843 76.9995 98.1205 76.8959C97.7568 76.7923 97.4189 76.6136 97.1289 76.3715Z" fill="white"/>
<path d="M106.028 72.0117H106.933L109.195 77.1232H108.139L107.687 75.9205H105.274L104.671 77.1232H103.766L106.028 72.0117ZM107.385 75.1688L106.48 73.0641L105.575 75.1688H107.385Z" fill="white"/>
<path d="M112.061 72.0117H112.965L115.68 75.6198V72.0117H116.585V77.1232H115.831L112.965 73.5151V77.1232H112.061V72.0117Z" fill="white"/>
<path d="M124.278 72.0117H125.183L126.691 74.4171L128.2 72.0117H129.104V77.1232H128.2V73.3648L126.541 75.7702L124.881 73.3648V77.1232H123.977V72.0117H124.278Z" fill="white"/>
<path d="M134.534 72.0117H135.439L137.701 77.1232H136.796L136.344 75.9205H133.78L133.176 77.1232H132.271L134.534 72.0117ZM135.891 75.1688L134.986 73.0641L134.081 75.1688H135.891Z" fill="white"/>
<path d="M140.717 72.0118H142.979C143.52 71.9759 144.056 72.1361 144.487 72.4628C144.635 72.5952 144.751 72.7579 144.829 72.9395C144.907 73.1212 144.945 73.3176 144.94 73.5152C144.978 73.8737 144.873 74.2327 144.647 74.5142C144.421 74.7957 144.092 74.977 143.733 75.0185L145.091 76.9729H144.035L142.828 75.1689H141.622V77.1233H140.717V72.0118ZM142.828 74.5675C143.432 74.5675 143.884 74.2669 143.884 73.6655C143.884 73.0642 143.432 72.7635 142.828 72.7635H141.471V74.4172H142.828V74.5675Z" fill="white"/>
<path d="M149.313 72.9137H147.654V72.0117H151.877V72.9137H150.218V77.1232H149.313V72.9137Z" fill="white"/>
<path d="M154.895 72.0119H155.799V77.1234H154.895V72.0119ZM155.799 70.5085L156.554 70.8092L155.649 71.5609H154.895L155.799 70.5085Z" fill="white"/>
<path d="M159.268 72.0117H160.173L162.887 75.6198V72.0117H163.792V77.1232H163.038L160.173 73.5151V77.1232H159.268V72.0117Z" fill="white"/>
<path d="M171.484 72.0119H173.445C173.796 71.9821 174.15 72.0266 174.483 72.1425C174.815 72.2583 175.12 72.4429 175.376 72.6842C175.632 72.9255 175.835 73.2179 175.97 73.5425C176.105 73.8671 176.17 74.2164 176.16 74.5676C176.17 74.9189 176.105 75.2682 175.97 75.5928C175.835 75.9174 175.632 76.2098 175.376 76.4511C175.12 76.6924 174.815 76.877 174.483 76.9928C174.15 77.1087 173.796 77.1532 173.445 77.1234H171.484V72.0119ZM172.389 72.7636V76.2214H173.445C173.685 76.2298 173.924 76.1888 174.148 76.1012C174.371 76.0135 174.574 75.8809 174.744 75.7117C174.913 75.5424 175.046 75.3402 175.134 75.1175C175.222 74.8948 175.263 74.6565 175.255 74.4173C175.263 74.1781 175.222 73.9398 175.134 73.7171C175.046 73.4944 174.913 73.2922 174.744 73.123C174.574 72.9537 174.371 72.8212 174.148 72.7335C173.924 72.6458 173.685 72.6049 173.445 72.6133H172.389V72.7636Z" fill="white"/>
<path d="M179.326 72.0117H183.097V72.7634H180.231V74.1165H182.795V74.8681H180.231V76.2212H183.248V77.1232H179.326V72.0117Z" fill="white"/>
<path d="M190.637 72.0119H192.748C192.987 71.9849 193.229 72.0069 193.459 72.0766C193.69 72.1462 193.903 72.262 194.087 72.4169C194.27 72.5718 194.42 72.7625 194.527 72.9772C194.634 73.1919 194.696 73.4262 194.709 73.6656C194.709 74.8683 193.804 75.4697 192.597 75.4697H191.542V77.1234H190.637V72.0119ZM192.597 74.718C193.352 74.718 193.653 74.267 193.653 73.816C193.653 73.2146 193.201 72.9139 192.597 72.9139H191.542V74.718H192.597Z" fill="white"/>
<path d="M197.426 74.5677C197.426 73.85 197.712 73.1617 198.221 72.6542C198.73 72.1467 199.421 71.8616 200.141 71.8616C200.861 71.8616 201.551 72.1467 202.06 72.6542C202.569 73.1617 202.855 73.85 202.855 74.5677C202.87 74.927 202.81 75.2855 202.679 75.6206C202.548 75.9556 202.348 76.2599 202.093 76.5142C201.838 76.7685 201.533 76.9673 201.197 77.098C200.861 77.2288 200.501 77.2886 200.141 77.2737C199.428 77.2512 198.75 76.9588 198.246 76.4561C197.742 75.9535 197.448 75.2782 197.426 74.5677ZM201.8 74.5677C201.8 74.0892 201.609 73.6303 201.27 73.292C200.93 72.9537 200.47 72.7636 199.99 72.7636C199.51 72.7636 199.049 72.9537 198.71 73.292C198.371 73.6303 198.18 74.0892 198.18 74.5677C198.171 74.8068 198.213 75.0452 198.3 75.2678C198.388 75.4905 198.521 75.6928 198.691 75.862C198.861 76.0312 199.064 76.1638 199.287 76.2515C199.511 76.3392 199.75 76.3801 199.99 76.3717C200.467 76.364 200.923 76.1714 201.261 75.8347C201.599 75.4981 201.792 75.0437 201.8 74.5677Z" fill="white"/>
<path d="M205.871 72.0118H208.133C208.674 71.9759 209.21 72.1361 209.642 72.4628C209.789 72.5952 209.906 72.7579 209.984 72.9395C210.062 73.1212 210.099 73.3176 210.094 73.5152C210.132 73.8737 210.027 74.2327 209.801 74.5142C209.575 74.7957 209.247 74.977 208.888 75.0185L210.245 76.9729H209.189L207.983 75.1689H206.776V77.1233H205.871V72.0118ZM208.133 74.5675C208.737 74.5675 209.189 74.2669 209.189 73.6655C209.189 73.0642 208.737 72.7635 208.133 72.7635H206.776V74.4172H208.133V74.5675Z" fill="white"/>
<path d="M213.412 72.0118H215.674C216.215 71.9759 216.751 72.1361 217.183 72.4628C217.33 72.5952 217.447 72.7579 217.525 72.9395C217.603 73.1212 217.64 73.3176 217.635 73.5152C217.673 73.8737 217.568 74.2327 217.342 74.5142C217.116 74.7957 216.788 74.977 216.429 75.0185L217.786 76.9729H216.73L215.524 75.1689H214.317V77.1233H213.412V72.0118ZM215.524 74.5675C216.127 74.5675 216.579 74.2669 216.579 73.6655C216.579 73.0642 216.127 72.7635 215.524 72.7635H214.166V74.4172H215.524V74.5675Z" fill="white"/>
<path d="M220.803 72.0117H224.573V72.7634H221.708V74.1165H224.272V74.8681H221.708V76.2212H224.724V77.1232H220.803V72.0117Z" fill="white"/>
<path d="M227.439 76.3715L228.043 75.7702C228.265 75.9761 228.526 76.1355 228.811 76.2388C229.096 76.3421 229.399 76.3872 229.702 76.3715C230.305 76.3715 230.607 76.0708 230.607 75.7702C230.607 75.4695 230.456 75.1688 229.4 75.0185C228.344 74.8681 227.741 74.4171 227.741 73.5151C227.741 72.6131 228.495 72.0117 229.551 72.0117C230.201 72.0258 230.832 72.2354 231.361 72.6131L230.908 73.3648C230.521 73.0424 230.051 72.8342 229.551 72.7634C228.948 72.7634 228.646 73.0641 228.646 73.3648C228.646 73.8158 228.948 73.9661 229.853 74.1165C230.758 74.2668 231.512 74.7178 231.512 75.6198C231.512 76.5219 230.758 77.1232 229.702 77.1232C228.885 77.1276 228.09 76.8634 227.439 76.3715Z" fill="white"/>
<path d="M101.353 22.4004V41.1926C101.366 42.2107 101.518 43.2222 101.805 44.1994C102.102 45.2174 102.561 46.1817 103.163 47.0558C103.777 47.9485 104.607 48.6724 105.576 49.1605C106.744 49.7533 108.036 50.0622 109.346 50.0622C110.657 50.0622 111.949 49.7533 113.117 49.1605C114.05 48.6202 114.869 47.9056 115.53 47.0558C116.132 46.1817 116.59 45.2174 116.887 44.1994C117.174 43.2222 117.327 42.2107 117.34 41.1926V22.4004H121.563V41.794C121.583 43.4902 121.276 45.1744 120.658 46.7551C120.037 48.1963 119.17 49.519 118.094 50.6639C116.972 51.7686 115.638 52.6377 114.173 53.2196C112.64 53.8354 110.999 54.1419 109.346 54.1217C107.695 54.1279 106.057 53.8218 104.52 53.2196C103.074 52.6007 101.747 51.7359 100.599 50.6639C99.4904 49.545 98.6186 48.2158 98.0348 46.7551C97.4172 45.1744 97.1099 43.4902 97.1298 41.794V22.4004H101.353Z" fill="white"/>
<path d="M153.384 44.8006C153.47 43.395 153.127 41.9965 152.4 40.789C151.673 39.5815 150.596 38.6216 149.312 38.0354C148.127 37.4055 146.857 36.9497 145.541 36.6824C144.3 36.3954 143.088 35.9927 141.922 35.4797C140.872 35.111 139.9 34.5502 139.056 33.8259C138.678 33.4584 138.386 33.0111 138.204 32.5169C138.021 32.0227 137.952 31.494 138 30.9695C138.042 30.4584 138.143 29.9539 138.302 29.4661C138.488 28.9045 138.797 28.391 139.207 27.9628C139.693 27.4418 140.323 27.0757 141.017 26.9104C143.04 26.2161 145.254 26.3238 147.2 27.2111C148.117 27.6475 148.899 28.3228 149.463 29.1655L153.082 26.0084C152.008 24.7422 150.596 23.8042 149.01 23.3023C147.54 22.8813 146.015 22.6787 144.486 22.7009H144.033C142.378 22.6515 140.732 22.9592 139.207 23.603C137.977 24.0886 136.851 24.8029 135.889 25.7077C135.052 26.431 134.427 27.3659 134.079 28.4138C133.678 29.3129 133.472 30.2863 133.476 31.2702C133.417 32.5509 133.623 33.83 134.079 35.0286L134.531 35.9307C135.21 37.0855 136.204 38.024 137.397 38.6367C138.567 39.3665 139.837 39.9235 141.168 40.2905C142.525 40.7415 143.732 41.0422 144.787 41.4932C145.803 41.8712 146.765 42.3764 147.653 42.9965C148.015 43.312 148.299 43.707 148.483 44.1505C148.666 44.594 148.743 45.0739 148.709 45.5523C148.742 46.3005 148.53 47.0391 148.105 47.657C147.765 48.2972 147.239 48.8209 146.597 49.1604C146.023 49.6095 145.352 49.9184 144.636 50.0624C143.943 50.2259 143.236 50.3265 142.525 50.3631C141.283 50.3309 140.057 50.0763 138.905 49.6114C137.729 49.1151 136.73 48.2768 136.04 47.206L132.42 50.2128C133.579 51.6253 135.086 52.7132 136.794 53.3699C138.142 53.8997 139.569 54.2044 141.017 54.2719H142.525C143.956 54.3043 145.383 54.1011 146.748 53.6705C147.376 53.4847 147.983 53.2327 148.558 52.9188C149.132 52.6025 149.686 52.2511 150.217 51.8665C151.214 51.0714 151.993 50.0368 152.479 48.8597C153.081 47.5909 153.39 46.204 153.384 44.8006Z" fill="white"/>
<path d="M165.148 22.4004H171.483L181.437 46.1538H181.588L191.542 22.4004H197.877V54.1217H193.654V27.9629H193.503L182.795 54.1217H180.231L169.522 27.9629H169.371V54.1217H165.148V22.4004Z" fill="white"/>
<path d="M210.246 22.4003H221.256C222.945 22.3826 224.625 22.6365 226.233 23.152C227.395 23.5998 228.43 24.322 229.25 25.2567C229.954 26.0887 230.469 27.0633 230.758 28.1131C231.361 30.0726 231.361 32.1672 230.758 34.1266C230.469 35.1764 229.954 36.151 229.25 36.983C228.399 37.8833 227.373 38.5997 226.233 39.0878C224.644 39.6762 222.949 39.9321 221.256 39.8395H214.469V53.9712H210.246V22.4003ZM214.62 36.2314H220.2C221.008 36.2562 221.816 36.2059 222.613 36.081C223.365 35.9907 224.086 35.7339 224.725 35.3293C225.367 34.9898 225.893 34.4661 226.233 33.826C226.697 33.0576 226.908 32.164 226.836 31.2702C226.908 30.3764 226.697 29.4828 226.233 28.7145C225.85 28.1068 225.335 27.593 224.725 27.2111C224.057 26.871 223.347 26.6183 222.613 26.4594C221.816 26.3345 221.008 26.2842 220.2 26.3091H214.62V36.2314Z" fill="white"/>
<path d="M0 19.995V18.9426C0 18.9027 0.0158903 18.8645 0.0441749 18.8363C0.0724594 18.8081 0.110821 18.7923 0.150822 18.7923L6.63615 17.4392C6.67615 17.4392 6.71451 17.455 6.7428 17.4832C6.77108 17.5114 6.78697 17.5497 6.78697 17.5895V18.6419C6.78697 18.6617 6.78307 18.6812 6.77549 18.6994C6.76791 18.7177 6.7568 18.7343 6.7428 18.7482C6.72879 18.7622 6.71217 18.7733 6.69387 18.7808C6.67557 18.7884 6.65596 18.7923 6.63615 18.7923L2.41315 19.5439L6.63615 20.1453C6.67615 20.1453 6.71451 20.1611 6.7428 20.1893C6.77108 20.2175 6.78697 20.2558 6.78697 20.2956V21.348C6.78697 21.3879 6.77108 21.4261 6.7428 21.4543C6.71451 21.4825 6.67615 21.4983 6.63615 21.4983L0 19.995Z" fill="white"/>
<path d="M0.150822 26.9104H6.63615C6.65596 26.9104 6.67557 26.9143 6.69387 26.9218C6.71217 26.9294 6.72879 26.9405 6.7428 26.9544C6.7568 26.9684 6.76791 26.985 6.77549 27.0032C6.78307 27.0214 6.78697 27.041 6.78697 27.0607V29.9172C6.78697 29.957 6.77108 29.9953 6.7428 30.0235C6.71451 30.0517 6.67615 30.0675 6.63615 30.0675H5.5804C5.5404 30.0675 5.50204 30.0517 5.47375 30.0235C5.44547 29.9953 5.42958 29.957 5.42958 29.9172V28.2634H4.07218V29.7668C4.07218 29.8067 4.05629 29.8449 4.02801 29.8731C3.99972 29.9013 3.96136 29.9172 3.92136 29.9172H2.86561C2.82561 29.9172 2.78725 29.9013 2.75896 29.8731C2.73068 29.8449 2.71479 29.8067 2.71479 29.7668V28.2634H1.20657V29.9172C1.20657 29.957 1.19068 29.9953 1.1624 30.0235C1.13411 30.0517 1.09575 30.0675 1.05575 30.0675H0.150822C0.110821 30.0675 0.0724594 30.0517 0.0441749 30.0235C0.0158903 29.9953 0 29.957 0 29.9172L0.150822 26.9104C2.13505e-07 27.0607 2.13505e-07 26.9104 0.150822 26.9104Z" fill="white"/>
<path d="M0 39.539V38.3363C0 38.2964 0.0158903 38.2582 0.0441749 38.23C0.0724594 38.2018 0.110821 38.1859 0.150822 38.1859L2.56397 37.4342V37.1336H0.150822C0.110821 37.1336 0.0724594 37.1177 0.0441749 37.0895C0.0158903 37.0613 0 37.0231 0 36.9832V35.9309C0 35.891 0.0158903 35.8527 0.0441749 35.8246C0.0724594 35.7964 0.110821 35.7805 0.150822 35.7805H6.63615C6.67615 35.7805 6.71451 35.7964 6.7428 35.8246C6.77108 35.8527 6.78697 35.891 6.78697 35.9309V37.5846C6.78697 38.9376 6.03286 39.539 4.67547 39.539C4.35838 39.5582 4.0414 39.4997 3.7522 39.3687C3.463 39.2377 3.21039 39.0381 3.01643 38.7873L0 39.539ZM3.77054 37.2839C3.77054 37.5846 3.77054 37.7349 3.92136 37.8852C4.07218 38.0356 4.22301 38.0356 4.67547 38.0356C4.93674 38.0748 5.20354 38.0216 5.42958 37.8852C5.42958 37.7349 5.5804 37.5846 5.5804 37.2839V36.9832H3.92136V37.2839H3.77054Z" fill="white"/>
<path d="M0.150822 45.1013H6.63615C6.65596 45.1013 6.67557 45.1052 6.69387 45.1128C6.71217 45.1203 6.72879 45.1314 6.7428 45.1454C6.7568 45.1593 6.76791 45.1759 6.77549 45.1941C6.78307 45.2124 6.78697 45.2319 6.78697 45.2517V46.304C6.78697 46.3238 6.78307 46.3433 6.77549 46.3616C6.76791 46.3798 6.7568 46.3964 6.7428 46.4103C6.72879 46.4243 6.71217 46.4354 6.69387 46.4429C6.67557 46.4505 6.65596 46.4544 6.63615 46.4544H0.150822C0.131016 46.4544 0.111403 46.4505 0.0931049 46.4429C0.0748064 46.4354 0.0581799 46.4243 0.0441749 46.4103C0.0301698 46.3964 0.01906 46.3798 0.0114805 46.3616C0.00390103 46.3433 0 46.3238 0 46.304L0.150822 45.1013Z" fill="white"/>
<path d="M0 54.4222V53.3698C0 53.33 0.0158903 53.2917 0.0441749 53.2635C0.0724594 53.2353 0.110821 53.2195 0.150822 53.2195L5.42958 53.0692V52.0168C5.42958 51.9769 5.44547 51.9387 5.47375 51.9105C5.50204 51.8823 5.5404 51.8665 5.5804 51.8665H6.48533C6.52533 51.8665 6.56369 51.8823 6.59198 51.9105C6.62026 51.9387 6.63615 51.9769 6.63615 52.0168L6.78697 55.4746C6.78697 55.5144 6.77108 55.5527 6.7428 55.5809C6.71451 55.6091 6.67615 55.6249 6.63615 55.6249H5.73122C5.69122 55.6249 5.65286 55.6091 5.62457 55.5809C5.59629 55.5527 5.5804 55.5144 5.5804 55.4746V54.4222H0Z" fill="white"/>
<path d="M1.50781 61.7888L7.99314 60.2854H8.14396L8.59643 61.3378V61.4881L3.31767 65.5472H3.16685L2.71438 64.4949V64.3445L3.77014 63.5928L3.16685 62.3901L1.96028 62.6908H1.80946L1.50781 61.7888ZM4.2226 62.3901L4.67507 63.1418L6.63575 61.7888L4.2226 62.3901Z" fill="white"/>
<path d="M11.4617 72.0117C11.1235 72.4274 10.6371 72.6968 10.1043 72.7634C9.84855 72.7627 9.59575 72.7089 9.36203 72.6053C9.12831 72.5018 8.91882 72.3508 8.74692 72.162C8.52866 72.0272 8.34856 71.8391 8.22366 71.6155C8.09876 71.3918 8.0332 71.1401 8.0332 70.8842C8.0332 70.6282 8.09876 70.3765 8.22366 70.1529C8.34856 69.9293 8.52866 69.7411 8.74692 69.6063H8.89774L9.80267 70.2077V70.358C9.65185 70.6587 9.50103 70.809 9.50103 70.9593C9.48814 71.0412 9.49485 71.125 9.52061 71.2038C9.54637 71.2827 9.59045 71.3543 9.64926 71.4129C9.70807 71.4716 9.77994 71.5155 9.85902 71.5412C9.9381 71.5669 10.0221 71.5735 10.1043 71.5607C10.2551 71.5607 10.406 71.4104 10.5568 71.26C10.7216 71.1104 10.8274 70.907 10.8551 70.6864C10.8827 70.4659 10.8304 70.2428 10.7076 70.0573L10.5568 69.6063C10.3664 69.2355 10.313 68.8097 10.406 68.4036C10.487 67.9968 10.6988 67.6274 11.0092 67.3512C11.1517 67.1505 11.3376 66.9842 11.5532 66.8648C11.7689 66.7455 12.0087 66.676 12.255 66.6615C12.5012 66.6471 12.7476 66.6881 12.9758 66.7814C13.204 66.8748 13.4082 67.0182 13.5732 67.2009C13.7698 67.3289 13.9337 67.5008 14.0519 67.7031C14.1701 67.9053 14.2392 68.1323 14.2539 68.3659C14.2685 68.5995 14.2282 68.8333 14.1363 69.0486C14.0443 69.264 13.9031 69.4549 13.724 69.6063H13.5732L12.6683 69.005V68.8546C12.7966 68.7465 12.8822 68.5964 12.9098 68.4312C12.9374 68.266 12.9053 68.0964 12.8191 67.9526C12.5175 67.6519 12.3666 67.8023 11.9142 68.1029C11.4617 68.4036 11.6125 68.5539 11.6125 68.7043C11.6063 68.9148 11.6584 69.1229 11.7634 69.3056L11.9142 69.7566C12.1045 70.1275 12.1579 70.5532 12.065 70.9593C12.065 71.26 11.7633 71.5607 11.4617 72.0117Z" fill="white"/>
<path d="M20.8125 81.3328L24.1306 75.7703H24.2814L25.1863 76.3716V76.522L22.4715 81.1824V81.3328L23.9798 82.2348V82.3851L23.5273 83.2872H23.3765L20.8125 81.3328Z" fill="white"/>
<path d="M28.8066 85.6927L31.5214 79.8295C31.5214 79.8295 31.5214 79.6792 31.6723 79.8295L32.728 80.2805C32.728 80.2805 32.8788 80.2805 32.728 80.4309L30.0132 86.294C30.0132 86.294 30.0132 86.4444 29.8624 86.294L28.8066 85.6927Z" fill="white"/>
<path d="M36.6484 88.6993L37.2517 82.2348C37.2517 82.1949 37.2676 82.1567 37.2959 82.1285C37.3242 82.1003 37.3625 82.0845 37.4025 82.0845L39.0616 82.2348C39.3166 82.2399 39.568 82.2957 39.8011 82.399C40.0342 82.5023 40.2443 82.6509 40.419 82.8362C40.7206 83.1368 40.7206 83.5879 40.7206 84.1892C40.7671 84.4867 40.6999 84.7908 40.5323 85.0413C40.3648 85.2918 40.1091 85.4706 39.8157 85.5422C40.419 85.6926 40.5698 86.2939 40.5698 87.196C40.58 87.4746 40.5315 87.7523 40.4277 88.0112C40.3238 88.2702 40.1667 88.5045 39.9665 88.6993C39.5144 88.9721 38.9808 89.0784 38.4583 89L36.6484 88.6993ZM38.0058 87.7973L38.3075 87.9477C38.6091 87.9477 38.7599 87.9476 38.9108 87.7973C39.0616 87.647 39.0616 87.4966 39.2124 87.0456C39.2517 86.7852 39.1984 86.5192 39.0616 86.2939C38.9108 86.1436 38.7599 86.1436 38.4583 85.9933H38.1567L38.0058 87.7973ZM38.3075 84.9409H38.6091C38.9108 84.9409 39.0616 84.9409 39.2124 84.7906C39.3632 84.6402 39.3632 84.4899 39.3632 84.1892V83.5879C39.3036 83.531 39.2322 83.4881 39.1539 83.4621C39.0757 83.4361 38.9926 83.4277 38.9108 83.4375H38.6091L38.3075 84.9409Z" fill="white"/>
<path d="M47.6597 87.3463L45.0957 81.3328V81.1825L47.8105 80.1301H47.9613L48.4138 81.0322V81.1825L46.9056 81.7838V81.9342L47.5088 83.2872H47.6597L49.0171 82.6859H49.1679L49.6204 83.5879V83.7382L47.8105 84.3396V84.4899L48.4138 85.843H48.5646L50.0728 85.2416H50.2236L50.6761 86.1436V86.294L47.6597 87.3463Z" fill="white"/>
<path d="M59.2729 81.483L58.2171 82.0844H58.0663L56.1056 80.2803L55.804 80.4307V80.581L57.0105 82.6857V82.8361L56.1056 83.4374H55.9548L52.6367 77.8749V77.7246L53.9941 76.9729C54.2109 76.8073 54.4634 76.6942 54.7315 76.6424C54.9997 76.5907 55.2762 76.6017 55.5394 76.6745C55.8026 76.7474 56.0452 76.8802 56.2481 77.0624C56.4511 77.2446 56.6088 77.4713 56.7089 77.7246C56.9109 77.9764 57.0331 78.2824 57.06 78.6037C57.0868 78.925 57.0171 79.247 56.8597 79.5286L59.2729 81.483ZM55.5023 79.3783L55.9548 78.9273C55.9649 78.6684 55.9132 78.4107 55.804 78.1756C55.6911 77.9494 55.5378 77.7456 55.3515 77.5742C55.1404 77.568 54.9316 77.62 54.7482 77.7246L54.4466 77.8749V78.0252L55.3515 79.5286H55.5023V79.3783Z" fill="white"/>
<path d="M64.1 78.1758L61.2344 72.1623V72.0119L62.1393 71.2603H62.2901L67.4181 75.6201V75.7704L66.5131 76.3717H66.3623L65.4574 75.6201L64.4016 76.3717L65.0049 77.4241V77.5744L64.1 78.1758ZM63.9492 75.4697L64.7033 74.8684L62.8934 73.365L63.9492 75.4697Z" fill="white"/>
<path d="M71.9415 71.5607L67.1152 67.2009V67.0506L68.3218 65.8479C68.6295 65.4711 69.0538 65.2068 69.5284 65.0962C69.7625 65.0962 69.9935 65.1505 70.2029 65.2549C70.4123 65.3593 70.5945 65.5108 70.735 65.6975C70.9829 65.8515 71.1752 66.0803 71.2837 66.3507C71.3922 66.6211 71.4113 66.919 71.3382 67.2009C71.7907 66.9002 72.394 67.0506 72.9973 67.6519C73.228 67.795 73.4183 67.9943 73.5502 68.2311C73.6821 68.4678 73.7514 68.7342 73.7514 69.005C73.7514 69.2758 73.6821 69.5421 73.5502 69.7789C73.4183 70.0156 73.228 70.2149 72.9973 70.358L71.9415 71.5607ZM69.9808 67.9526L70.1317 67.8023C70.2825 67.6519 70.4333 67.5016 70.4333 67.3513C70.4333 67.2009 70.2825 67.0506 69.9808 66.7499C69.6792 66.4492 69.5284 66.4492 69.3776 66.4492C69.2267 66.4492 69.0759 66.5996 68.9251 66.7499L68.7743 66.9002V67.0506L69.9808 67.9526ZM72.0923 69.907L72.394 69.7567C72.5528 69.5909 72.6579 69.3814 72.6956 69.1553C72.6956 69.005 72.5448 68.8546 72.2432 68.554C72.0482 68.3252 71.7833 68.1668 71.4891 68.1029C71.3382 68.1029 71.1874 68.2533 70.8858 68.4036L70.735 68.554V68.7043L72.0923 69.907Z" fill="white"/>
<path d="M77.9749 62.8412L71.942 60.4358C71.942 60.4358 71.7912 60.4358 71.942 60.2854L72.3945 59.2331C72.3945 59.2331 72.3945 59.0827 72.5453 59.2331L78.5782 61.6385C78.5782 61.6385 78.729 61.6385 78.5782 61.7888L77.9749 62.8412Z" fill="white"/>
<path d="M80.0858 52.4678V53.5201C80.0858 53.56 80.0699 53.5983 80.0416 53.6265C80.0133 53.6547 79.975 53.6705 79.935 53.6705H74.5054V54.7229C74.5054 54.7627 74.4895 54.801 74.4612 54.8292C74.4329 54.8574 74.3946 54.8732 74.3546 54.8732H73.4496C73.4096 54.8732 73.3713 54.8574 73.343 54.8292C73.3147 54.801 73.2988 54.7627 73.2988 54.7229V51.2651C73.2988 51.2252 73.3147 51.187 73.343 51.1588C73.3713 51.1306 73.4096 51.1147 73.4496 51.1147H74.3546C74.3946 51.1147 74.4329 51.1306 74.4612 51.1588C74.4895 51.187 74.5054 51.2252 74.5054 51.2651V52.3174L80.0858 52.4678Z" fill="white"/>
<path d="M80.0858 36.9831V38.0355C80.0858 38.0754 80.0699 38.1136 80.0416 38.1418C80.0133 38.17 79.975 38.1858 79.935 38.1858L73.4496 39.3885C73.4096 39.3885 73.3713 39.3727 73.343 39.3445C73.3147 39.3163 73.2988 39.2781 73.2988 39.2382V38.1858C73.2988 38.1459 73.3147 38.1077 73.343 38.0795C73.3713 38.0513 73.4096 38.0355 73.4496 38.0355L77.6727 37.2838L73.4496 36.8328C73.4096 36.8328 73.3713 36.8169 73.343 36.7887C73.3147 36.7606 73.2988 36.7223 73.2988 36.6824V35.6301C73.2988 35.5902 73.3147 35.552 73.343 35.5238C73.3713 35.4956 73.4096 35.4797 73.4496 35.4797L80.0858 36.9831Z" fill="white"/>
<path d="M80.2375 28.4139C80.2827 28.7904 80.1835 29.1701 79.9597 29.4767C79.736 29.7834 79.4042 29.9945 79.031 30.0676C78.8801 30.0676 78.7293 30.218 78.4277 30.218H75.1096C74.808 30.218 74.6571 30.218 74.5063 30.0676C74.1455 29.9716 73.8287 29.755 73.6091 29.4539C73.3894 29.1528 73.2802 28.7857 73.2997 28.4139C73.2546 28.0374 73.3538 27.6578 73.5775 27.3511C73.8013 27.0444 74.133 26.8334 74.5063 26.7602C74.6571 26.7602 74.808 26.6099 75.1096 26.6099H78.4277C78.7293 26.6099 78.8801 26.6099 79.031 26.7602C79.4042 26.8334 79.736 27.0444 79.9597 27.3511C80.1835 27.6578 80.2827 28.0374 80.2375 28.4139ZM79.031 28.4139C79.031 28.1132 78.8801 27.9629 78.7293 27.9629H74.808C74.6571 27.9629 74.5063 28.1132 74.5063 28.4139C74.5063 28.7146 74.6571 28.8649 74.808 28.8649H78.7293C78.8801 28.7146 79.031 28.5643 79.031 28.4139Z" fill="white"/>
<path d="M78.1238 17.4392C78.3927 17.409 78.665 17.4335 78.9242 17.511C79.1834 17.5885 79.4241 17.7175 79.632 17.8902C79.7943 18.0742 79.9179 18.2887 79.9956 18.5211C80.0733 18.7534 80.1035 18.999 80.0845 19.2432C80.1198 19.4883 80.0974 19.7382 80.0189 19.9732C79.9404 20.2081 79.8081 20.4216 79.6325 20.5967C79.4568 20.7718 79.2427 20.9037 79.007 20.9819C78.7712 21.0601 78.5205 21.0825 78.2746 21.0473C78.2548 21.0473 78.2352 21.0434 78.2169 21.0358C78.1986 21.0283 78.182 21.0172 78.168 21.0032C78.154 20.9893 78.1429 20.9727 78.1353 20.9545C78.1277 20.9362 78.1238 20.9167 78.1238 20.8969L77.973 19.8446C77.973 19.8047 77.9889 19.7664 78.0171 19.7383C78.0454 19.7101 78.0838 19.6942 78.1238 19.6942C78.4254 19.6942 78.7271 19.6942 78.7271 19.5439C78.825 19.4138 78.8779 19.2555 78.8779 19.0929C78.8779 18.9302 78.825 18.772 78.7271 18.6419C78.5763 18.4915 78.4254 18.4915 78.1238 18.4915C77.8222 18.4915 77.6713 18.4915 77.5205 18.6419C77.3697 18.7922 77.2189 18.9425 77.2189 19.0929L77.068 19.5439C76.9062 19.9506 76.6474 20.3118 76.3139 20.5963C75.939 20.7842 75.5269 20.8869 75.1074 20.8969C74.8615 20.9321 74.6107 20.9098 74.375 20.8316C74.1393 20.7534 73.9252 20.6215 73.7495 20.4464C73.5738 20.2713 73.4415 20.0578 73.3631 19.8229C73.2846 19.5879 73.2622 19.338 73.2975 19.0929C73.2832 18.8648 73.3153 18.6363 73.3917 18.4209C73.4681 18.2054 73.5873 18.0076 73.7422 17.8392C73.897 17.6708 74.0844 17.5352 74.2931 17.4406C74.5017 17.3461 74.7274 17.2944 74.9565 17.2888C74.9965 17.2888 75.0349 17.3047 75.0632 17.3329C75.0915 17.361 75.1074 17.3993 75.1074 17.4392L75.2582 18.4915C75.2582 18.5314 75.2423 18.5696 75.214 18.5978C75.1857 18.626 75.1474 18.6419 75.1074 18.6419C74.6549 18.6419 74.3533 18.7922 74.3533 19.2432C74.3533 19.6942 74.5041 19.6942 74.9565 19.6942C75.409 19.6942 75.409 19.6942 75.5598 19.5439C75.7107 19.3935 75.7106 19.2432 75.8615 19.0929L76.0123 18.6419C76.1741 18.2352 76.433 17.874 76.7664 17.5895C77.2037 17.447 77.6658 17.3958 78.1238 17.4392Z" fill="white"/>
<path d="M42.8347 0L39.969 3.15709L37.1034 0L37.2543 4.20946L33.0312 4.05912L36.1985 6.91554L33.0312 9.77196L37.2543 9.62162L37.1034 13.8311L39.969 10.674L42.8347 13.8311L42.6838 9.47128L46.9068 9.62162L43.7396 6.7652L46.9068 3.90878L42.6838 4.05912L42.8347 0Z" fill="white"/>
<path d="M67.87 17.7397H12.2169V53.2195C12.2089 55.547 12.8344 57.8331 14.0267 59.8343C14.9662 61.2691 16.0808 62.5821 17.3448 63.7431C18.0771 64.5228 18.8855 65.2279 19.758 65.8479C25.5846 70.7163 32.22 74.5322 39.3648 77.1232C39.5417 77.2428 39.7554 77.296 39.968 77.2735C40.1806 77.296 40.3944 77.2428 40.5713 77.1232C47.7321 74.5666 54.3734 70.7474 60.1781 65.8479C60.9323 65.0962 61.8372 64.4948 62.5913 63.7431C63.8553 62.5821 64.9699 61.2691 65.9094 59.8343C67.1197 57.8408 67.7466 55.5495 67.7192 53.2195C67.87 50.6637 67.87 17.8901 67.87 17.7397ZM62.1388 57.4289C61.414 58.4894 60.5519 59.4498 59.5749 60.2854C58.8207 61.037 57.9158 61.7887 57.1617 62.5404L40.1189 45.4019V72.3124C33.9192 69.9825 28.1576 66.6281 23.076 62.3901L40.1189 45.4019H16.8923V22.2499L40.1189 45.4019V22.2499H63.3454L40.1189 45.4019H63.3454V53.0691C63.3212 54.601 62.9059 56.1014 62.1388 57.4289Z" fill="white"/>
</g>
<defs>
<clipPath id="clip0_32_2095">
<rect width="514" height="89" fill="white"/>
</clipPath>
</defs>
</svg>
