<svg width="60" height="67" viewBox="0 0 60 67" fill="none" xmlns="http://www.w3.org/2000/svg">
<path d="M0 14.8279V14.0475C0 14.0179 0.0117786 13.9896 0.0327444 13.9686C0.0537102 13.9477 0.0821459 13.936 0.111796 13.936L4.91901 12.9326C4.94866 12.9326 4.9771 12.9444 4.99807 12.9653C5.01903 12.9862 5.03081 13.0145 5.03081 13.0441V13.8245C5.03081 13.8391 5.02792 13.8536 5.0223 13.8672C5.01668 13.8807 5.00845 13.893 4.99807 13.9033C4.98768 13.9137 4.97536 13.9219 4.9618 13.9275C4.94823 13.9331 4.9337 13.936 4.91901 13.936L1.78873 14.4934L4.91901 14.9394C4.94866 14.9394 4.9771 14.9511 4.99807 14.972C5.01903 14.9929 5.03081 15.0213 5.03081 15.0509V15.8313C5.03081 15.8608 5.01903 15.8892 4.99807 15.9101C4.9771 15.931 4.94866 15.9428 4.91901 15.9428L0 14.8279Z" fill="#BD1818"/>
<path d="M0.111796 19.9561H4.91901C4.93369 19.9561 4.94823 19.9589 4.9618 19.9645C4.97536 19.9701 4.98768 19.9784 4.99807 19.9887C5.00845 19.9991 5.01668 20.0114 5.0223 20.0249C5.02792 20.0384 5.03081 20.0529 5.03081 20.0675V22.1858C5.03081 22.2154 5.01903 22.2437 4.99807 22.2646C4.9771 22.2855 4.94866 22.2973 4.91901 22.2973H4.13644C4.10679 22.2973 4.07836 22.2855 4.05739 22.2646C4.03643 22.2437 4.02465 22.2154 4.02465 22.1858V20.9594H3.01849V22.0743C3.01849 22.1039 3.00671 22.1322 2.98574 22.1531C2.96478 22.174 2.93634 22.1858 2.90669 22.1858H2.12412C2.09447 22.1858 2.06603 22.174 2.04507 22.1531C2.0241 22.1322 2.01232 22.1039 2.01232 22.0743V20.9594H0.894366V22.1858C0.894366 22.2154 0.882588 22.2437 0.861622 22.2646C0.840656 22.2855 0.812221 22.2973 0.78257 22.2973H0.111796C0.0821458 22.2973 0.0537102 22.2855 0.0327444 22.2646C0.0117786 22.2437 0 22.2154 0 22.1858L0.111796 19.9561C1.58259e-07 19.9561 1.58259e-07 20.0675 0.111796 19.9561Z" fill="#BD1818"/>
<path d="M0 29.3209V28.429C0 28.3994 0.0117786 28.371 0.0327444 28.3501C0.0537102 28.3292 0.0821458 28.3175 0.111796 28.3175L1.90053 27.76V27.5371H0.111796C0.0821458 27.5371 0.0537102 27.5253 0.0327444 27.5044C0.0117786 27.4835 0 27.4552 0 27.4256V26.6452C0 26.6156 0.0117786 26.5873 0.0327444 26.5663C0.0537102 26.5454 0.0821458 26.5337 0.111796 26.5337H4.91901C4.94866 26.5337 4.9771 26.5454 4.99807 26.5663C5.01903 26.5873 5.03081 26.6156 5.03081 26.6452V27.8715C5.03081 28.8749 4.47183 29.3209 3.46567 29.3209C3.23063 29.3351 2.99567 29.2918 2.7813 29.1946C2.56693 29.0974 2.37969 28.9494 2.23592 28.7634L0 29.3209V29.3209ZM2.79489 27.6486C2.79489 27.8715 2.79489 27.983 2.90669 28.0945C3.01849 28.206 3.13028 28.206 3.46567 28.206C3.65933 28.2351 3.8571 28.1956 4.02465 28.0945C4.02465 27.983 4.13644 27.8715 4.13644 27.6486V27.4256H2.90669V27.6486H2.79489Z" fill="#BD1818"/>
<path d="M0.111796 33.4458H4.91901C4.9337 33.4458 4.94823 33.4487 4.9618 33.4543C4.97536 33.4599 4.98768 33.4681 4.99807 33.4785C5.00845 33.4888 5.01668 33.5011 5.0223 33.5146C5.02792 33.5281 5.03081 33.5426 5.03081 33.5573V34.3377C5.03081 34.3523 5.02792 34.3668 5.0223 34.3804C5.01668 34.3939 5.00845 34.4062 4.99807 34.4165C4.98768 34.4269 4.97536 34.4351 4.9618 34.4407C4.94823 34.4463 4.9337 34.4492 4.91901 34.4492H0.111796C0.0971147 34.4492 0.0825773 34.4463 0.0690136 34.4407C0.0554499 34.4351 0.0431256 34.4269 0.0327444 34.4165C0.0223632 34.4062 0.0141281 34.3939 0.00850988 34.3804C0.00289162 34.3668 0 34.3523 0 34.3377L0.111796 33.4458V33.4458Z" fill="#BD1818"/>
<path d="M0 40.3582V39.5778C0 39.5482 0.0117786 39.5198 0.0327444 39.4989C0.0537102 39.478 0.0821458 39.4663 0.111796 39.4663L4.02465 39.3548V38.5744C4.02465 38.5448 4.03643 38.5165 4.05739 38.4955C4.07836 38.4746 4.10679 38.4629 4.13644 38.4629H4.80722C4.83687 38.4629 4.8653 38.4746 4.88627 38.4955C4.90724 38.5165 4.91901 38.5448 4.91901 38.5744L5.03081 41.1386C5.03081 41.1681 5.01903 41.1965 4.99807 41.2174C4.9771 41.2383 4.94866 41.2501 4.91901 41.2501H4.24824C4.21859 41.2501 4.19015 41.2383 4.16919 41.2174C4.14822 41.1965 4.13644 41.1681 4.13644 41.1386V40.3582H0V40.3582Z" fill="#BD1818"/>
<path d="M1.11816 45.8209L5.92538 44.7061H6.03718L6.37257 45.4865V45.5979L2.45971 48.6081H2.34792L2.01253 47.8277V47.7162L2.7951 47.1588L2.34792 46.2669L1.45355 46.4898H1.34176L1.11816 45.8209ZM3.13049 46.2669L3.46588 46.8243L4.91922 45.8209L3.13049 46.2669Z" fill="#BD1818"/>
<path d="M8.49644 53.4023C8.24572 53.7106 7.88522 53.9103 7.49028 53.9597C7.3007 53.9592 7.11331 53.9193 6.94007 53.8425C6.76682 53.7657 6.61154 53.6537 6.48412 53.5138C6.32234 53.4138 6.18883 53.2743 6.09625 53.1084C6.00367 52.9426 5.95508 52.7559 5.95508 52.5661C5.95508 52.3763 6.00367 52.1897 6.09625 52.0238C6.18883 51.858 6.32234 51.7185 6.48412 51.6185H6.59591L7.26669 52.0644V52.1759C7.15489 52.3989 7.04309 52.5104 7.04309 52.6219C7.03354 52.6826 7.03852 52.7447 7.05761 52.8032C7.07671 52.8616 7.10938 52.9148 7.15297 52.9582C7.19657 53.0017 7.24984 53.0343 7.30846 53.0533C7.36708 53.0724 7.42937 53.0773 7.49028 53.0678C7.60207 53.0678 7.71387 52.9563 7.82567 52.8448C7.94786 52.7339 8.02628 52.583 8.04678 52.4195C8.06728 52.2559 8.02851 52.0905 7.93746 51.9529L7.82567 51.6185C7.68455 51.3435 7.64497 51.0278 7.71387 50.7266C7.77398 50.4249 7.93095 50.151 8.16105 49.9462C8.26662 49.7973 8.40444 49.674 8.56428 49.5855C8.72413 49.497 8.9019 49.4454 9.08443 49.4347C9.26697 49.424 9.44957 49.4544 9.61873 49.5236C9.78788 49.5929 9.93923 49.6992 10.0616 49.8347C10.2073 49.9296 10.3288 50.0571 10.4164 50.2071C10.504 50.3571 10.5553 50.5254 10.5661 50.6986C10.577 50.8719 10.5471 51.0452 10.4789 51.2049C10.4108 51.3646 10.3061 51.5062 10.1734 51.6185H10.0616L9.39081 51.1725V51.0611C9.48592 50.9809 9.54937 50.8696 9.56985 50.7471C9.59032 50.6245 9.56649 50.4988 9.5026 50.3921C9.27901 50.1692 9.16721 50.2806 8.83183 50.5036C8.49644 50.7266 8.60824 50.8381 8.60824 50.9496C8.60358 51.1057 8.64227 51.26 8.72003 51.3955L8.83183 51.73C8.97294 52.005 9.01252 52.3207 8.94362 52.6219C8.94362 52.8448 8.72003 53.0678 8.49644 53.4023Z" fill="#BD1818"/>
<path d="M15.4277 60.314L17.8872 56.189H17.999L18.6698 56.6349V56.7464L16.6575 60.2025V60.314L17.7754 60.9829V61.0944L17.4401 61.7633H17.3283L15.4277 60.314V60.314Z" fill="#BD1818"/>
<path d="M21.3525 63.5474L23.3649 59.1995C23.3649 59.1995 23.3649 59.088 23.4767 59.1995L24.2592 59.5339C24.2592 59.5339 24.371 59.5339 24.2592 59.6454L22.2469 63.9934C22.2469 63.9934 22.2469 64.1049 22.1351 63.9934L21.3525 63.5474Z" fill="#BD1818"/>
<path d="M27.166 65.777L27.6132 60.9831C27.6132 60.9535 27.625 60.9251 27.6459 60.9042C27.6669 60.8833 27.6953 60.8716 27.725 60.8716L28.9547 60.9831C29.1438 60.9868 29.3302 61.0282 29.5029 61.1048C29.6757 61.1814 29.8314 61.2916 29.9609 61.429C30.1845 61.652 30.1845 61.9864 30.1845 62.4324C30.2189 62.653 30.1691 62.8785 30.0449 63.0643C29.9207 63.25 29.7312 63.3826 29.5137 63.4358V63.4358C29.9609 63.5473 30.0727 63.9932 30.0727 64.6621C30.0802 64.8688 30.0444 65.0747 29.9673 65.2667C29.8903 65.4587 29.7739 65.6325 29.6255 65.777C29.2904 65.9792 28.8949 66.0581 28.5076 66L27.166 65.777ZM28.1722 65.1081L28.3958 65.2196C28.6194 65.2196 28.7312 65.2196 28.843 65.1081C28.9547 64.9966 28.9547 64.8851 29.0665 64.5506C29.0957 64.3575 29.0562 64.1603 28.9547 63.9932C28.843 63.8817 28.7312 63.8817 28.5076 63.7702H28.284L28.1722 65.1081ZM28.3958 62.9898H28.6194C28.843 62.9898 28.9547 62.9898 29.0665 62.8783C29.1783 62.7669 29.1783 62.6554 29.1783 62.4324V61.9864C29.1342 61.9443 29.0812 61.9125 29.0232 61.8932C28.9652 61.8739 28.9036 61.8677 28.843 61.875H28.6194L28.3958 62.9898Z" fill="#BD1818"/>
<path d="M35.3273 64.7737L33.4268 60.3143V60.2028L35.4391 59.4224H35.5509L35.8863 60.0913V60.2028L34.7683 60.6487V60.7602L35.2155 61.7636H35.3273L36.3334 61.3176H36.4452L36.7806 61.9866V62.098L35.4391 62.544V62.6555L35.8863 63.6588H35.9981L37.116 63.2129H37.2278L37.5632 63.8818V63.9933L35.3273 64.7737V64.7737Z" fill="#BD1818"/>
<path d="M43.9356 60.4255L43.153 60.8714H43.0412L41.5879 59.5336L41.3643 59.645V59.7565L42.2587 61.3173V61.4288L41.5879 61.8748H41.4761L39.0166 57.7498V57.6383L40.0228 57.0809C40.1835 56.9581 40.3706 56.8742 40.5694 56.8358C40.7681 56.7974 40.9731 56.8056 41.1682 56.8596C41.3633 56.9136 41.5431 57.0121 41.6935 57.1472C41.844 57.2823 41.9609 57.4504 42.0351 57.6383C42.1848 57.825 42.2754 58.052 42.2953 58.2902C42.3152 58.5285 42.2635 58.7673 42.1469 58.9761L43.9356 60.4255V60.4255ZM41.1407 58.8646L41.4761 58.5302C41.4836 58.3382 41.4452 58.1471 41.3643 57.9728C41.2807 57.805 41.167 57.6538 41.0289 57.5268C40.8724 57.5222 40.7177 57.5607 40.5817 57.6383L40.3582 57.7498V57.8613L41.0289 58.9761H41.1407V58.8646Z" fill="#BD1818"/>
<path d="M47.5128 57.9731L45.3887 53.5136V53.4022L46.0594 52.8447H46.1712L49.9723 56.0778V56.1893L49.3015 56.6353H49.1897L48.519 56.0778L47.7364 56.6353L48.1836 57.4157V57.5272L47.5128 57.9731V57.9731ZM47.401 55.9664L47.96 55.5204L46.6184 54.4055L47.401 55.9664Z" fill="#BD1818"/>
<path d="M53.3265 53.0674L49.749 49.8342V49.7228L50.6434 48.8309C50.8714 48.5515 51.186 48.3554 51.5378 48.2734C51.7113 48.2734 51.8825 48.3137 52.0377 48.3911C52.193 48.4685 52.328 48.5809 52.4321 48.7194C52.6159 48.8336 52.7584 49.0032 52.8389 49.2038C52.9193 49.4043 52.9335 49.6252 52.8793 49.8342V49.8342C53.2147 49.6113 53.6619 49.7228 54.1091 50.1687C54.2801 50.2748 54.4211 50.4226 54.5189 50.5982C54.6167 50.7737 54.668 50.9713 54.668 51.1721C54.668 51.3729 54.6167 51.5704 54.5189 51.746C54.4211 51.9216 54.2801 52.0694 54.1091 52.1755L53.3265 53.0674V53.0674ZM51.8731 50.3917L51.9849 50.2802C52.0967 50.1687 52.2085 50.0572 52.2085 49.9457C52.2085 49.8342 52.0967 49.7228 51.8731 49.4998C51.6496 49.2768 51.5378 49.2768 51.426 49.2768C51.3142 49.2768 51.2024 49.3883 51.0906 49.4998L50.9788 49.6113V49.7228L51.8731 50.3917V50.3917ZM53.4383 51.841L53.6619 51.7295C53.7796 51.6066 53.8575 51.4512 53.8855 51.2836C53.8855 51.1721 53.7737 51.0606 53.5501 50.8376C53.4056 50.668 53.2092 50.5505 52.9911 50.5032C52.8793 50.5032 52.7675 50.6147 52.5439 50.7261L52.4321 50.8376V50.9491L53.4383 51.841Z" fill="#BD1818"/>
<path d="M57.7989 46.6012L53.327 44.8174C53.327 44.8174 53.2152 44.8174 53.327 44.7059L53.6624 43.9255C53.6624 43.9255 53.6624 43.814 53.7742 43.9255L58.246 45.7093C58.246 45.7093 58.3578 45.7093 58.246 45.8208L57.7989 46.6012Z" fill="#BD1818"/>
<path d="M59.3638 38.9086V39.6891C59.3638 39.7186 59.352 39.747 59.3311 39.7679C59.3101 39.7888 59.2817 39.8005 59.252 39.8005H55.2274V40.5809C55.2274 40.6105 55.2156 40.6389 55.1946 40.6598C55.1737 40.6807 55.1452 40.6924 55.1156 40.6924H54.4448C54.4152 40.6924 54.3867 40.6807 54.3658 40.6598C54.3448 40.6389 54.333 40.6105 54.333 40.5809V38.0168C54.333 37.9872 54.3448 37.9588 54.3658 37.9379C54.3867 37.917 54.4152 37.9053 54.4448 37.9053H55.1156C55.1452 37.9053 55.1737 37.917 55.1946 37.9379C55.2156 37.9588 55.2274 37.9872 55.2274 38.0168V38.7972L59.3638 38.9086V38.9086Z" fill="#BD1818"/>
<path d="M59.3638 27.4259V28.2063C59.3638 28.2359 59.352 28.2642 59.3311 28.2851C59.3101 28.306 59.2817 28.3178 59.252 28.3178L54.4448 29.2097C54.4152 29.2097 54.3867 29.1979 54.3658 29.177C54.3448 29.1561 54.333 29.1278 54.333 29.0982V28.3178C54.333 28.2882 54.3448 28.2599 54.3658 28.239C54.3867 28.2181 54.4152 28.2063 54.4448 28.2063L57.5751 27.6489L54.4448 27.3144C54.4152 27.3144 54.3867 27.3027 54.3658 27.2818C54.3448 27.2609 54.333 27.2325 54.333 27.2029V26.4225C54.333 26.393 54.3448 26.3646 54.3658 26.3437C54.3867 26.3228 54.4152 26.311 54.4448 26.311L59.3638 27.4259V27.4259Z" fill="#BD1818"/>
<path d="M59.4757 21.0707C59.5092 21.35 59.4357 21.6315 59.2698 21.8589C59.104 22.0863 58.858 22.2429 58.5814 22.2971C58.4696 22.2971 58.3578 22.4086 58.1342 22.4086H55.6747C55.4511 22.4086 55.3393 22.4086 55.2275 22.2971C54.96 22.2259 54.7252 22.0652 54.5624 21.842C54.3996 21.6187 54.3186 21.3464 54.3331 21.0707C54.2996 20.7915 54.3732 20.51 54.539 20.2826C54.7049 20.0552 54.9508 19.8986 55.2275 19.8444C55.3393 19.8444 55.4511 19.7329 55.6747 19.7329H58.1342C58.3578 19.7329 58.4696 19.7329 58.5814 19.8444C58.858 19.8986 59.104 20.0552 59.2698 20.2826C59.4357 20.51 59.5092 20.7915 59.4757 21.0707ZM58.5814 21.0707C58.5814 20.8478 58.4696 20.7363 58.3578 20.7363H55.4511C55.3393 20.7363 55.2275 20.8478 55.2275 21.0707C55.2275 21.2937 55.3393 21.4052 55.4511 21.4052H58.3578C58.4696 21.2937 58.5814 21.1822 58.5814 21.0707Z" fill="#BD1818"/>
<path d="M57.9098 12.9323C58.1092 12.91 58.311 12.9281 58.5031 12.9856C58.6952 13.043 58.8737 13.1387 59.0278 13.2667C59.148 13.4032 59.2397 13.5623 59.2973 13.7346C59.3549 13.9069 59.3773 14.089 59.3632 14.2701C59.3894 14.4519 59.3727 14.6372 59.3146 14.8115C59.2564 14.9857 59.1583 15.144 59.0281 15.2739C58.8979 15.4037 58.7392 15.5015 58.5645 15.5595C58.3897 15.6175 58.2039 15.6341 58.0216 15.608C58.0069 15.608 57.9924 15.6051 57.9788 15.5995C57.9653 15.5939 57.953 15.5857 57.9426 15.5753C57.9322 15.565 57.924 15.5527 57.9183 15.5391C57.9127 15.5256 57.9098 15.5111 57.9098 15.4965L57.798 14.7161C57.798 14.6865 57.8098 14.6581 57.8308 14.6372C57.8517 14.6163 57.8802 14.6046 57.9098 14.6046C58.1334 14.6046 58.357 14.6046 58.357 14.4931C58.4296 14.3966 58.4688 14.2793 58.4688 14.1586C58.4688 14.038 58.4296 13.9207 58.357 13.8242C58.2452 13.7127 58.1334 13.7127 57.9098 13.7127C57.6862 13.7127 57.5744 13.7127 57.4626 13.8242C57.3508 13.9357 57.2391 14.0472 57.2391 14.1586L57.1273 14.4931C57.0073 14.7947 56.8154 15.0625 56.5683 15.2735C56.2904 15.4129 55.9849 15.4891 55.6739 15.4965C55.4916 15.5226 55.3058 15.506 55.1311 15.448C54.9564 15.39 54.7976 15.2922 54.6674 15.1624C54.5372 15.0325 54.4391 14.8742 54.381 14.7C54.3228 14.5257 54.3062 14.3404 54.3324 14.1586C54.3218 13.9895 54.3455 13.82 54.4022 13.6603C54.4588 13.5006 54.5472 13.3538 54.662 13.2289C54.7768 13.104 54.9157 13.0035 55.0703 12.9334C55.225 12.8633 55.3923 12.825 55.5621 12.8208C55.5918 12.8208 55.6202 12.8325 55.6412 12.8535C55.6621 12.8744 55.6739 12.9027 55.6739 12.9323L55.7857 13.7127C55.7857 13.7423 55.7739 13.7706 55.753 13.7915C55.732 13.8124 55.7036 13.8242 55.6739 13.8242C55.3385 13.8242 55.1149 13.9357 55.1149 14.2701C55.1149 14.6046 55.2267 14.6046 55.5621 14.6046C55.8975 14.6046 55.8975 14.6046 56.0093 14.4931C56.1211 14.3816 56.1211 14.2701 56.2329 14.1586L56.3447 13.8242C56.4646 13.5226 56.6565 13.2547 56.9037 13.0438C57.2278 12.9381 57.5703 12.9001 57.9098 12.9323V12.9323Z" fill="#BD1818"/>
<path d="M31.7501 0L29.626 2.34122L27.5019 0L27.6137 3.12162L24.4834 3.01014L26.8311 5.12838L24.4834 7.24662L27.6137 7.13514L27.5019 10.2568L29.626 7.91554L31.7501 10.2568L31.6383 7.02365L34.7686 7.13514L32.4209 5.01689L34.7686 2.89865L31.6383 3.01014L31.7501 0V0Z" fill="#BD1818"/>
<path d="M50.3084 13.1553H9.05572V39.4661C9.04983 41.1921 9.51348 42.8874 10.3973 44.3715C11.0937 45.4355 11.9198 46.4091 12.8568 47.2701C13.3996 47.8483 13.9988 48.3712 14.6455 48.8309C18.9645 52.4413 23.883 55.271 29.179 57.1924C29.3101 57.2811 29.4686 57.3206 29.6261 57.3039V57.3039C29.7837 57.3206 29.9422 57.2811 30.0733 57.1924C35.3812 55.2965 40.304 52.4643 44.6068 48.8309C45.1658 48.2735 45.8365 47.8276 46.3955 47.2701C47.3325 46.4091 48.1586 45.4355 48.855 44.3715C49.7522 42.8931 50.2169 41.194 50.1966 39.4661C50.3084 37.5708 50.3084 13.2668 50.3084 13.1553ZM46.0601 42.5877C45.5228 43.3741 44.8838 44.0863 44.1596 44.7059C43.6006 45.2634 42.9298 45.8208 42.3709 46.3782L29.7379 33.6688V53.6249C25.1425 51.8971 20.8717 49.4096 17.105 46.2668L29.7379 33.6688H12.5214V16.4999L29.7379 33.6688V16.4999H46.9545L29.7379 33.6688H46.9545V39.3546C46.9365 40.4906 46.6287 41.6032 46.0601 42.5877V42.5877Z" fill="#BD1818"/>
</svg>
